<svg width="350" height="128" viewBox="0 0 350 128" fill="none" xmlns="http://www.w3.org/2000/svg">
<g filter="url(#filter0_d_10_539)">
<rect x="4" y="4" width="342" height="120" rx="12" fill="white"/>
<path d="M81.126 37.492C80.7433 37.492 80.3747 37.4173 80.02 37.268C79.6747 37.128 79.3807 36.9087 79.138 36.61C78.9047 36.3207 78.7647 35.9473 78.718 35.49H79.684C79.7867 35.826 79.9687 36.0687 80.23 36.218C80.5007 36.3673 80.7807 36.442 81.07 36.442C81.21 36.442 81.3453 36.428 81.476 36.4C81.6067 36.3813 81.7327 36.3533 81.854 36.316V37.394C81.7327 37.4127 81.6113 37.4313 81.49 37.45C81.3687 37.478 81.2473 37.492 81.126 37.492ZM78.83 35.084C78.158 35.084 77.5653 35.0187 77.052 34.888C76.548 34.7573 76.1233 34.5147 75.778 34.16C75.442 33.8053 75.19 33.2827 75.022 32.592C74.854 31.9013 74.77 30.996 74.77 29.876C74.77 28.756 74.854 27.8507 75.022 27.16C75.19 26.46 75.4467 25.928 75.792 25.564C76.1373 25.1907 76.562 24.9387 77.066 24.808C77.57 24.668 78.158 24.598 78.83 24.598C79.5207 24.598 80.118 24.668 80.622 24.808C81.1353 24.9387 81.56 25.1907 81.896 25.564C82.232 25.928 82.484 26.46 82.652 27.16C82.82 27.8507 82.904 28.756 82.904 29.876C82.904 30.996 82.82 31.9013 82.652 32.592C82.484 33.2827 82.2273 33.8053 81.882 34.16C81.546 34.5147 81.1213 34.7573 80.608 34.888C80.104 35.0187 79.5113 35.084 78.83 35.084ZM78.83 33.824C79.3153 33.824 79.726 33.7727 80.062 33.67C80.4073 33.5673 80.6827 33.3807 80.888 33.11C81.1027 32.83 81.2567 32.4333 81.35 31.92C81.4433 31.3973 81.49 30.716 81.49 29.876C81.49 28.9893 81.4387 28.28 81.336 27.748C81.2427 27.216 81.0933 26.8147 80.888 26.544C80.6827 26.2733 80.4073 26.0913 80.062 25.998C79.726 25.9047 79.3153 25.858 78.83 25.858C78.3727 25.858 77.976 25.9047 77.64 25.998C77.304 26.0913 77.0287 26.2733 76.814 26.544C76.5993 26.8147 76.436 27.216 76.324 27.748C76.2213 28.28 76.17 28.9893 76.17 29.876C76.17 30.716 76.212 31.3973 76.296 31.92C76.3893 32.4333 76.5387 32.83 76.744 33.11C76.9587 33.3807 77.234 33.5673 77.57 33.67C77.9153 33.7727 78.3353 33.824 78.83 33.824ZM86.844 35.084C86.144 35.084 85.598 34.8973 85.206 34.524C84.8233 34.1413 84.632 33.5627 84.632 32.788V27.51H86.032V32.41C86.032 32.97 86.158 33.348 86.41 33.544C86.6713 33.74 87.0353 33.838 87.502 33.838C87.8753 33.838 88.23 33.782 88.566 33.67C88.9113 33.5487 89.2473 33.3853 89.574 33.18V27.51H90.974V35H89.854L89.574 34.202C89.21 34.4353 88.79 34.6407 88.314 34.818C87.8473 34.9953 87.3573 35.084 86.844 35.084ZM94.4018 35.084C93.8512 35.084 93.3938 34.9207 93.0298 34.594C92.6752 34.258 92.4978 33.796 92.4978 33.208V32.62C92.4978 32.0413 92.6938 31.57 93.0858 31.206C93.4872 30.8327 94.0892 30.646 94.8918 30.646H97.2298V29.862C97.2298 29.5727 97.1785 29.33 97.0758 29.134C96.9825 28.9287 96.8052 28.7747 96.5438 28.672C96.2825 28.5693 95.8952 28.518 95.3818 28.518H93.0858V27.692C93.4218 27.6173 93.8138 27.552 94.2618 27.496C94.7192 27.44 95.2512 27.4073 95.8578 27.398C96.4738 27.398 96.9872 27.4773 97.3978 27.636C97.8178 27.7853 98.1305 28.0373 98.3358 28.392C98.5412 28.7373 98.6438 29.1993 98.6438 29.778V35H97.5378L97.2998 34.174C97.2438 34.2113 97.1272 34.2813 96.9498 34.384C96.7725 34.4773 96.5438 34.58 96.2638 34.692C95.9932 34.804 95.6945 34.8973 95.3678 34.972C95.0505 35.0467 94.7285 35.084 94.4018 35.084ZM95.0458 34.062C95.1858 34.0713 95.3492 34.0573 95.5358 34.02C95.7318 33.9827 95.9232 33.9407 96.1098 33.894C96.3058 33.838 96.4832 33.782 96.6418 33.726C96.8098 33.67 96.9452 33.6233 97.0478 33.586C97.1598 33.5393 97.2205 33.5113 97.2298 33.502V31.346L95.2698 31.43C94.7845 31.458 94.4345 31.5793 94.2198 31.794C94.0145 32.0087 93.9118 32.2887 93.9118 32.634V32.97C93.9118 33.2407 93.9678 33.46 94.0798 33.628C94.1918 33.7867 94.3318 33.8987 94.4998 33.964C94.6772 34.0293 94.8592 34.062 95.0458 34.062ZM102.632 35.014C102.175 35.014 101.788 34.9347 101.47 34.776C101.162 34.6173 100.929 34.3653 100.77 34.02C100.621 33.6653 100.546 33.1893 100.546 32.592V24.318H101.946V32.41C101.946 32.802 101.984 33.1053 102.058 33.32C102.142 33.5253 102.254 33.67 102.394 33.754C102.544 33.838 102.716 33.894 102.912 33.922L103.612 34.006V35.014H102.632ZM104.94 26.25C104.772 26.25 104.688 26.1707 104.688 26.012V24.836C104.688 24.668 104.772 24.584 104.94 24.584H105.976C106.05 24.584 106.106 24.6073 106.144 24.654C106.181 24.7007 106.2 24.7613 106.2 24.836V26.012C106.2 26.1707 106.125 26.25 105.976 26.25H104.94ZM104.744 35V27.51H106.144V35H104.744ZM110.697 35C110.193 35 109.773 34.9207 109.437 34.762C109.11 34.594 108.868 34.328 108.709 33.964C108.56 33.6 108.49 33.1147 108.499 32.508L108.555 28.658H107.365V27.748L108.583 27.51L108.793 25.41H109.899V27.51H111.929V28.658H109.899V32.494C109.899 32.7833 109.927 33.0167 109.983 33.194C110.039 33.3713 110.118 33.5067 110.221 33.6C110.324 33.6933 110.436 33.7633 110.557 33.81C110.678 33.8473 110.795 33.8707 110.907 33.88L111.831 33.964V35H110.697ZM115.457 38.318L116.367 35C116.069 34.9907 115.784 34.93 115.513 34.818C115.243 34.6967 115 34.5053 114.785 34.244C114.58 33.9733 114.412 33.614 114.281 33.166L112.601 27.51H114.071L115.583 32.872C115.667 33.124 115.761 33.3153 115.863 33.446C115.975 33.5767 116.083 33.67 116.185 33.726C116.297 33.7727 116.395 33.8007 116.479 33.81C116.563 33.8193 116.615 33.824 116.633 33.824L118.383 27.51H119.825L117.249 36.932L116.577 38.318H115.457ZM124.185 35L127.629 24.682H129.421L132.865 35H131.395L130.485 32.298H126.537L125.641 35H124.185ZM126.873 31.024H130.135L128.511 25.914L126.873 31.024ZM136.866 35.084C136.67 35.084 136.436 35.0793 136.166 35.07C135.895 35.0607 135.615 35.042 135.326 35.014C135.046 34.9953 134.784 34.972 134.542 34.944C134.308 34.916 134.122 34.8833 133.982 34.846V34.006H137.132C137.402 34.006 137.636 33.9873 137.832 33.95C138.028 33.9033 138.177 33.81 138.28 33.67C138.392 33.53 138.448 33.3247 138.448 33.054V32.746C138.448 32.466 138.354 32.2467 138.168 32.088C137.981 31.9293 137.673 31.85 137.244 31.85H136.152C135.713 31.85 135.321 31.794 134.976 31.682C134.64 31.5607 134.374 31.36 134.178 31.08C133.991 30.8 133.898 30.422 133.898 29.946V29.54C133.898 29.064 133.986 28.672 134.164 28.364C134.35 28.056 134.644 27.8273 135.046 27.678C135.447 27.5193 135.979 27.44 136.642 27.44C136.922 27.44 137.23 27.454 137.566 27.482C137.911 27.5007 138.247 27.5287 138.574 27.566C138.9 27.6033 139.162 27.6453 139.358 27.692V28.532H136.39C135.979 28.532 135.662 28.602 135.438 28.742C135.223 28.882 135.116 29.148 135.116 29.54V29.82C135.116 30.0627 135.167 30.2493 135.27 30.38C135.372 30.5107 135.517 30.5947 135.704 30.632C135.9 30.6693 136.128 30.688 136.39 30.688H137.51C138.219 30.688 138.756 30.856 139.12 31.192C139.484 31.5187 139.666 31.9807 139.666 32.578V33.152C139.666 33.656 139.549 34.048 139.316 34.328C139.082 34.608 138.756 34.804 138.336 34.916C137.925 35.028 137.435 35.084 136.866 35.084ZM143.879 35.084C143.683 35.084 143.45 35.0793 143.179 35.07C142.909 35.0607 142.629 35.042 142.339 35.014C142.059 34.9953 141.798 34.972 141.555 34.944C141.322 34.916 141.135 34.8833 140.995 34.846V34.006H144.145C144.416 34.006 144.649 33.9873 144.845 33.95C145.041 33.9033 145.191 33.81 145.293 33.67C145.405 33.53 145.461 33.3247 145.461 33.054V32.746C145.461 32.466 145.368 32.2467 145.181 32.088C144.995 31.9293 144.687 31.85 144.257 31.85H143.165C142.727 31.85 142.335 31.794 141.989 31.682C141.653 31.5607 141.387 31.36 141.191 31.08C141.005 30.8 140.911 30.422 140.911 29.946V29.54C140.911 29.064 141 28.672 141.177 28.364C141.364 28.056 141.658 27.8273 142.059 27.678C142.461 27.5193 142.993 27.44 143.655 27.44C143.935 27.44 144.243 27.454 144.579 27.482C144.925 27.5007 145.261 27.5287 145.587 27.566C145.914 27.6033 146.175 27.6453 146.371 27.692V28.532H143.403C142.993 28.532 142.675 28.602 142.451 28.742C142.237 28.882 142.129 29.148 142.129 29.54V29.82C142.129 30.0627 142.181 30.2493 142.283 30.38C142.386 30.5107 142.531 30.5947 142.717 30.632C142.913 30.6693 143.142 30.688 143.403 30.688H144.523C145.233 30.688 145.769 30.856 146.133 31.192C146.497 31.5187 146.679 31.9807 146.679 32.578V33.152C146.679 33.656 146.563 34.048 146.329 34.328C146.096 34.608 145.769 34.804 145.349 34.916C144.939 35.028 144.449 35.084 143.879 35.084ZM150.473 35.084C149.773 35.084 149.227 34.8973 148.835 34.524C148.452 34.1413 148.261 33.5627 148.261 32.788V27.51H149.661V32.41C149.661 32.97 149.787 33.348 150.039 33.544C150.3 33.74 150.664 33.838 151.131 33.838C151.504 33.838 151.859 33.782 152.195 33.67C152.54 33.5487 152.876 33.3853 153.203 33.18V27.51H154.603V35H153.483L153.203 34.202C152.839 34.4353 152.419 34.6407 151.943 34.818C151.476 34.9953 150.986 35.084 150.473 35.084ZM156.533 35V27.51H157.611L157.933 28.77C158.25 28.3873 158.605 28.0653 158.997 27.804C159.389 27.5427 159.846 27.412 160.369 27.412C160.49 27.412 160.607 27.4213 160.719 27.44C160.831 27.4493 160.938 27.468 161.041 27.496V28.938C160.91 28.9193 160.775 28.9053 160.635 28.896C160.495 28.8773 160.35 28.868 160.201 28.868C159.883 28.868 159.599 28.9053 159.347 28.98C159.095 29.0547 158.852 29.1713 158.619 29.33C158.395 29.4793 158.166 29.666 157.933 29.89V35H156.533ZM163.582 35.084C163.031 35.084 162.574 34.9207 162.21 34.594C161.855 34.258 161.678 33.796 161.678 33.208V32.62C161.678 32.0413 161.874 31.57 162.266 31.206C162.667 30.8327 163.269 30.646 164.072 30.646H166.41V29.862C166.41 29.5727 166.358 29.33 166.256 29.134C166.162 28.9287 165.985 28.7747 165.724 28.672C165.462 28.5693 165.075 28.518 164.562 28.518H162.266V27.692C162.602 27.6173 162.994 27.552 163.442 27.496C163.899 27.44 164.431 27.4073 165.038 27.398C165.654 27.398 166.167 27.4773 166.578 27.636C166.998 27.7853 167.31 28.0373 167.516 28.392C167.721 28.7373 167.824 29.1993 167.824 29.778V35H166.718L166.48 34.174C166.424 34.2113 166.307 34.2813 166.13 34.384C165.952 34.4773 165.724 34.58 165.444 34.692C165.173 34.804 164.874 34.8973 164.548 34.972C164.23 35.0467 163.908 35.084 163.582 35.084ZM164.226 34.062C164.366 34.0713 164.529 34.0573 164.716 34.02C164.912 33.9827 165.103 33.9407 165.29 33.894C165.486 33.838 165.663 33.782 165.822 33.726C165.99 33.67 166.125 33.6233 166.228 33.586C166.34 33.5393 166.4 33.5113 166.41 33.502V31.346L164.45 31.43C163.964 31.458 163.614 31.5793 163.4 31.794C163.194 32.0087 163.092 32.2887 163.092 32.634V32.97C163.092 33.2407 163.148 33.46 163.26 33.628C163.372 33.7867 163.512 33.8987 163.68 33.964C163.857 34.0293 164.039 34.062 164.226 34.062ZM169.726 35V27.51H170.846L171.126 28.322C171.462 28.0793 171.859 27.8647 172.316 27.678C172.783 27.482 173.263 27.384 173.758 27.384C174.318 27.384 174.766 27.5053 175.102 27.748C175.447 27.9813 175.695 28.294 175.844 28.686C175.993 29.078 176.068 29.5027 176.068 29.96V35H174.668V30.128C174.668 29.8293 174.607 29.5727 174.486 29.358C174.374 29.134 174.215 28.9613 174.01 28.84C173.805 28.7187 173.553 28.658 173.254 28.658C172.974 28.658 172.713 28.686 172.47 28.742C172.237 28.798 172.013 28.8773 171.798 28.98C171.583 29.0733 171.359 29.19 171.126 29.33V35H169.726ZM180.77 35.084C180.331 35.084 179.925 35.028 179.552 34.916C179.188 34.7947 178.866 34.594 178.586 34.314C178.315 34.034 178.105 33.6467 177.956 33.152C177.807 32.6573 177.732 32.032 177.732 31.276C177.732 30.5013 177.802 29.8667 177.942 29.372C178.082 28.868 178.283 28.476 178.544 28.196C178.815 27.9067 179.141 27.706 179.524 27.594C179.907 27.482 180.336 27.426 180.812 27.426C181.204 27.426 181.615 27.4447 182.044 27.482C182.483 27.5193 182.907 27.58 183.318 27.664V28.49H181.204C180.747 28.49 180.364 28.5647 180.056 28.714C179.748 28.854 179.519 29.1293 179.37 29.54C179.221 29.9413 179.146 30.5247 179.146 31.29C179.146 32.0273 179.225 32.5967 179.384 32.998C179.543 33.39 179.771 33.656 180.07 33.796C180.378 33.936 180.761 34.006 181.218 34.006H183.43V34.804C183.215 34.86 182.959 34.9113 182.66 34.958C182.371 34.9953 182.063 35.0233 181.736 35.042C181.419 35.07 181.097 35.084 180.77 35.084ZM187.801 35.084C187.008 35.084 186.373 34.9673 185.897 34.734C185.431 34.5007 185.095 34.1087 184.889 33.558C184.693 32.998 184.595 32.228 184.595 31.248C184.595 30.2493 184.693 29.4747 184.889 28.924C185.095 28.364 185.431 27.972 185.897 27.748C186.364 27.524 186.994 27.412 187.787 27.412C188.478 27.412 189.033 27.4867 189.453 27.636C189.883 27.776 190.195 28.0327 190.391 28.406C190.597 28.77 190.699 29.2787 190.699 29.932C190.699 30.3893 190.606 30.7533 190.419 31.024C190.242 31.2947 189.985 31.4907 189.649 31.612C189.323 31.7333 188.931 31.794 188.473 31.794H185.995C186.005 32.3353 186.065 32.7693 186.177 33.096C186.299 33.4133 186.509 33.6467 186.807 33.796C187.115 33.936 187.563 34.006 188.151 34.006H190.489V34.846C190.088 34.902 189.677 34.9533 189.257 35C188.837 35.056 188.352 35.084 187.801 35.084ZM185.981 30.912H188.347C188.721 30.912 188.996 30.842 189.173 30.702C189.351 30.562 189.439 30.3053 189.439 29.932C189.439 29.5587 189.383 29.2647 189.271 29.05C189.169 28.8353 188.996 28.6813 188.753 28.588C188.511 28.4947 188.189 28.448 187.787 28.448C187.33 28.448 186.966 28.518 186.695 28.658C186.434 28.798 186.247 29.0453 186.135 29.4C186.033 29.7547 185.981 30.2587 185.981 30.912Z" fill="black"/>
<path d="M203.458 37.94C203.001 37.268 202.59 36.5587 202.226 35.812C201.862 35.0747 201.573 34.2673 201.358 33.39C201.143 32.5033 201.036 31.5187 201.036 30.436C201.036 29.3907 201.148 28.4293 201.372 27.552C201.596 26.6653 201.89 25.844 202.254 25.088C202.618 24.3227 203.019 23.6133 203.458 22.96H204.746C204.326 23.6787 203.943 24.43 203.598 25.214C203.253 25.9887 202.973 26.81 202.758 27.678C202.553 28.5367 202.45 29.456 202.45 30.436C202.45 31.416 202.543 32.326 202.73 33.166C202.926 34.006 203.197 34.8133 203.542 35.588C203.887 36.3627 204.289 37.1467 204.746 37.94H203.458ZM205.437 35L208.881 24.682H210.673L214.117 35H212.647L211.737 32.298H207.789L206.893 35H205.437ZM208.125 31.024H211.387L209.763 25.914L208.125 31.024ZM215.545 26.25C215.386 26.25 215.307 26.1707 215.307 26.012V24.836C215.307 24.668 215.386 24.584 215.545 24.584H216.595C216.669 24.584 216.725 24.6073 216.763 24.654C216.8 24.7007 216.819 24.7613 216.819 24.836V26.012C216.819 26.1707 216.744 26.25 216.595 26.25H215.545ZM215.363 38.318V27.51H216.763V34.818C216.763 35.462 216.73 36.0967 216.665 36.722C216.599 37.3567 216.515 37.8887 216.413 38.318H215.363ZM220.224 35.084C219.673 35.084 219.216 34.9207 218.852 34.594C218.497 34.258 218.32 33.796 218.32 33.208V32.62C218.32 32.0413 218.516 31.57 218.908 31.206C219.309 30.8327 219.911 30.646 220.714 30.646H223.052V29.862C223.052 29.5727 223.001 29.33 222.898 29.134C222.805 28.9287 222.627 28.7747 222.366 28.672C222.105 28.5693 221.717 28.518 221.204 28.518H218.908V27.692C219.244 27.6173 219.636 27.552 220.084 27.496C220.541 27.44 221.073 27.4073 221.68 27.398C222.296 27.398 222.809 27.4773 223.22 27.636C223.64 27.7853 223.953 28.0373 224.158 28.392C224.363 28.7373 224.466 29.1993 224.466 29.778V35H223.36L223.122 34.174C223.066 34.2113 222.949 34.2813 222.772 34.384C222.595 34.4773 222.366 34.58 222.086 34.692C221.815 34.804 221.517 34.8973 221.19 34.972C220.873 35.0467 220.551 35.084 220.224 35.084ZM220.868 34.062C221.008 34.0713 221.171 34.0573 221.358 34.02C221.554 33.9827 221.745 33.9407 221.932 33.894C222.128 33.838 222.305 33.782 222.464 33.726C222.632 33.67 222.767 33.6233 222.87 33.586C222.982 33.5393 223.043 33.5113 223.052 33.502V31.346L221.092 31.43C220.607 31.458 220.257 31.5793 220.042 31.794C219.837 32.0087 219.734 32.2887 219.734 32.634V32.97C219.734 33.2407 219.79 33.46 219.902 33.628C220.014 33.7867 220.154 33.8987 220.322 33.964C220.499 34.0293 220.681 34.062 220.868 34.062ZM228.483 38.318L229.393 35C229.094 34.9907 228.809 34.93 228.539 34.818C228.268 34.6967 228.025 34.5053 227.811 34.244C227.605 33.9733 227.437 33.614 227.307 33.166L225.627 27.51H227.097L228.609 32.872C228.693 33.124 228.786 33.3153 228.889 33.446C229.001 33.5767 229.108 33.67 229.211 33.726C229.323 33.7727 229.421 33.8007 229.505 33.81C229.589 33.8193 229.64 33.824 229.659 33.824L231.409 27.51H232.851L230.275 36.932L229.603 38.318H228.483ZM233.366 37.94C233.814 37.1933 234.211 36.428 234.556 35.644C234.901 34.8693 235.172 34.0573 235.368 33.208C235.564 32.3493 235.662 31.43 235.662 30.45C235.662 29.47 235.569 28.5693 235.382 27.748C235.205 26.9267 234.943 26.1287 234.598 25.354C234.262 24.57 233.851 23.772 233.366 22.96H234.654C235.13 23.6413 235.55 24.3553 235.914 25.102C236.278 25.8487 236.558 26.656 236.754 27.524C236.959 28.392 237.062 29.3673 237.062 30.45C237.062 31.4953 236.959 32.4567 236.754 33.334C236.549 34.2113 236.264 35.0233 235.9 35.77C235.536 36.526 235.121 37.2493 234.654 37.94H233.366Z" fill="black"/>
<path d="M77.7 60C77.356 60 77.048 59.948 76.776 59.844C76.512 59.732 76.304 59.548 76.152 59.292C76 59.028 75.924 58.672 75.924 58.224V51.168H76.884V58.092C76.884 58.38 76.932 58.6 77.028 58.752C77.124 58.896 77.252 58.996 77.412 59.052C77.572 59.1 77.736 59.124 77.904 59.124H81.072V60H77.7ZM84.8427 60.072C84.3787 60.072 83.9707 60.024 83.6187 59.928C83.2747 59.832 82.9867 59.664 82.7547 59.424C82.5227 59.184 82.3507 58.852 82.2387 58.428C82.1267 57.996 82.0707 57.448 82.0707 56.784C82.0707 56.112 82.1267 55.564 82.2387 55.14C82.3507 54.708 82.5227 54.376 82.7547 54.144C82.9867 53.904 83.2747 53.74 83.6187 53.652C83.9707 53.556 84.3787 53.508 84.8427 53.508C85.3067 53.508 85.7107 53.556 86.0547 53.652C86.4067 53.748 86.6987 53.916 86.9307 54.156C87.1627 54.388 87.3347 54.72 87.4467 55.152C87.5667 55.576 87.6267 56.12 87.6267 56.784C87.6267 57.456 87.5667 58.008 87.4467 58.44C87.3347 58.864 87.1627 59.196 86.9307 59.436C86.7067 59.668 86.4187 59.832 86.0667 59.928C85.7147 60.024 85.3067 60.072 84.8427 60.072ZM84.8427 59.292C85.1387 59.292 85.3987 59.264 85.6227 59.208C85.8547 59.152 86.0467 59.04 86.1987 58.872C86.3507 58.704 86.4667 58.452 86.5467 58.116C86.6267 57.78 86.6667 57.336 86.6667 56.784C86.6667 56.224 86.6267 55.78 86.5467 55.452C86.4667 55.124 86.3507 54.876 86.1987 54.708C86.0467 54.54 85.8547 54.428 85.6227 54.372C85.3987 54.316 85.1387 54.288 84.8427 54.288C84.5387 54.288 84.2747 54.316 84.0507 54.372C83.8267 54.428 83.6387 54.54 83.4867 54.708C83.3347 54.876 83.2187 55.124 83.1387 55.452C83.0587 55.78 83.0187 56.224 83.0187 56.784C83.0187 57.336 83.0587 57.78 83.1387 58.116C83.2187 58.452 83.3347 58.704 83.4867 58.872C83.6387 59.04 83.8267 59.152 84.0507 59.208C84.2747 59.264 84.5387 59.292 84.8427 59.292ZM89.2245 60V53.592H89.9445L90.1725 54.708C90.4605 54.364 90.7805 54.08 91.1325 53.856C91.4925 53.632 91.9045 53.52 92.3685 53.52C92.4805 53.52 92.5845 53.524 92.6805 53.532C92.7845 53.54 92.8805 53.556 92.9685 53.58V54.552C92.8645 54.536 92.7525 54.524 92.6325 54.516C92.5125 54.5 92.3925 54.492 92.2725 54.492C91.9765 54.492 91.7125 54.528 91.4805 54.6C91.2485 54.672 91.0285 54.78 90.8205 54.924C90.6125 55.068 90.3965 55.244 90.1725 55.452V60H89.2245ZM96.6178 60.072C95.9458 60.072 95.4138 59.972 95.0218 59.772C94.6378 59.572 94.3618 59.232 94.1938 58.752C94.0258 58.272 93.9418 57.616 93.9418 56.784C93.9418 55.936 94.0258 55.276 94.1938 54.804C94.3698 54.324 94.6538 53.988 95.0458 53.796C95.4378 53.604 95.9658 53.508 96.6298 53.508C97.1978 53.508 97.6578 53.572 98.0098 53.7C98.3698 53.828 98.6338 54.048 98.8018 54.36C98.9778 54.664 99.0658 55.088 99.0658 55.632C99.0658 56.008 98.9898 56.312 98.8378 56.544C98.6938 56.768 98.4818 56.932 98.2018 57.036C97.9298 57.132 97.6058 57.18 97.2298 57.18H94.8898C94.8978 57.7 94.9538 58.12 95.0578 58.44C95.1618 58.752 95.3498 58.98 95.6218 59.124C95.9018 59.26 96.3098 59.328 96.8458 59.328H98.9098V59.904C98.5418 59.952 98.1818 59.992 97.8298 60.024C97.4778 60.056 97.0738 60.072 96.6178 60.072ZM94.8778 56.556H97.1578C97.5178 56.556 97.7818 56.492 97.9498 56.364C98.1258 56.228 98.2138 55.988 98.2138 55.644C98.2138 55.276 98.1578 54.992 98.0458 54.792C97.9418 54.584 97.7738 54.44 97.5418 54.36C97.3178 54.272 97.0138 54.228 96.6298 54.228C96.1818 54.228 95.8298 54.296 95.5738 54.432C95.3178 54.56 95.1378 54.792 95.0338 55.128C94.9298 55.464 94.8778 55.94 94.8778 56.556ZM100.662 60V53.592H101.406L101.61 54.3C101.93 54.076 102.286 53.884 102.678 53.724C103.078 53.564 103.522 53.484 104.01 53.484C104.41 53.484 104.75 53.576 105.03 53.76C105.318 53.936 105.534 54.16 105.678 54.432C105.878 54.288 106.118 54.144 106.398 54C106.686 53.856 106.99 53.736 107.31 53.64C107.638 53.536 107.954 53.484 108.258 53.484C108.722 53.484 109.102 53.584 109.398 53.784C109.694 53.976 109.91 54.24 110.046 54.576C110.19 54.904 110.262 55.272 110.262 55.68V60H109.314V55.752C109.314 55.48 109.258 55.24 109.146 55.032C109.042 54.816 108.89 54.648 108.69 54.528C108.49 54.408 108.246 54.348 107.958 54.348C107.598 54.348 107.23 54.416 106.854 54.552C106.478 54.688 106.13 54.852 105.81 55.044C105.85 55.164 105.878 55.284 105.894 55.404C105.918 55.516 105.93 55.636 105.93 55.764V60H104.982V55.752C104.982 55.48 104.926 55.24 104.814 55.032C104.71 54.816 104.558 54.648 104.358 54.528C104.166 54.408 103.926 54.348 103.638 54.348C103.374 54.348 103.126 54.376 102.894 54.432C102.67 54.48 102.454 54.552 102.246 54.648C102.046 54.736 101.834 54.844 101.61 54.972V60H100.662ZM115.419 52.452C115.291 52.452 115.227 52.388 115.227 52.26V51.324C115.227 51.196 115.291 51.132 115.419 51.132H116.091C116.155 51.132 116.199 51.152 116.223 51.192C116.255 51.224 116.271 51.268 116.271 51.324V52.26C116.271 52.388 116.211 52.452 116.091 52.452H115.419ZM115.275 60V53.592H116.223V60H115.275ZM118.053 62.844V53.592H118.821L119.001 54.252C119.145 54.148 119.329 54.04 119.553 53.928C119.785 53.808 120.033 53.708 120.297 53.628C120.569 53.548 120.837 53.508 121.101 53.508C121.517 53.508 121.869 53.6 122.157 53.784C122.453 53.96 122.693 54.2 122.877 54.504C123.061 54.808 123.193 55.156 123.273 55.548C123.353 55.94 123.393 56.352 123.393 56.784C123.393 57.504 123.309 58.112 123.141 58.608C122.981 59.096 122.733 59.464 122.397 59.712C122.061 59.96 121.629 60.084 121.101 60.084C120.741 60.084 120.377 60.028 120.009 59.916C119.649 59.796 119.313 59.648 119.001 59.472V62.844H118.053ZM120.837 59.28C121.141 59.28 121.413 59.204 121.653 59.052C121.893 58.9 122.085 58.644 122.229 58.284C122.373 57.916 122.445 57.416 122.445 56.784C122.445 56.184 122.369 55.704 122.217 55.344C122.065 54.976 121.869 54.712 121.629 54.552C121.389 54.384 121.125 54.3 120.837 54.3C120.469 54.3 120.129 54.36 119.817 54.48C119.513 54.592 119.241 54.712 119.001 54.84V58.764C119.281 58.916 119.577 59.04 119.889 59.136C120.209 59.232 120.525 59.28 120.837 59.28ZM127.198 60.072C127.038 60.072 126.842 60.068 126.61 60.06C126.378 60.052 126.134 60.04 125.878 60.024C125.63 60.008 125.402 59.992 125.194 59.976C124.994 59.952 124.838 59.928 124.726 59.904V59.328H127.354C127.618 59.328 127.846 59.308 128.038 59.268C128.23 59.228 128.378 59.14 128.482 59.004C128.594 58.868 128.65 58.664 128.65 58.392V58.104C128.65 57.824 128.558 57.608 128.374 57.456C128.19 57.296 127.894 57.216 127.486 57.216H126.586C126.21 57.216 125.874 57.168 125.578 57.072C125.29 56.976 125.066 56.812 124.906 56.58C124.746 56.348 124.666 56.028 124.666 55.62V55.284C124.666 54.884 124.742 54.556 124.894 54.3C125.054 54.044 125.298 53.852 125.626 53.724C125.962 53.596 126.394 53.532 126.922 53.532C127.146 53.532 127.402 53.54 127.69 53.556C127.986 53.572 128.274 53.596 128.554 53.628C128.834 53.652 129.062 53.68 129.238 53.712V54.288H126.766C126.358 54.288 126.042 54.356 125.818 54.492C125.602 54.628 125.494 54.892 125.494 55.284V55.548C125.494 55.796 125.546 55.984 125.65 56.112C125.754 56.232 125.898 56.312 126.082 56.352C126.274 56.392 126.494 56.412 126.742 56.412H127.654C128.238 56.412 128.69 56.548 129.01 56.82C129.33 57.092 129.49 57.484 129.49 57.996V58.44C129.49 58.872 129.39 59.208 129.19 59.448C128.998 59.68 128.73 59.844 128.386 59.94C128.05 60.028 127.654 60.072 127.198 60.072ZM132.898 60.072C132.282 60.072 131.806 59.912 131.47 59.592C131.142 59.272 130.978 58.776 130.978 58.104V53.592H131.926V57.864C131.926 58.4 132.046 58.764 132.286 58.956C132.534 59.14 132.878 59.232 133.318 59.232C133.694 59.232 134.038 59.18 134.35 59.076C134.662 58.964 134.982 58.812 135.31 58.62V53.592H136.258V60H135.514L135.31 59.292C134.982 59.5 134.61 59.684 134.194 59.844C133.786 59.996 133.354 60.072 132.898 60.072ZM138.045 60V53.592H138.789L138.993 54.3C139.313 54.076 139.669 53.884 140.061 53.724C140.461 53.564 140.905 53.484 141.393 53.484C141.793 53.484 142.133 53.576 142.413 53.76C142.701 53.936 142.917 54.16 143.061 54.432C143.261 54.288 143.501 54.144 143.781 54C144.069 53.856 144.373 53.736 144.693 53.64C145.021 53.536 145.337 53.484 145.641 53.484C146.105 53.484 146.485 53.584 146.781 53.784C147.077 53.976 147.293 54.24 147.429 54.576C147.573 54.904 147.645 55.272 147.645 55.68V60H146.697V55.752C146.697 55.48 146.641 55.24 146.529 55.032C146.425 54.816 146.273 54.648 146.073 54.528C145.873 54.408 145.629 54.348 145.341 54.348C144.981 54.348 144.613 54.416 144.237 54.552C143.861 54.688 143.513 54.852 143.193 55.044C143.233 55.164 143.261 55.284 143.277 55.404C143.301 55.516 143.313 55.636 143.313 55.764V60H142.365V55.752C142.365 55.48 142.309 55.24 142.197 55.032C142.093 54.816 141.941 54.648 141.741 54.528C141.549 54.408 141.309 54.348 141.021 54.348C140.757 54.348 140.509 54.376 140.277 54.432C140.053 54.48 139.837 54.552 139.629 54.648C139.429 54.736 139.217 54.844 138.993 54.972V60H138.045ZM154.734 60.072C154.206 60.072 153.77 59.96 153.426 59.736C153.09 59.504 152.838 59.152 152.67 58.68C152.51 58.2 152.43 57.588 152.43 56.844C152.43 56.052 152.51 55.412 152.67 54.924C152.83 54.428 153.086 54.068 153.438 53.844C153.79 53.62 154.262 53.508 154.854 53.508C155.214 53.508 155.566 53.548 155.91 53.628C156.254 53.708 156.558 53.796 156.822 53.892V50.844H157.77V60H157.002L156.822 59.352C156.702 59.456 156.522 59.564 156.282 59.676C156.05 59.788 155.794 59.884 155.514 59.964C155.242 60.036 154.982 60.072 154.734 60.072ZM155.01 59.292C155.378 59.292 155.71 59.236 156.006 59.124C156.31 59.004 156.582 58.88 156.822 58.752V54.564C156.534 54.476 156.258 54.404 155.994 54.348C155.73 54.284 155.434 54.252 155.106 54.252C154.698 54.252 154.366 54.328 154.11 54.48C153.854 54.632 153.666 54.896 153.546 55.272C153.434 55.64 153.378 56.152 153.378 56.808C153.378 57.4 153.43 57.88 153.534 58.248C153.646 58.616 153.822 58.884 154.062 59.052C154.302 59.212 154.618 59.292 155.01 59.292ZM162.104 60.072C161.64 60.072 161.232 60.024 160.88 59.928C160.536 59.832 160.248 59.664 160.016 59.424C159.784 59.184 159.612 58.852 159.5 58.428C159.388 57.996 159.332 57.448 159.332 56.784C159.332 56.112 159.388 55.564 159.5 55.14C159.612 54.708 159.784 54.376 160.016 54.144C160.248 53.904 160.536 53.74 160.88 53.652C161.232 53.556 161.64 53.508 162.104 53.508C162.568 53.508 162.972 53.556 163.316 53.652C163.668 53.748 163.96 53.916 164.192 54.156C164.424 54.388 164.596 54.72 164.708 55.152C164.828 55.576 164.888 56.12 164.888 56.784C164.888 57.456 164.828 58.008 164.708 58.44C164.596 58.864 164.424 59.196 164.192 59.436C163.968 59.668 163.68 59.832 163.328 59.928C162.976 60.024 162.568 60.072 162.104 60.072ZM162.104 59.292C162.4 59.292 162.66 59.264 162.884 59.208C163.116 59.152 163.308 59.04 163.46 58.872C163.612 58.704 163.728 58.452 163.808 58.116C163.888 57.78 163.928 57.336 163.928 56.784C163.928 56.224 163.888 55.78 163.808 55.452C163.728 55.124 163.612 54.876 163.46 54.708C163.308 54.54 163.116 54.428 162.884 54.372C162.66 54.316 162.4 54.288 162.104 54.288C161.8 54.288 161.536 54.316 161.312 54.372C161.088 54.428 160.9 54.54 160.748 54.708C160.596 54.876 160.48 55.124 160.4 55.452C160.32 55.78 160.28 56.224 160.28 56.784C160.28 57.336 160.32 57.78 160.4 58.116C160.48 58.452 160.596 58.704 160.748 58.872C160.9 59.04 161.088 59.152 161.312 59.208C161.536 59.264 161.8 59.292 162.104 59.292ZM168.166 60.012C167.798 60.012 167.49 59.948 167.242 59.82C166.994 59.684 166.806 59.468 166.678 59.172C166.55 58.868 166.486 58.46 166.486 57.948V50.844H167.434V57.828C167.434 58.212 167.47 58.504 167.542 58.704C167.614 58.896 167.718 59.032 167.854 59.112C167.99 59.184 168.15 59.232 168.334 59.256L168.982 59.328V60.012H168.166ZM172.558 60.072C172.094 60.072 171.686 60.024 171.334 59.928C170.99 59.832 170.702 59.664 170.47 59.424C170.238 59.184 170.066 58.852 169.954 58.428C169.842 57.996 169.786 57.448 169.786 56.784C169.786 56.112 169.842 55.564 169.954 55.14C170.066 54.708 170.238 54.376 170.47 54.144C170.702 53.904 170.99 53.74 171.334 53.652C171.686 53.556 172.094 53.508 172.558 53.508C173.022 53.508 173.426 53.556 173.77 53.652C174.122 53.748 174.414 53.916 174.646 54.156C174.878 54.388 175.05 54.72 175.162 55.152C175.282 55.576 175.342 56.12 175.342 56.784C175.342 57.456 175.282 58.008 175.162 58.44C175.05 58.864 174.878 59.196 174.646 59.436C174.422 59.668 174.134 59.832 173.782 59.928C173.43 60.024 173.022 60.072 172.558 60.072ZM172.558 59.292C172.854 59.292 173.114 59.264 173.338 59.208C173.57 59.152 173.762 59.04 173.914 58.872C174.066 58.704 174.182 58.452 174.262 58.116C174.342 57.78 174.382 57.336 174.382 56.784C174.382 56.224 174.342 55.78 174.262 55.452C174.182 55.124 174.066 54.876 173.914 54.708C173.762 54.54 173.57 54.428 173.338 54.372C173.114 54.316 172.854 54.288 172.558 54.288C172.254 54.288 171.99 54.316 171.766 54.372C171.542 54.428 171.354 54.54 171.202 54.708C171.05 54.876 170.934 55.124 170.854 55.452C170.774 55.78 170.734 56.224 170.734 56.784C170.734 57.336 170.774 57.78 170.854 58.116C170.934 58.452 171.05 58.704 171.202 58.872C171.354 59.04 171.542 59.152 171.766 59.208C171.99 59.264 172.254 59.292 172.558 59.292ZM176.939 60V53.592H177.659L177.887 54.708C178.175 54.364 178.495 54.08 178.847 53.856C179.207 53.632 179.619 53.52 180.083 53.52C180.195 53.52 180.299 53.524 180.395 53.532C180.499 53.54 180.595 53.556 180.683 53.58V54.552C180.579 54.536 180.467 54.524 180.347 54.516C180.227 54.5 180.107 54.492 179.987 54.492C179.691 54.492 179.427 54.528 179.195 54.6C178.963 54.672 178.743 54.78 178.535 54.924C178.327 55.068 178.111 55.244 177.887 55.452V60H176.939ZM187.327 60.072C187.167 60.072 186.971 60.068 186.739 60.06C186.507 60.052 186.263 60.04 186.007 60.024C185.759 60.008 185.531 59.992 185.323 59.976C185.123 59.952 184.967 59.928 184.855 59.904V59.328H187.483C187.747 59.328 187.975 59.308 188.167 59.268C188.359 59.228 188.507 59.14 188.611 59.004C188.723 58.868 188.779 58.664 188.779 58.392V58.104C188.779 57.824 188.687 57.608 188.503 57.456C188.319 57.296 188.023 57.216 187.615 57.216H186.715C186.339 57.216 186.003 57.168 185.707 57.072C185.419 56.976 185.195 56.812 185.035 56.58C184.875 56.348 184.795 56.028 184.795 55.62V55.284C184.795 54.884 184.871 54.556 185.023 54.3C185.183 54.044 185.427 53.852 185.755 53.724C186.091 53.596 186.523 53.532 187.051 53.532C187.275 53.532 187.531 53.54 187.819 53.556C188.115 53.572 188.403 53.596 188.683 53.628C188.963 53.652 189.191 53.68 189.367 53.712V54.288H186.895C186.487 54.288 186.171 54.356 185.947 54.492C185.731 54.628 185.623 54.892 185.623 55.284V55.548C185.623 55.796 185.675 55.984 185.779 56.112C185.883 56.232 186.027 56.312 186.211 56.352C186.403 56.392 186.623 56.412 186.871 56.412H187.783C188.367 56.412 188.819 56.548 189.139 56.82C189.459 57.092 189.619 57.484 189.619 57.996V58.44C189.619 58.872 189.519 59.208 189.319 59.448C189.127 59.68 188.859 59.844 188.515 59.94C188.179 60.028 187.783 60.072 187.327 60.072ZM191.263 52.452C191.135 52.452 191.071 52.388 191.071 52.26V51.324C191.071 51.196 191.135 51.132 191.263 51.132H191.935C191.999 51.132 192.043 51.152 192.067 51.192C192.099 51.224 192.115 51.268 192.115 51.324V52.26C192.115 52.388 192.055 52.452 191.935 52.452H191.263ZM191.119 60V53.592H192.067V60H191.119ZM196.02 60C195.604 60 195.26 59.932 194.988 59.796C194.716 59.66 194.516 59.44 194.388 59.136C194.26 58.832 194.2 58.428 194.208 57.924L194.244 54.372H193.224V53.76L194.256 53.592L194.412 51.804H195.144V53.592H196.992V54.372H195.144V57.924C195.144 58.204 195.172 58.428 195.228 58.596C195.292 58.764 195.372 58.892 195.468 58.98C195.572 59.068 195.68 59.132 195.792 59.172C195.904 59.204 196.012 59.224 196.116 59.232L196.896 59.304V60H196.02ZM202.785 60.072C202.313 60.072 201.925 59.932 201.621 59.652C201.317 59.372 201.165 58.976 201.165 58.464V58.008C201.165 57.504 201.329 57.096 201.657 56.784C201.993 56.472 202.497 56.316 203.169 56.316H205.341V55.524C205.341 55.26 205.293 55.036 205.197 54.852C205.109 54.66 204.945 54.512 204.705 54.408C204.473 54.304 204.133 54.252 203.685 54.252H201.693V53.688C201.973 53.64 202.297 53.596 202.665 53.556C203.041 53.516 203.481 53.496 203.985 53.496C204.505 53.488 204.937 53.552 205.281 53.688C205.625 53.824 205.877 54.04 206.037 54.336C206.205 54.624 206.289 55.004 206.289 55.476V60H205.557L205.377 59.268C205.345 59.3 205.245 59.356 205.077 59.436C204.917 59.516 204.709 59.608 204.453 59.712C204.205 59.808 203.933 59.892 203.637 59.964C203.349 60.036 203.065 60.072 202.785 60.072ZM203.181 59.364C203.325 59.372 203.489 59.356 203.673 59.316C203.857 59.276 204.045 59.232 204.237 59.184C204.429 59.128 204.605 59.072 204.765 59.016C204.933 58.96 205.069 58.912 205.173 58.872C205.277 58.832 205.333 58.812 205.341 58.812V56.796L203.385 56.88C202.929 56.896 202.601 57.008 202.401 57.216C202.209 57.424 202.113 57.692 202.113 58.02V58.308C202.113 58.564 202.165 58.772 202.269 58.932C202.381 59.084 202.517 59.192 202.677 59.256C202.845 59.32 203.013 59.356 203.181 59.364ZM208.076 60V53.592H208.82L209.024 54.3C209.344 54.076 209.7 53.884 210.092 53.724C210.492 53.564 210.936 53.484 211.424 53.484C211.824 53.484 212.164 53.576 212.444 53.76C212.732 53.936 212.948 54.16 213.092 54.432C213.292 54.288 213.532 54.144 213.812 54C214.1 53.856 214.404 53.736 214.724 53.64C215.052 53.536 215.368 53.484 215.672 53.484C216.136 53.484 216.516 53.584 216.812 53.784C217.108 53.976 217.324 54.24 217.46 54.576C217.604 54.904 217.676 55.272 217.676 55.68V60H216.728V55.752C216.728 55.48 216.672 55.24 216.56 55.032C216.456 54.816 216.304 54.648 216.104 54.528C215.904 54.408 215.66 54.348 215.372 54.348C215.012 54.348 214.644 54.416 214.268 54.552C213.892 54.688 213.544 54.852 213.224 55.044C213.264 55.164 213.292 55.284 213.308 55.404C213.332 55.516 213.344 55.636 213.344 55.764V60H212.396V55.752C212.396 55.48 212.34 55.24 212.228 55.032C212.124 54.816 211.972 54.648 211.772 54.528C211.58 54.408 211.34 54.348 211.052 54.348C210.788 54.348 210.54 54.376 210.308 54.432C210.084 54.48 209.868 54.552 209.66 54.648C209.46 54.736 209.248 54.844 209.024 54.972V60H208.076ZM221.903 60.072C221.231 60.072 220.699 59.972 220.307 59.772C219.923 59.572 219.647 59.232 219.479 58.752C219.311 58.272 219.227 57.616 219.227 56.784C219.227 55.936 219.311 55.276 219.479 54.804C219.655 54.324 219.939 53.988 220.331 53.796C220.723 53.604 221.251 53.508 221.915 53.508C222.483 53.508 222.943 53.572 223.295 53.7C223.655 53.828 223.919 54.048 224.087 54.36C224.263 54.664 224.351 55.088 224.351 55.632C224.351 56.008 224.275 56.312 224.123 56.544C223.979 56.768 223.767 56.932 223.487 57.036C223.215 57.132 222.891 57.18 222.515 57.18H220.175C220.183 57.7 220.239 58.12 220.343 58.44C220.447 58.752 220.635 58.98 220.907 59.124C221.187 59.26 221.595 59.328 222.131 59.328H224.195V59.904C223.827 59.952 223.467 59.992 223.115 60.024C222.763 60.056 222.359 60.072 221.903 60.072ZM220.163 56.556H222.443C222.803 56.556 223.067 56.492 223.235 56.364C223.411 56.228 223.499 55.988 223.499 55.644C223.499 55.276 223.443 54.992 223.331 54.792C223.227 54.584 223.059 54.44 222.827 54.36C222.603 54.272 222.299 54.228 221.915 54.228C221.467 54.228 221.115 54.296 220.859 54.432C220.603 54.56 220.423 54.792 220.319 55.128C220.215 55.464 220.163 55.94 220.163 56.556ZM228.071 60C227.655 60 227.311 59.932 227.039 59.796C226.767 59.66 226.567 59.44 226.439 59.136C226.311 58.832 226.251 58.428 226.259 57.924L226.295 54.372H225.275V53.76L226.307 53.592L226.463 51.804H227.195V53.592H229.043V54.372H227.195V57.924C227.195 58.204 227.223 58.428 227.279 58.596C227.343 58.764 227.423 58.892 227.519 58.98C227.623 59.068 227.731 59.132 227.843 59.172C227.955 59.204 228.063 59.224 228.167 59.232L228.947 59.304V60H228.071ZM235.916 60.072C235.556 60.072 235.22 60.024 234.908 59.928C234.596 59.832 234.324 59.664 234.092 59.424C233.86 59.184 233.68 58.852 233.552 58.428C233.424 58.004 233.36 57.464 233.36 56.808C233.36 56.144 233.42 55.6 233.54 55.176C233.66 54.744 233.832 54.408 234.056 54.168C234.28 53.928 234.552 53.76 234.872 53.664C235.192 53.568 235.548 53.52 235.94 53.52C236.26 53.52 236.608 53.536 236.984 53.568C237.36 53.592 237.72 53.632 238.064 53.688V54.252H236.192C235.784 54.252 235.44 54.32 235.16 54.456C234.88 54.592 234.668 54.848 234.524 55.224C234.38 55.592 234.308 56.128 234.308 56.832C234.308 57.512 234.384 58.032 234.536 58.392C234.688 58.752 234.904 59 235.184 59.136C235.464 59.264 235.804 59.328 236.204 59.328H238.16V59.88C237.976 59.912 237.76 59.944 237.512 59.976C237.272 60.008 237.016 60.032 236.744 60.048C236.472 60.064 236.196 60.072 235.916 60.072ZM242.015 60.072C241.551 60.072 241.143 60.024 240.791 59.928C240.447 59.832 240.159 59.664 239.927 59.424C239.695 59.184 239.523 58.852 239.411 58.428C239.299 57.996 239.243 57.448 239.243 56.784C239.243 56.112 239.299 55.564 239.411 55.14C239.523 54.708 239.695 54.376 239.927 54.144C240.159 53.904 240.447 53.74 240.791 53.652C241.143 53.556 241.551 53.508 242.015 53.508C242.479 53.508 242.883 53.556 243.227 53.652C243.579 53.748 243.871 53.916 244.103 54.156C244.335 54.388 244.507 54.72 244.619 55.152C244.739 55.576 244.799 56.12 244.799 56.784C244.799 57.456 244.739 58.008 244.619 58.44C244.507 58.864 244.335 59.196 244.103 59.436C243.879 59.668 243.591 59.832 243.239 59.928C242.887 60.024 242.479 60.072 242.015 60.072ZM242.015 59.292C242.311 59.292 242.571 59.264 242.795 59.208C243.027 59.152 243.219 59.04 243.371 58.872C243.523 58.704 243.639 58.452 243.719 58.116C243.799 57.78 243.839 57.336 243.839 56.784C243.839 56.224 243.799 55.78 243.719 55.452C243.639 55.124 243.523 54.876 243.371 54.708C243.219 54.54 243.027 54.428 242.795 54.372C242.571 54.316 242.311 54.288 242.015 54.288C241.711 54.288 241.447 54.316 241.223 54.372C240.999 54.428 240.811 54.54 240.659 54.708C240.507 54.876 240.391 55.124 240.311 55.452C240.231 55.78 240.191 56.224 240.191 56.784C240.191 57.336 240.231 57.78 240.311 58.116C240.391 58.452 240.507 58.704 240.659 58.872C240.811 59.04 240.999 59.152 241.223 59.208C241.447 59.264 241.711 59.292 242.015 59.292ZM246.396 60V53.592H247.14L247.344 54.3C247.648 54.084 248.004 53.896 248.412 53.736C248.82 53.568 249.244 53.484 249.684 53.484C250.156 53.484 250.536 53.584 250.824 53.784C251.112 53.984 251.324 54.248 251.46 54.576C251.596 54.904 251.664 55.26 251.664 55.644V60H250.716V55.752C250.716 55.48 250.66 55.24 250.548 55.032C250.444 54.816 250.292 54.648 250.092 54.528C249.9 54.408 249.66 54.348 249.372 54.348C249.108 54.348 248.86 54.376 248.628 54.432C248.404 54.48 248.188 54.552 247.98 54.648C247.78 54.736 247.568 54.844 247.344 54.972V60H246.396ZM255.659 60.072C255.499 60.072 255.303 60.068 255.071 60.06C254.839 60.052 254.595 60.04 254.339 60.024C254.091 60.008 253.863 59.992 253.655 59.976C253.455 59.952 253.299 59.928 253.187 59.904V59.328H255.815C256.079 59.328 256.307 59.308 256.499 59.268C256.691 59.228 256.839 59.14 256.943 59.004C257.055 58.868 257.111 58.664 257.111 58.392V58.104C257.111 57.824 257.019 57.608 256.835 57.456C256.651 57.296 256.355 57.216 255.947 57.216H255.047C254.671 57.216 254.335 57.168 254.039 57.072C253.751 56.976 253.527 56.812 253.367 56.58C253.207 56.348 253.127 56.028 253.127 55.62V55.284C253.127 54.884 253.203 54.556 253.355 54.3C253.515 54.044 253.759 53.852 254.087 53.724C254.423 53.596 254.855 53.532 255.383 53.532C255.607 53.532 255.863 53.54 256.151 53.556C256.447 53.572 256.735 53.596 257.015 53.628C257.295 53.652 257.523 53.68 257.699 53.712V54.288H255.227C254.819 54.288 254.503 54.356 254.279 54.492C254.063 54.628 253.955 54.892 253.955 55.284V55.548C253.955 55.796 254.007 55.984 254.111 56.112C254.215 56.232 254.359 56.312 254.543 56.352C254.735 56.392 254.955 56.412 255.203 56.412H256.115C256.699 56.412 257.151 56.548 257.471 56.82C257.791 57.092 257.951 57.484 257.951 57.996V58.44C257.951 58.872 257.851 59.208 257.651 59.448C257.459 59.68 257.191 59.844 256.847 59.94C256.511 60.028 256.115 60.072 255.659 60.072ZM261.899 60.072C261.227 60.072 260.695 59.972 260.303 59.772C259.919 59.572 259.643 59.232 259.475 58.752C259.307 58.272 259.223 57.616 259.223 56.784C259.223 55.936 259.307 55.276 259.475 54.804C259.651 54.324 259.935 53.988 260.327 53.796C260.719 53.604 261.247 53.508 261.911 53.508C262.479 53.508 262.939 53.572 263.291 53.7C263.651 53.828 263.915 54.048 264.083 54.36C264.259 54.664 264.347 55.088 264.347 55.632C264.347 56.008 264.271 56.312 264.119 56.544C263.975 56.768 263.763 56.932 263.483 57.036C263.211 57.132 262.887 57.18 262.511 57.18H260.171C260.179 57.7 260.235 58.12 260.339 58.44C260.443 58.752 260.631 58.98 260.903 59.124C261.183 59.26 261.591 59.328 262.127 59.328H264.191V59.904C263.823 59.952 263.463 59.992 263.111 60.024C262.759 60.056 262.355 60.072 261.899 60.072ZM260.159 56.556H262.439C262.799 56.556 263.063 56.492 263.231 56.364C263.407 56.228 263.495 55.988 263.495 55.644C263.495 55.276 263.439 54.992 263.327 54.792C263.223 54.584 263.055 54.44 262.823 54.36C262.599 54.272 262.295 54.228 261.911 54.228C261.463 54.228 261.111 54.296 260.855 54.432C260.599 54.56 260.419 54.792 260.315 55.128C260.211 55.464 260.159 55.94 260.159 56.556ZM268.271 60.072C267.911 60.072 267.575 60.024 267.263 59.928C266.951 59.832 266.679 59.664 266.447 59.424C266.215 59.184 266.035 58.852 265.907 58.428C265.779 58.004 265.715 57.464 265.715 56.808C265.715 56.144 265.775 55.6 265.895 55.176C266.015 54.744 266.187 54.408 266.411 54.168C266.635 53.928 266.907 53.76 267.227 53.664C267.547 53.568 267.903 53.52 268.295 53.52C268.615 53.52 268.963 53.536 269.339 53.568C269.715 53.592 270.075 53.632 270.419 53.688V54.252H268.547C268.139 54.252 267.795 54.32 267.515 54.456C267.235 54.592 267.023 54.848 266.879 55.224C266.735 55.592 266.663 56.128 266.663 56.832C266.663 57.512 266.739 58.032 266.891 58.392C267.043 58.752 267.259 59 267.539 59.136C267.819 59.264 268.159 59.328 268.559 59.328H270.515V59.88C270.331 59.912 270.115 59.944 269.867 59.976C269.627 60.008 269.371 60.032 269.099 60.048C268.827 60.064 268.551 60.072 268.271 60.072ZM273.95 60C273.534 60 273.19 59.932 272.918 59.796C272.646 59.66 272.446 59.44 272.318 59.136C272.19 58.832 272.13 58.428 272.138 57.924L272.174 54.372H271.154V53.76L272.186 53.592L272.342 51.804H273.074V53.592H274.922V54.372H273.074V57.924C273.074 58.204 273.102 58.428 273.158 58.596C273.222 58.764 273.302 58.892 273.398 58.98C273.502 59.068 273.61 59.132 273.722 59.172C273.834 59.204 273.942 59.224 274.046 59.232L274.826 59.304V60H273.95ZM278.68 60.072C278.008 60.072 277.476 59.972 277.084 59.772C276.7 59.572 276.424 59.232 276.256 58.752C276.088 58.272 276.004 57.616 276.004 56.784C276.004 55.936 276.088 55.276 276.256 54.804C276.432 54.324 276.716 53.988 277.108 53.796C277.5 53.604 278.028 53.508 278.692 53.508C279.26 53.508 279.72 53.572 280.072 53.7C280.432 53.828 280.696 54.048 280.864 54.36C281.04 54.664 281.128 55.088 281.128 55.632C281.128 56.008 281.052 56.312 280.9 56.544C280.756 56.768 280.544 56.932 280.264 57.036C279.992 57.132 279.668 57.18 279.292 57.18H276.952C276.96 57.7 277.016 58.12 277.12 58.44C277.224 58.752 277.412 58.98 277.684 59.124C277.964 59.26 278.372 59.328 278.908 59.328H280.972V59.904C280.604 59.952 280.244 59.992 279.892 60.024C279.54 60.056 279.136 60.072 278.68 60.072ZM276.94 56.556H279.22C279.58 56.556 279.844 56.492 280.012 56.364C280.188 56.228 280.276 55.988 280.276 55.644C280.276 55.276 280.22 54.992 280.108 54.792C280.004 54.584 279.836 54.44 279.604 54.36C279.38 54.272 279.076 54.228 278.692 54.228C278.244 54.228 277.892 54.296 277.636 54.432C277.38 54.56 277.2 54.792 277.096 55.128C276.992 55.464 276.94 55.94 276.94 56.556ZM284.849 60C284.433 60 284.089 59.932 283.817 59.796C283.545 59.66 283.345 59.44 283.217 59.136C283.089 58.832 283.029 58.428 283.037 57.924L283.073 54.372H282.053V53.76L283.085 53.592L283.241 51.804H283.973V53.592H285.821V54.372H283.973V57.924C283.973 58.204 284.001 58.428 284.057 58.596C284.121 58.764 284.201 58.892 284.297 58.98C284.401 59.068 284.509 59.132 284.621 59.172C284.733 59.204 284.841 59.224 284.945 59.232L285.725 59.304V60H284.849ZM289.039 60.072C288.423 60.072 287.947 59.912 287.611 59.592C287.283 59.272 287.119 58.776 287.119 58.104V53.592H288.067V57.864C288.067 58.4 288.187 58.764 288.427 58.956C288.675 59.14 289.019 59.232 289.459 59.232C289.835 59.232 290.179 59.18 290.491 59.076C290.803 58.964 291.123 58.812 291.451 58.62V53.592H292.399V60H291.655L291.451 59.292C291.123 59.5 290.751 59.684 290.335 59.844C289.927 59.996 289.495 60.072 289.039 60.072ZM294.185 60V53.592H294.905L295.133 54.708C295.421 54.364 295.741 54.08 296.093 53.856C296.453 53.632 296.865 53.52 297.329 53.52C297.441 53.52 297.545 53.524 297.641 53.532C297.745 53.54 297.841 53.556 297.929 53.58V54.552C297.825 54.536 297.713 54.524 297.593 54.516C297.473 54.5 297.353 54.492 297.233 54.492C296.937 54.492 296.673 54.528 296.441 54.6C296.209 54.672 295.989 54.78 295.781 54.924C295.573 55.068 295.357 55.244 295.133 55.452V60H294.185ZM298.616 60.012C298.488 60.012 298.424 59.948 298.424 59.82V58.86C298.424 58.732 298.488 58.668 298.616 58.668H299.144C299.272 58.668 299.336 58.732 299.336 58.86V59.82C299.336 59.884 299.316 59.932 299.276 59.964C299.244 59.996 299.2 60.012 299.144 60.012H298.616ZM75.924 78V70.944C75.924 70.6 75.972 70.316 76.068 70.092C76.172 69.86 76.308 69.68 76.476 69.552C76.644 69.416 76.832 69.32 77.04 69.264C77.248 69.2 77.456 69.168 77.664 69.168C78.016 69.176 78.396 69.184 78.804 69.192C79.22 69.2 79.644 69.212 80.076 69.228C80.516 69.236 80.944 69.256 81.36 69.288V70.044H77.892C77.572 70.044 77.324 70.132 77.148 70.308C76.972 70.484 76.884 70.744 76.884 71.088V73.38L80.832 73.44V74.172L76.884 74.232V78H75.924ZM83.6053 78.072C83.1333 78.072 82.7453 77.932 82.4413 77.652C82.1373 77.372 81.9853 76.976 81.9853 76.464V76.008C81.9853 75.504 82.1493 75.096 82.4773 74.784C82.8133 74.472 83.3173 74.316 83.9893 74.316H86.1613V73.524C86.1613 73.26 86.1133 73.036 86.0173 72.852C85.9293 72.66 85.7653 72.512 85.5253 72.408C85.2933 72.304 84.9533 72.252 84.5053 72.252H82.5133V71.688C82.7933 71.64 83.1173 71.596 83.4853 71.556C83.8613 71.516 84.3013 71.496 84.8053 71.496C85.3253 71.488 85.7573 71.552 86.1013 71.688C86.4453 71.824 86.6973 72.04 86.8573 72.336C87.0253 72.624 87.1093 73.004 87.1093 73.476V78H86.3773L86.1973 77.268C86.1653 77.3 86.0653 77.356 85.8973 77.436C85.7373 77.516 85.5293 77.608 85.2733 77.712C85.0253 77.808 84.7533 77.892 84.4573 77.964C84.1693 78.036 83.8853 78.072 83.6053 78.072ZM84.0013 77.364C84.1453 77.372 84.3093 77.356 84.4933 77.316C84.6773 77.276 84.8653 77.232 85.0573 77.184C85.2493 77.128 85.4253 77.072 85.5853 77.016C85.7533 76.96 85.8893 76.912 85.9933 76.872C86.0973 76.832 86.1533 76.812 86.1613 76.812V74.796L84.2053 74.88C83.7493 74.896 83.4213 75.008 83.2213 75.216C83.0293 75.424 82.9333 75.692 82.9333 76.02V76.308C82.9333 76.564 82.9853 76.772 83.0893 76.932C83.2013 77.084 83.3373 77.192 83.4973 77.256C83.6653 77.32 83.8333 77.356 84.0013 77.364ZM88.8964 78V71.592H89.6404L89.8444 72.3C90.1644 72.076 90.5204 71.884 90.9124 71.724C91.3124 71.564 91.7564 71.484 92.2444 71.484C92.6444 71.484 92.9844 71.576 93.2644 71.76C93.5524 71.936 93.7684 72.16 93.9124 72.432C94.1124 72.288 94.3524 72.144 94.6324 72C94.9204 71.856 95.2244 71.736 95.5444 71.64C95.8724 71.536 96.1884 71.484 96.4924 71.484C96.9564 71.484 97.3364 71.584 97.6324 71.784C97.9284 71.976 98.1444 72.24 98.2804 72.576C98.4244 72.904 98.4964 73.272 98.4964 73.68V78H97.5484V73.752C97.5484 73.48 97.4924 73.24 97.3804 73.032C97.2764 72.816 97.1244 72.648 96.9244 72.528C96.7244 72.408 96.4804 72.348 96.1924 72.348C95.8324 72.348 95.4644 72.416 95.0884 72.552C94.7124 72.688 94.3644 72.852 94.0444 73.044C94.0844 73.164 94.1124 73.284 94.1284 73.404C94.1524 73.516 94.1644 73.636 94.1644 73.764V78H93.2164V73.752C93.2164 73.48 93.1604 73.24 93.0484 73.032C92.9444 72.816 92.7924 72.648 92.5924 72.528C92.4004 72.408 92.1604 72.348 91.8724 72.348C91.6084 72.348 91.3604 72.376 91.1284 72.432C90.9044 72.48 90.6884 72.552 90.4804 72.648C90.2804 72.736 90.0684 72.844 89.8444 72.972V78H88.8964ZM102.723 78.072C102.051 78.072 101.519 77.972 101.127 77.772C100.743 77.572 100.467 77.232 100.299 76.752C100.131 76.272 100.047 75.616 100.047 74.784C100.047 73.936 100.131 73.276 100.299 72.804C100.475 72.324 100.759 71.988 101.151 71.796C101.543 71.604 102.071 71.508 102.735 71.508C103.303 71.508 103.763 71.572 104.115 71.7C104.475 71.828 104.739 72.048 104.907 72.36C105.083 72.664 105.171 73.088 105.171 73.632C105.171 74.008 105.095 74.312 104.943 74.544C104.799 74.768 104.587 74.932 104.307 75.036C104.035 75.132 103.711 75.18 103.335 75.18H100.995C101.003 75.7 101.059 76.12 101.163 76.44C101.267 76.752 101.455 76.98 101.727 77.124C102.007 77.26 102.415 77.328 102.951 77.328H105.015V77.904C104.647 77.952 104.287 77.992 103.935 78.024C103.583 78.056 103.179 78.072 102.723 78.072ZM100.983 74.556H103.263C103.623 74.556 103.887 74.492 104.055 74.364C104.231 74.228 104.319 73.988 104.319 73.644C104.319 73.276 104.263 72.992 104.151 72.792C104.047 72.584 103.879 72.44 103.647 72.36C103.423 72.272 103.119 72.228 102.735 72.228C102.287 72.228 101.935 72.296 101.679 72.432C101.423 72.56 101.243 72.792 101.139 73.128C101.035 73.464 100.983 73.94 100.983 74.556ZM108.975 78.072C108.815 78.072 108.619 78.068 108.387 78.06C108.155 78.052 107.911 78.04 107.655 78.024C107.407 78.008 107.179 77.992 106.971 77.976C106.771 77.952 106.615 77.928 106.503 77.904V77.328H109.131C109.395 77.328 109.623 77.308 109.815 77.268C110.007 77.228 110.155 77.14 110.259 77.004C110.371 76.868 110.427 76.664 110.427 76.392V76.104C110.427 75.824 110.335 75.608 110.151 75.456C109.967 75.296 109.671 75.216 109.263 75.216H108.363C107.987 75.216 107.651 75.168 107.355 75.072C107.067 74.976 106.843 74.812 106.683 74.58C106.523 74.348 106.443 74.028 106.443 73.62V73.284C106.443 72.884 106.519 72.556 106.671 72.3C106.831 72.044 107.075 71.852 107.403 71.724C107.739 71.596 108.171 71.532 108.699 71.532C108.923 71.532 109.179 71.54 109.467 71.556C109.763 71.572 110.051 71.596 110.331 71.628C110.611 71.652 110.839 71.68 111.015 71.712V72.288H108.543C108.135 72.288 107.819 72.356 107.595 72.492C107.379 72.628 107.271 72.892 107.271 73.284V73.548C107.271 73.796 107.323 73.984 107.427 74.112C107.531 74.232 107.675 74.312 107.859 74.352C108.051 74.392 108.271 74.412 108.519 74.412H109.431C110.015 74.412 110.467 74.548 110.787 74.82C111.107 75.092 111.267 75.484 111.267 75.996V76.44C111.267 76.872 111.167 77.208 110.967 77.448C110.775 77.68 110.507 77.844 110.163 77.94C109.827 78.028 109.431 78.072 108.975 78.072ZM117.682 78.012C117.314 78.012 117.006 77.948 116.758 77.82C116.51 77.684 116.322 77.468 116.194 77.172C116.066 76.868 116.002 76.46 116.002 75.948V68.844H116.95V75.828C116.95 76.212 116.986 76.504 117.058 76.704C117.13 76.896 117.234 77.032 117.37 77.112C117.506 77.184 117.666 77.232 117.85 77.256L118.498 77.328V78.012H117.682ZM119.673 70.452C119.545 70.452 119.481 70.388 119.481 70.26V69.324C119.481 69.196 119.545 69.132 119.673 69.132H120.345C120.409 69.132 120.453 69.152 120.477 69.192C120.509 69.224 120.525 69.268 120.525 69.324V70.26C120.525 70.388 120.465 70.452 120.345 70.452H119.673ZM119.529 78V71.592H120.477V78H119.529ZM125.391 78.072C125.087 78.072 124.803 78.036 124.539 77.964C124.283 77.884 124.047 77.792 123.831 77.688C123.615 77.576 123.423 77.464 123.255 77.352L123.075 78H122.307V68.844H123.255V72.18C123.559 72.004 123.903 71.848 124.287 71.712C124.671 71.576 125.027 71.508 125.355 71.508C125.867 71.508 126.291 71.616 126.627 71.832C126.963 72.048 127.215 72.4 127.383 72.888C127.559 73.376 127.647 74.028 127.647 74.844C127.647 75.508 127.571 76.084 127.419 76.572C127.267 77.052 127.023 77.424 126.687 77.688C126.359 77.944 125.927 78.072 125.391 78.072ZM125.091 77.28C125.443 77.28 125.735 77.192 125.967 77.016C126.207 76.832 126.387 76.556 126.507 76.188C126.635 75.82 126.699 75.36 126.699 74.808C126.699 74.104 126.627 73.576 126.483 73.224C126.347 72.864 126.159 72.62 125.919 72.492C125.679 72.364 125.403 72.3 125.091 72.3C124.731 72.3 124.407 72.352 124.119 72.456C123.839 72.552 123.551 72.68 123.255 72.84V76.764C123.503 76.884 123.775 77 124.071 77.112C124.375 77.224 124.715 77.28 125.091 77.28ZM131.692 78.072C131.02 78.072 130.488 77.972 130.096 77.772C129.712 77.572 129.436 77.232 129.268 76.752C129.1 76.272 129.016 75.616 129.016 74.784C129.016 73.936 129.1 73.276 129.268 72.804C129.444 72.324 129.728 71.988 130.12 71.796C130.512 71.604 131.04 71.508 131.704 71.508C132.272 71.508 132.732 71.572 133.084 71.7C133.444 71.828 133.708 72.048 133.876 72.36C134.052 72.664 134.14 73.088 134.14 73.632C134.14 74.008 134.064 74.312 133.912 74.544C133.768 74.768 133.556 74.932 133.276 75.036C133.004 75.132 132.68 75.18 132.304 75.18H129.964C129.972 75.7 130.028 76.12 130.132 76.44C130.236 76.752 130.424 76.98 130.696 77.124C130.976 77.26 131.384 77.328 131.92 77.328H133.984V77.904C133.616 77.952 133.256 77.992 132.904 78.024C132.552 78.056 132.148 78.072 131.692 78.072ZM129.952 74.556H132.232C132.592 74.556 132.856 74.492 133.024 74.364C133.2 74.228 133.288 73.988 133.288 73.644C133.288 73.276 133.232 72.992 133.12 72.792C133.016 72.584 132.848 72.44 132.616 72.36C132.392 72.272 132.088 72.228 131.704 72.228C131.256 72.228 130.904 72.296 130.648 72.432C130.392 72.56 130.212 72.792 130.108 73.128C130.004 73.464 129.952 73.94 129.952 74.556ZM135.736 78V71.592H136.456L136.684 72.708C136.972 72.364 137.292 72.08 137.644 71.856C138.004 71.632 138.416 71.52 138.88 71.52C138.992 71.52 139.096 71.524 139.192 71.532C139.296 71.54 139.392 71.556 139.48 71.58V72.552C139.376 72.536 139.264 72.524 139.144 72.516C139.024 72.5 138.904 72.492 138.784 72.492C138.488 72.492 138.224 72.528 137.992 72.6C137.76 72.672 137.54 72.78 137.332 72.924C137.124 73.068 136.908 73.244 136.684 73.452V78H135.736ZM143.226 78.072C142.762 78.072 142.354 78.024 142.002 77.928C141.658 77.832 141.37 77.664 141.138 77.424C140.906 77.184 140.734 76.852 140.622 76.428C140.51 75.996 140.454 75.448 140.454 74.784C140.454 74.112 140.51 73.564 140.622 73.14C140.734 72.708 140.906 72.376 141.138 72.144C141.37 71.904 141.658 71.74 142.002 71.652C142.354 71.556 142.762 71.508 143.226 71.508C143.69 71.508 144.094 71.556 144.438 71.652C144.79 71.748 145.082 71.916 145.314 72.156C145.546 72.388 145.718 72.72 145.83 73.152C145.95 73.576 146.01 74.12 146.01 74.784C146.01 75.456 145.95 76.008 145.83 76.44C145.718 76.864 145.546 77.196 145.314 77.436C145.09 77.668 144.802 77.832 144.45 77.928C144.098 78.024 143.69 78.072 143.226 78.072ZM143.226 77.292C143.522 77.292 143.782 77.264 144.006 77.208C144.238 77.152 144.43 77.04 144.582 76.872C144.734 76.704 144.85 76.452 144.93 76.116C145.01 75.78 145.05 75.336 145.05 74.784C145.05 74.224 145.01 73.78 144.93 73.452C144.85 73.124 144.734 72.876 144.582 72.708C144.43 72.54 144.238 72.428 144.006 72.372C143.782 72.316 143.522 72.288 143.226 72.288C142.922 72.288 142.658 72.316 142.434 72.372C142.21 72.428 142.022 72.54 141.87 72.708C141.718 72.876 141.602 73.124 141.522 73.452C141.442 73.78 141.402 74.224 141.402 74.784C141.402 75.336 141.442 75.78 141.522 76.116C141.602 76.452 141.718 76.704 141.87 76.872C142.022 77.04 142.21 77.152 142.434 77.208C142.658 77.264 142.922 77.292 143.226 77.292ZM152.57 78L150.158 71.592H151.13L153.122 77.112L155.174 71.592H156.134L153.65 78H152.57ZM159.585 78.072C159.121 78.072 158.713 78.024 158.361 77.928C158.017 77.832 157.729 77.664 157.497 77.424C157.265 77.184 157.093 76.852 156.981 76.428C156.869 75.996 156.813 75.448 156.813 74.784C156.813 74.112 156.869 73.564 156.981 73.14C157.093 72.708 157.265 72.376 157.497 72.144C157.729 71.904 158.017 71.74 158.361 71.652C158.713 71.556 159.121 71.508 159.585 71.508C160.049 71.508 160.453 71.556 160.797 71.652C161.149 71.748 161.441 71.916 161.673 72.156C161.905 72.388 162.077 72.72 162.189 73.152C162.309 73.576 162.369 74.12 162.369 74.784C162.369 75.456 162.309 76.008 162.189 76.44C162.077 76.864 161.905 77.196 161.673 77.436C161.449 77.668 161.161 77.832 160.809 77.928C160.457 78.024 160.049 78.072 159.585 78.072ZM159.585 77.292C159.881 77.292 160.141 77.264 160.365 77.208C160.597 77.152 160.789 77.04 160.941 76.872C161.093 76.704 161.209 76.452 161.289 76.116C161.369 75.78 161.409 75.336 161.409 74.784C161.409 74.224 161.369 73.78 161.289 73.452C161.209 73.124 161.093 72.876 160.941 72.708C160.789 72.54 160.597 72.428 160.365 72.372C160.141 72.316 159.881 72.288 159.585 72.288C159.281 72.288 159.017 72.316 158.793 72.372C158.569 72.428 158.381 72.54 158.229 72.708C158.077 72.876 157.961 73.124 157.881 73.452C157.801 73.78 157.761 74.224 157.761 74.784C157.761 75.336 157.801 75.78 157.881 76.116C157.961 76.452 158.077 76.704 158.229 76.872C158.381 77.04 158.569 77.152 158.793 77.208C159.017 77.264 159.281 77.292 159.585 77.292ZM165.647 78.012C165.279 78.012 164.971 77.948 164.723 77.82C164.475 77.684 164.287 77.468 164.159 77.172C164.031 76.868 163.967 76.46 163.967 75.948V68.844H164.915V75.828C164.915 76.212 164.951 76.504 165.023 76.704C165.095 76.896 165.199 77.032 165.335 77.112C165.471 77.184 165.631 77.232 165.815 77.256L166.463 77.328V78.012H165.647ZM169.402 78.072C168.786 78.072 168.31 77.912 167.974 77.592C167.646 77.272 167.482 76.776 167.482 76.104V71.592H168.43V75.864C168.43 76.4 168.55 76.764 168.79 76.956C169.038 77.14 169.382 77.232 169.822 77.232C170.198 77.232 170.542 77.18 170.854 77.076C171.166 76.964 171.486 76.812 171.814 76.62V71.592H172.762V78H172.018L171.814 77.292C171.486 77.5 171.114 77.684 170.698 77.844C170.29 77.996 169.858 78.072 169.402 78.072ZM176.673 78C176.257 78 175.913 77.932 175.641 77.796C175.369 77.66 175.169 77.44 175.041 77.136C174.913 76.832 174.853 76.428 174.861 75.924L174.897 72.372H173.877V71.76L174.909 71.592L175.065 69.804H175.797V71.592H177.645V72.372H175.797V75.924C175.797 76.204 175.825 76.428 175.881 76.596C175.945 76.764 176.025 76.892 176.121 76.98C176.225 77.068 176.333 77.132 176.445 77.172C176.557 77.204 176.665 77.224 176.769 77.232L177.549 77.304V78H176.673ZM178.955 80.844V71.592H179.723L179.903 72.252C180.047 72.148 180.231 72.04 180.455 71.928C180.687 71.808 180.935 71.708 181.199 71.628C181.471 71.548 181.739 71.508 182.003 71.508C182.419 71.508 182.771 71.6 183.059 71.784C183.355 71.96 183.595 72.2 183.779 72.504C183.963 72.808 184.095 73.156 184.175 73.548C184.255 73.94 184.295 74.352 184.295 74.784C184.295 75.504 184.211 76.112 184.043 76.608C183.883 77.096 183.635 77.464 183.299 77.712C182.963 77.96 182.531 78.084 182.003 78.084C181.643 78.084 181.279 78.028 180.911 77.916C180.551 77.796 180.215 77.648 179.903 77.472V80.844H178.955ZM181.739 77.28C182.043 77.28 182.315 77.204 182.555 77.052C182.795 76.9 182.987 76.644 183.131 76.284C183.275 75.916 183.347 75.416 183.347 74.784C183.347 74.184 183.271 73.704 183.119 73.344C182.967 72.976 182.771 72.712 182.531 72.552C182.291 72.384 182.027 72.3 181.739 72.3C181.371 72.3 181.031 72.36 180.719 72.48C180.415 72.592 180.143 72.712 179.903 72.84V76.764C180.183 76.916 180.479 77.04 180.791 77.136C181.111 77.232 181.427 77.28 181.739 77.28ZM187.14 78.072C186.668 78.072 186.28 77.932 185.976 77.652C185.672 77.372 185.52 76.976 185.52 76.464V76.008C185.52 75.504 185.684 75.096 186.012 74.784C186.348 74.472 186.852 74.316 187.524 74.316H189.696V73.524C189.696 73.26 189.648 73.036 189.552 72.852C189.464 72.66 189.3 72.512 189.06 72.408C188.828 72.304 188.488 72.252 188.04 72.252H186.048V71.688C186.328 71.64 186.652 71.596 187.02 71.556C187.396 71.516 187.836 71.496 188.34 71.496C188.86 71.488 189.292 71.552 189.636 71.688C189.98 71.824 190.232 72.04 190.392 72.336C190.56 72.624 190.644 73.004 190.644 73.476V78H189.912L189.732 77.268C189.7 77.3 189.6 77.356 189.432 77.436C189.272 77.516 189.064 77.608 188.808 77.712C188.56 77.808 188.288 77.892 187.992 77.964C187.704 78.036 187.42 78.072 187.14 78.072ZM187.536 77.364C187.68 77.372 187.844 77.356 188.028 77.316C188.212 77.276 188.4 77.232 188.592 77.184C188.784 77.128 188.96 77.072 189.12 77.016C189.288 76.96 189.424 76.912 189.528 76.872C189.632 76.832 189.688 76.812 189.696 76.812V74.796L187.74 74.88C187.284 74.896 186.956 75.008 186.756 75.216C186.564 75.424 186.468 75.692 186.468 76.02V76.308C186.468 76.564 186.52 76.772 186.624 76.932C186.736 77.084 186.872 77.192 187.032 77.256C187.2 77.32 187.368 77.356 187.536 77.364ZM194.556 78C194.14 78 193.796 77.932 193.524 77.796C193.252 77.66 193.052 77.44 192.924 77.136C192.796 76.832 192.736 76.428 192.744 75.924L192.78 72.372H191.76V71.76L192.792 71.592L192.948 69.804H193.68V71.592H195.528V72.372H193.68V75.924C193.68 76.204 193.708 76.428 193.764 76.596C193.828 76.764 193.908 76.892 194.004 76.98C194.108 77.068 194.216 77.132 194.328 77.172C194.44 77.204 194.548 77.224 194.652 77.232L195.432 77.304V78H194.556ZM200.42 78V72.372H199.436V71.76L200.42 71.592V70.86C200.42 70.404 200.476 70.024 200.588 69.72C200.7 69.408 200.888 69.172 201.152 69.012C201.416 68.852 201.784 68.772 202.256 68.772C202.536 68.772 202.772 68.788 202.964 68.82C203.164 68.844 203.34 68.868 203.492 68.892V69.564H202.424C202.136 69.564 201.916 69.612 201.764 69.708C201.612 69.796 201.508 69.936 201.452 70.128C201.396 70.312 201.368 70.54 201.368 70.812V71.592H203.36V72.372H201.368V78H200.42ZM204.49 78V71.592H205.21L205.438 72.708C205.726 72.364 206.046 72.08 206.398 71.856C206.758 71.632 207.17 71.52 207.634 71.52C207.746 71.52 207.85 71.524 207.946 71.532C208.05 71.54 208.146 71.556 208.234 71.58V72.552C208.13 72.536 208.018 72.524 207.898 72.516C207.778 72.5 207.658 72.492 207.538 72.492C207.242 72.492 206.978 72.528 206.746 72.6C206.514 72.672 206.294 72.78 206.086 72.924C205.878 73.068 205.662 73.244 205.438 73.452V78H204.49ZM209.579 70.452C209.451 70.452 209.387 70.388 209.387 70.26V69.324C209.387 69.196 209.451 69.132 209.579 69.132H210.251C210.315 69.132 210.359 69.152 210.383 69.192C210.415 69.224 210.431 69.268 210.431 69.324V70.26C210.431 70.388 210.371 70.452 210.251 70.452H209.579ZM209.435 78V71.592H210.383V78H209.435ZM212.213 78V71.592H212.957L213.161 72.3C213.465 72.084 213.821 71.896 214.229 71.736C214.637 71.568 215.061 71.484 215.501 71.484C215.973 71.484 216.353 71.584 216.641 71.784C216.929 71.984 217.141 72.248 217.277 72.576C217.413 72.904 217.481 73.26 217.481 73.644V78H216.533V73.752C216.533 73.48 216.477 73.24 216.365 73.032C216.261 72.816 216.109 72.648 215.909 72.528C215.717 72.408 215.477 72.348 215.189 72.348C214.925 72.348 214.677 72.376 214.445 72.432C214.221 72.48 214.005 72.552 213.797 72.648C213.597 72.736 213.385 72.844 213.161 72.972V78H212.213ZM220.839 80.94C220.423 80.94 220.055 80.88 219.735 80.76C219.423 80.648 219.175 80.472 218.991 80.232C218.815 80 218.727 79.708 218.727 79.356V79.068C218.727 78.7 218.827 78.392 219.027 78.144C219.235 77.896 219.495 77.712 219.807 77.592C220.119 77.464 220.439 77.4 220.767 77.4L221.007 77.784C220.767 77.784 220.543 77.824 220.335 77.904C220.127 77.976 219.955 78.096 219.819 78.264C219.691 78.432 219.627 78.648 219.627 78.912V79.176C219.627 79.56 219.755 79.832 220.011 79.992C220.267 80.16 220.615 80.244 221.055 80.244H222.543C223.023 80.244 223.399 80.152 223.671 79.968C223.951 79.784 224.091 79.496 224.091 79.104V78.864C224.091 78.64 224.047 78.448 223.959 78.288C223.871 78.128 223.723 78.004 223.515 77.916C223.315 77.828 223.031 77.784 222.663 77.784H220.731C220.235 77.784 219.847 77.68 219.567 77.472C219.295 77.256 219.159 76.98 219.159 76.644C219.159 76.324 219.251 76.072 219.435 75.888C219.627 75.704 219.895 75.576 220.239 75.504C219.943 75.384 219.711 75.224 219.543 75.024C219.375 74.816 219.259 74.596 219.195 74.364C219.131 74.124 219.099 73.884 219.099 73.644C219.099 73.148 219.199 72.748 219.399 72.444C219.599 72.14 219.883 71.92 220.251 71.784C220.627 71.648 221.067 71.58 221.571 71.58H224.991V72.12L223.551 72.24C223.655 72.312 223.771 72.408 223.899 72.528C224.027 72.64 224.135 72.804 224.223 73.02C224.319 73.228 224.367 73.516 224.367 73.884C224.367 74.212 224.295 74.524 224.151 74.82C224.015 75.116 223.783 75.36 223.455 75.552C223.127 75.736 222.675 75.828 222.099 75.828H221.079C220.743 75.828 220.475 75.88 220.275 75.984C220.083 76.08 219.987 76.256 219.987 76.512C219.987 76.704 220.059 76.84 220.203 76.92C220.347 77 220.499 77.04 220.659 77.04H222.783C223.279 77.04 223.687 77.104 224.007 77.232C224.335 77.36 224.579 77.556 224.739 77.82C224.907 78.076 224.991 78.404 224.991 78.804V79.068C224.991 79.652 224.791 80.108 224.391 80.436C223.999 80.772 223.411 80.94 222.627 80.94H220.839ZM221.283 75.096H222.003C222.411 75.096 222.719 75.036 222.927 74.916C223.143 74.788 223.291 74.624 223.371 74.424C223.451 74.224 223.491 74.008 223.491 73.776C223.491 73.416 223.431 73.132 223.311 72.924C223.199 72.708 223.039 72.556 222.831 72.468C222.623 72.372 222.383 72.324 222.111 72.324H221.427C220.971 72.324 220.611 72.428 220.347 72.636C220.091 72.836 219.963 73.188 219.963 73.692C219.963 74.188 220.079 74.548 220.311 74.772C220.551 74.988 220.875 75.096 221.283 75.096ZM226.326 70.452C226.198 70.452 226.134 70.388 226.134 70.26V69.324C226.134 69.196 226.198 69.132 226.326 69.132H226.998C227.062 69.132 227.106 69.152 227.13 69.192C227.162 69.224 227.178 69.268 227.178 69.324V70.26C227.178 70.388 227.118 70.452 226.998 70.452H226.326ZM226.182 78V71.592H227.13V78H226.182ZM230.639 78.012C230.271 78.012 229.963 77.948 229.715 77.82C229.467 77.684 229.279 77.468 229.151 77.172C229.023 76.868 228.959 76.46 228.959 75.948V68.844H229.907V75.828C229.907 76.212 229.943 76.504 230.015 76.704C230.087 76.896 230.191 77.032 230.327 77.112C230.463 77.184 230.623 77.232 230.807 77.256L231.455 77.328V78.012H230.639ZM234.166 78.012C233.798 78.012 233.49 77.948 233.242 77.82C232.994 77.684 232.806 77.468 232.678 77.172C232.55 76.868 232.486 76.46 232.486 75.948V68.844H233.434V75.828C233.434 76.212 233.47 76.504 233.542 76.704C233.614 76.896 233.718 77.032 233.854 77.112C233.99 77.184 234.15 77.232 234.334 77.256L234.982 77.328V78.012H234.166ZM237.262 78.072C236.79 78.072 236.402 77.932 236.098 77.652C235.794 77.372 235.642 76.976 235.642 76.464V76.008C235.642 75.504 235.806 75.096 236.134 74.784C236.47 74.472 236.974 74.316 237.646 74.316H239.818V73.524C239.818 73.26 239.77 73.036 239.674 72.852C239.586 72.66 239.422 72.512 239.182 72.408C238.95 72.304 238.61 72.252 238.162 72.252H236.17V71.688C236.45 71.64 236.774 71.596 237.142 71.556C237.518 71.516 237.958 71.496 238.462 71.496C238.982 71.488 239.414 71.552 239.758 71.688C240.102 71.824 240.354 72.04 240.514 72.336C240.682 72.624 240.766 73.004 240.766 73.476V78H240.034L239.854 77.268C239.822 77.3 239.722 77.356 239.554 77.436C239.394 77.516 239.186 77.608 238.93 77.712C238.682 77.808 238.41 77.892 238.114 77.964C237.826 78.036 237.542 78.072 237.262 78.072ZM237.658 77.364C237.802 77.372 237.966 77.356 238.15 77.316C238.334 77.276 238.522 77.232 238.714 77.184C238.906 77.128 239.082 77.072 239.242 77.016C239.41 76.96 239.546 76.912 239.65 76.872C239.754 76.832 239.81 76.812 239.818 76.812V74.796L237.862 74.88C237.406 74.896 237.078 75.008 236.878 75.216C236.686 75.424 236.59 75.692 236.59 76.02V76.308C236.59 76.564 236.642 76.772 236.746 76.932C236.858 77.084 236.994 77.192 237.154 77.256C237.322 77.32 237.49 77.356 237.658 77.364ZM245.787 78V71.592H246.531L246.735 72.3C247.055 72.076 247.411 71.884 247.803 71.724C248.203 71.564 248.647 71.484 249.135 71.484C249.535 71.484 249.875 71.576 250.155 71.76C250.443 71.936 250.659 72.16 250.803 72.432C251.003 72.288 251.243 72.144 251.523 72C251.811 71.856 252.115 71.736 252.435 71.64C252.763 71.536 253.079 71.484 253.383 71.484C253.847 71.484 254.227 71.584 254.523 71.784C254.819 71.976 255.035 72.24 255.171 72.576C255.315 72.904 255.387 73.272 255.387 73.68V78H254.439V73.752C254.439 73.48 254.383 73.24 254.271 73.032C254.167 72.816 254.015 72.648 253.815 72.528C253.615 72.408 253.371 72.348 253.083 72.348C252.723 72.348 252.355 72.416 251.979 72.552C251.603 72.688 251.255 72.852 250.935 73.044C250.975 73.164 251.003 73.284 251.019 73.404C251.043 73.516 251.055 73.636 251.055 73.764V78H250.107V73.752C250.107 73.48 250.051 73.24 249.939 73.032C249.835 72.816 249.683 72.648 249.483 72.528C249.291 72.408 249.051 72.348 248.763 72.348C248.499 72.348 248.251 72.376 248.019 72.432C247.795 72.48 247.579 72.552 247.371 72.648C247.171 72.736 246.959 72.844 246.735 72.972V78H245.787ZM258.414 78.072C257.942 78.072 257.554 77.932 257.25 77.652C256.946 77.372 256.794 76.976 256.794 76.464V76.008C256.794 75.504 256.958 75.096 257.286 74.784C257.622 74.472 258.126 74.316 258.798 74.316H260.97V73.524C260.97 73.26 260.922 73.036 260.826 72.852C260.738 72.66 260.574 72.512 260.334 72.408C260.102 72.304 259.762 72.252 259.314 72.252H257.322V71.688C257.602 71.64 257.926 71.596 258.294 71.556C258.67 71.516 259.11 71.496 259.614 71.496C260.134 71.488 260.566 71.552 260.91 71.688C261.254 71.824 261.506 72.04 261.666 72.336C261.834 72.624 261.918 73.004 261.918 73.476V78H261.186L261.006 77.268C260.974 77.3 260.874 77.356 260.706 77.436C260.546 77.516 260.338 77.608 260.082 77.712C259.834 77.808 259.562 77.892 259.266 77.964C258.978 78.036 258.694 78.072 258.414 78.072ZM258.81 77.364C258.954 77.372 259.118 77.356 259.302 77.316C259.486 77.276 259.674 77.232 259.866 77.184C260.058 77.128 260.234 77.072 260.394 77.016C260.562 76.96 260.698 76.912 260.802 76.872C260.906 76.832 260.962 76.812 260.97 76.812V74.796L259.014 74.88C258.558 74.896 258.23 75.008 258.03 75.216C257.838 75.424 257.742 75.692 257.742 76.02V76.308C257.742 76.564 257.794 76.772 257.898 76.932C258.01 77.084 258.146 77.192 258.306 77.256C258.474 77.32 258.642 77.356 258.81 77.364ZM265.277 80.94C264.861 80.94 264.493 80.88 264.173 80.76C263.861 80.648 263.613 80.472 263.429 80.232C263.253 80 263.165 79.708 263.165 79.356V79.068C263.165 78.7 263.265 78.392 263.465 78.144C263.673 77.896 263.933 77.712 264.245 77.592C264.557 77.464 264.877 77.4 265.205 77.4L265.445 77.784C265.205 77.784 264.981 77.824 264.773 77.904C264.565 77.976 264.393 78.096 264.257 78.264C264.129 78.432 264.065 78.648 264.065 78.912V79.176C264.065 79.56 264.193 79.832 264.449 79.992C264.705 80.16 265.053 80.244 265.493 80.244H266.981C267.461 80.244 267.837 80.152 268.109 79.968C268.389 79.784 268.529 79.496 268.529 79.104V78.864C268.529 78.64 268.485 78.448 268.397 78.288C268.309 78.128 268.161 78.004 267.953 77.916C267.753 77.828 267.469 77.784 267.101 77.784H265.169C264.673 77.784 264.285 77.68 264.005 77.472C263.733 77.256 263.597 76.98 263.597 76.644C263.597 76.324 263.689 76.072 263.873 75.888C264.065 75.704 264.333 75.576 264.677 75.504C264.381 75.384 264.149 75.224 263.981 75.024C263.813 74.816 263.697 74.596 263.633 74.364C263.569 74.124 263.537 73.884 263.537 73.644C263.537 73.148 263.637 72.748 263.837 72.444C264.037 72.14 264.321 71.92 264.689 71.784C265.065 71.648 265.505 71.58 266.009 71.58H269.429V72.12L267.989 72.24C268.093 72.312 268.209 72.408 268.337 72.528C268.465 72.64 268.573 72.804 268.661 73.02C268.757 73.228 268.805 73.516 268.805 73.884C268.805 74.212 268.733 74.524 268.589 74.82C268.453 75.116 268.221 75.36 267.893 75.552C267.565 75.736 267.113 75.828 266.537 75.828H265.517C265.181 75.828 264.913 75.88 264.713 75.984C264.521 76.08 264.425 76.256 264.425 76.512C264.425 76.704 264.497 76.84 264.641 76.92C264.785 77 264.937 77.04 265.097 77.04H267.221C267.717 77.04 268.125 77.104 268.445 77.232C268.773 77.36 269.017 77.556 269.177 77.82C269.345 78.076 269.429 78.404 269.429 78.804V79.068C269.429 79.652 269.229 80.108 268.829 80.436C268.437 80.772 267.849 80.94 267.065 80.94H265.277ZM265.721 75.096H266.441C266.849 75.096 267.157 75.036 267.365 74.916C267.581 74.788 267.729 74.624 267.809 74.424C267.889 74.224 267.929 74.008 267.929 73.776C267.929 73.416 267.869 73.132 267.749 72.924C267.637 72.708 267.477 72.556 267.269 72.468C267.061 72.372 266.821 72.324 266.549 72.324H265.865C265.409 72.324 265.049 72.428 264.785 72.636C264.529 72.836 264.401 73.188 264.401 73.692C264.401 74.188 264.517 74.548 264.749 74.772C264.989 74.988 265.313 75.096 265.721 75.096ZM270.619 78V71.592H271.363L271.567 72.3C271.871 72.084 272.227 71.896 272.635 71.736C273.043 71.568 273.467 71.484 273.907 71.484C274.379 71.484 274.759 71.584 275.047 71.784C275.335 71.984 275.547 72.248 275.683 72.576C275.819 72.904 275.887 73.26 275.887 73.644V78H274.939V73.752C274.939 73.48 274.883 73.24 274.771 73.032C274.667 72.816 274.515 72.648 274.315 72.528C274.123 72.408 273.883 72.348 273.595 72.348C273.331 72.348 273.083 72.376 272.851 72.432C272.627 72.48 272.411 72.552 272.203 72.648C272.003 72.736 271.791 72.844 271.567 72.972V78H270.619ZM278.922 78.072C278.45 78.072 278.062 77.932 277.758 77.652C277.454 77.372 277.302 76.976 277.302 76.464V76.008C277.302 75.504 277.466 75.096 277.794 74.784C278.13 74.472 278.634 74.316 279.306 74.316H281.478V73.524C281.478 73.26 281.43 73.036 281.334 72.852C281.246 72.66 281.082 72.512 280.842 72.408C280.61 72.304 280.27 72.252 279.822 72.252H277.83V71.688C278.11 71.64 278.434 71.596 278.802 71.556C279.178 71.516 279.618 71.496 280.122 71.496C280.642 71.488 281.074 71.552 281.418 71.688C281.762 71.824 282.014 72.04 282.174 72.336C282.342 72.624 282.426 73.004 282.426 73.476V78H281.694L281.514 77.268C281.482 77.3 281.382 77.356 281.214 77.436C281.054 77.516 280.846 77.608 280.59 77.712C280.342 77.808 280.07 77.892 279.774 77.964C279.486 78.036 279.202 78.072 278.922 78.072ZM279.318 77.364C279.462 77.372 279.626 77.356 279.81 77.316C279.994 77.276 280.182 77.232 280.374 77.184C280.566 77.128 280.742 77.072 280.902 77.016C281.07 76.96 281.206 76.912 281.31 76.872C281.414 76.832 281.47 76.812 281.478 76.812V74.796L279.522 74.88C279.066 74.896 278.738 75.008 278.538 75.216C278.346 75.424 278.25 75.692 278.25 76.02V76.308C278.25 76.564 278.302 76.772 278.406 76.932C278.518 77.084 278.654 77.192 278.814 77.256C278.982 77.32 279.15 77.356 279.318 77.364ZM284.237 78.012C284.109 78.012 284.045 77.948 284.045 77.82V76.86C284.045 76.732 284.109 76.668 284.237 76.668H284.765C284.893 76.668 284.957 76.732 284.957 76.86V77.82C284.957 77.884 284.937 77.932 284.897 77.964C284.865 77.996 284.821 78.012 284.765 78.012H284.237Z" fill="black"/>
<rect x="75.5" y="88.5" width="58" height="21" rx="10.5" fill="white"/>
<rect x="75.5" y="88.5" width="58" height="21" rx="10.5" stroke="#EF7E22"/>
<path d="M81.22 103V95.248L79.48 95.644V94.876L81.34 94.072H82.432V103H81.22ZM86.6708 103.036C86.2788 103.036 85.9268 102.972 85.6148 102.844C85.3028 102.708 85.0388 102.48 84.8228 102.16C84.6068 101.832 84.4428 101.38 84.3308 100.804C84.2188 100.228 84.1628 99.5 84.1628 98.62C84.1628 97.796 84.2348 97.1 84.3788 96.532C84.5228 95.956 84.7308 95.488 85.0028 95.128C85.2828 94.76 85.6188 94.496 86.0108 94.336C86.4028 94.168 86.8508 94.084 87.3548 94.084C87.7068 94.084 88.0868 94.1 88.4948 94.132C88.9028 94.156 89.2628 94.188 89.5748 94.228V95.164H87.4268C86.7628 95.164 86.2548 95.404 85.9028 95.884C85.5508 96.364 85.3748 97.088 85.3748 98.056C85.5988 98.016 85.8428 97.984 86.1068 97.96C86.3708 97.936 86.6388 97.92 86.9108 97.912C87.1828 97.904 87.4388 97.9 87.6788 97.9C88.2228 97.9 88.6748 97.968 89.0348 98.104C89.3948 98.24 89.6628 98.448 89.8388 98.728C90.0148 99.008 90.1028 99.368 90.1028 99.808V101.056C90.1028 101.544 90.0108 101.932 89.8268 102.22C89.6428 102.508 89.3908 102.716 89.0708 102.844C88.7588 102.972 88.4068 103.036 88.0148 103.036H86.6708ZM86.8868 101.956H87.7628C87.9788 101.956 88.1708 101.924 88.3388 101.86C88.5148 101.796 88.6508 101.684 88.7468 101.524C88.8508 101.364 88.9028 101.14 88.9028 100.852V100.024C88.9028 99.72 88.8428 99.492 88.7228 99.34C88.6108 99.18 88.4388 99.072 88.2068 99.016C87.9828 98.96 87.7028 98.932 87.3668 98.932H85.3748C85.3748 99.532 85.4068 100.032 85.4708 100.432C85.5348 100.824 85.6308 101.132 85.7588 101.356C85.8868 101.572 86.0428 101.728 86.2268 101.824C86.4188 101.912 86.6388 101.956 86.8868 101.956ZM91.0888 100.012V99.028H94.6528V100.012H91.0888ZM98.0095 103.036C97.5615 103.036 97.1695 102.96 96.8335 102.808C96.4975 102.648 96.2375 102.408 96.0535 102.088C95.8695 101.768 95.7775 101.364 95.7775 100.876V96.304C95.7775 95.816 95.8695 95.408 96.0535 95.08C96.2375 94.752 96.4975 94.504 96.8335 94.336C97.1775 94.168 97.5695 94.084 98.0095 94.084H99.7735C100.27 94.084 100.674 94.176 100.986 94.36C101.306 94.544 101.542 94.8 101.694 95.128C101.854 95.456 101.934 95.848 101.934 96.304V100.876C101.934 101.604 101.738 102.148 101.346 102.508C100.962 102.86 100.434 103.036 99.7615 103.036H98.0095ZM98.2615 101.944H99.4735C99.9135 101.944 100.23 101.836 100.422 101.62C100.622 101.404 100.722 101.1 100.722 100.708V96.412C100.722 95.98 100.618 95.664 100.41 95.464C100.202 95.264 99.9055 95.164 99.5215 95.164H98.2255C97.8415 95.164 97.5375 95.272 97.3135 95.488C97.0895 95.704 96.9775 96.012 96.9775 96.412V100.708C96.9775 101.124 97.0895 101.436 97.3135 101.644C97.5455 101.844 97.8615 101.944 98.2615 101.944ZM105.873 103.036C105.561 103.036 105.269 103.008 104.997 102.952C104.733 102.888 104.501 102.788 104.301 102.652C104.101 102.508 103.945 102.32 103.833 102.088C103.721 101.856 103.665 101.568 103.665 101.224V99.976C103.665 99.704 103.717 99.468 103.821 99.268C103.933 99.06 104.069 98.892 104.229 98.764C104.397 98.636 104.573 98.552 104.757 98.512C104.509 98.4 104.317 98.264 104.181 98.104C104.053 97.936 103.965 97.756 103.917 97.564C103.869 97.364 103.845 97.16 103.845 96.952V95.932C103.845 95.492 103.933 95.136 104.109 94.864C104.285 94.592 104.525 94.396 104.829 94.276C105.133 94.156 105.465 94.096 105.825 94.096H107.493C107.869 94.096 108.197 94.156 108.477 94.276C108.757 94.396 108.977 94.592 109.137 94.864C109.297 95.136 109.377 95.492 109.377 95.932V96.952C109.377 97.08 109.361 97.22 109.329 97.372C109.297 97.516 109.245 97.66 109.173 97.804C109.109 97.94 109.021 98.06 108.909 98.164C108.797 98.268 108.665 98.34 108.513 98.38C108.777 98.436 108.981 98.548 109.125 98.716C109.277 98.876 109.385 99.064 109.449 99.28C109.513 99.488 109.545 99.7 109.545 99.916V101.224C109.545 101.68 109.457 102.04 109.281 102.304C109.105 102.56 108.861 102.748 108.549 102.868C108.245 102.98 107.893 103.036 107.493 103.036H105.873ZM106.065 102.004H107.241C107.633 102.004 107.913 101.924 108.081 101.764C108.257 101.596 108.345 101.352 108.345 101.032V100.024C108.345 99.664 108.257 99.404 108.081 99.244C107.905 99.084 107.613 99.004 107.205 99.004H106.065C105.945 99.004 105.813 99.024 105.669 99.064C105.533 99.096 105.405 99.152 105.285 99.232C105.165 99.312 105.065 99.42 104.985 99.556C104.913 99.684 104.877 99.84 104.877 100.024V101.032C104.877 101.384 104.985 101.636 105.201 101.788C105.425 101.932 105.713 102.004 106.065 102.004ZM106.065 97.972H107.193C107.449 97.972 107.649 97.924 107.793 97.828C107.937 97.724 108.041 97.596 108.105 97.444C108.169 97.284 108.201 97.124 108.201 96.964V96.208C108.201 95.792 108.117 95.508 107.949 95.356C107.789 95.204 107.553 95.128 107.241 95.128H106.065C105.697 95.128 105.429 95.208 105.261 95.368C105.101 95.528 105.021 95.808 105.021 96.208V96.964C105.021 97.276 105.105 97.524 105.273 97.708C105.441 97.884 105.705 97.972 106.065 97.972ZM110.718 100.012V99.028H114.282V100.012H110.718ZM114.956 103V102.028L118.124 98.944C118.428 98.656 118.672 98.388 118.856 98.14C119.04 97.892 119.172 97.644 119.252 97.396C119.34 97.14 119.384 96.864 119.384 96.568C119.384 96.304 119.332 96.072 119.228 95.872C119.132 95.664 118.96 95.504 118.712 95.392C118.464 95.28 118.112 95.224 117.656 95.224H115.232V94.288C115.6 94.24 116.008 94.196 116.456 94.156C116.912 94.108 117.396 94.084 117.908 94.084C118.588 94.084 119.12 94.18 119.504 94.372C119.896 94.556 120.172 94.824 120.332 95.176C120.5 95.52 120.584 95.928 120.584 96.4C120.584 96.808 120.528 97.184 120.416 97.528C120.312 97.864 120.148 98.192 119.924 98.512C119.7 98.824 119.412 99.152 119.06 99.496L116.576 101.896H120.896V103H114.956ZM126.054 102.988V100.864H121.974L121.722 100.24L124.914 94.156H126.15L123.138 99.832H126.054V97.66L126.306 96.784H127.266V99.832H128.382V100.66L127.266 100.864V102.988H126.054Z" fill="#EF7E22"/>
<rect x="20" y="20" width="40" height="40" rx="20" fill="#EF7E22"/>
<path d="M34.522 46L38.95 32.734H41.254L45.682 46H43.792L42.622 42.526H37.546L36.394 46H34.522ZM37.978 40.888H42.172L40.084 34.318L37.978 40.888Z" fill="white"/>
</g>
<defs>
<filter id="filter0_d_10_539" x="0" y="0" width="350" height="128" filterUnits="userSpaceOnUse" color-interpolation-filters="sRGB">
<feFlood flood-opacity="0" result="BackgroundImageFix"/>
<feColorMatrix in="SourceAlpha" type="matrix" values="0 0 0 0 0 0 0 0 0 0 0 0 0 0 0 0 0 0 127 0" result="hardAlpha"/>
<feOffset/>
<feGaussianBlur stdDeviation="2"/>
<feComposite in2="hardAlpha" operator="out"/>
<feColorMatrix type="matrix" values="0 0 0 0 0 0 0 0 0 0 0 0 0 0 0 0 0 0 0.16 0"/>
<feBlend mode="normal" in2="BackgroundImageFix" result="effect1_dropShadow_10_539"/>
<feBlend mode="normal" in="SourceGraphic" in2="effect1_dropShadow_10_539" result="shape"/>
</filter>
</defs>
</svg>
