<svg width="235" height="38" viewBox="0 0 235 38" fill="none" xmlns="http://www.w3.org/2000/svg">
<rect width="139" height="38" rx="19" fill="#EF7E22"/>
<path d="M23.804 23.072C23.276 23.072 22.816 23.012 22.424 22.892C22.032 22.772 21.704 22.556 21.44 22.244C21.176 21.924 20.98 21.468 20.852 20.876C20.724 20.276 20.66 19.5 20.66 18.548C20.66 17.652 20.724 16.912 20.852 16.328C20.988 15.744 21.188 15.288 21.452 14.96C21.724 14.632 22.06 14.404 22.46 14.276C22.86 14.148 23.324 14.084 23.852 14.084C24.148 14.084 24.452 14.1 24.764 14.132C25.084 14.164 25.388 14.208 25.676 14.264C25.972 14.312 26.236 14.368 26.468 14.432V15.344C26.324 15.32 26.128 15.296 25.88 15.272C25.632 15.24 25.352 15.216 25.04 15.2C24.728 15.176 24.404 15.164 24.068 15.164C23.668 15.164 23.328 15.212 23.048 15.308C22.768 15.396 22.54 15.564 22.364 15.812C22.188 16.052 22.06 16.396 21.98 16.844C21.9 17.284 21.86 17.856 21.86 18.56C21.86 19.272 21.896 19.856 21.968 20.312C22.048 20.76 22.172 21.108 22.34 21.356C22.508 21.596 22.732 21.764 23.012 21.86C23.292 21.948 23.64 21.992 24.056 21.992C24.656 21.992 25.148 21.976 25.532 21.944C25.916 21.912 26.228 21.88 26.468 21.848V22.772C26.228 22.828 25.964 22.88 25.676 22.928C25.388 22.976 25.084 23.012 24.764 23.036C24.452 23.06 24.132 23.072 23.804 23.072ZM30.3232 23.072C29.8352 23.072 29.4112 23.02 29.0512 22.916C28.6992 22.812 28.4072 22.64 28.1752 22.4C27.9432 22.152 27.7712 21.816 27.6592 21.392C27.5472 20.968 27.4912 20.432 27.4912 19.784C27.4912 19.112 27.5472 18.564 27.6592 18.14C27.7712 17.708 27.9432 17.372 28.1752 17.132C28.4072 16.892 28.7032 16.728 29.0632 16.64C29.4232 16.544 29.8432 16.496 30.3232 16.496C30.8032 16.496 31.2232 16.544 31.5832 16.64C31.9432 16.736 32.2392 16.904 32.4712 17.144C32.7032 17.384 32.8752 17.72 32.9872 18.152C33.0992 18.576 33.1552 19.12 33.1552 19.784C33.1552 20.44 33.0992 20.984 32.9872 21.416C32.8752 21.84 32.7032 22.172 32.4712 22.412C32.2472 22.652 31.9552 22.824 31.5952 22.928C31.2352 23.024 30.8112 23.072 30.3232 23.072ZM30.3232 22.088C30.5872 22.088 30.8192 22.064 31.0192 22.016C31.2272 21.968 31.3992 21.868 31.5352 21.716C31.6712 21.556 31.7752 21.32 31.8472 21.008C31.9192 20.696 31.9552 20.284 31.9552 19.772C31.9552 19.26 31.9192 18.852 31.8472 18.548C31.7752 18.236 31.6712 18.004 31.5352 17.852C31.3992 17.7 31.2272 17.6 31.0192 17.552C30.8192 17.496 30.5872 17.468 30.3232 17.468C30.0512 17.468 29.8112 17.496 29.6032 17.552C29.4032 17.6 29.2352 17.7 29.0992 17.852C28.9712 18.004 28.8712 18.236 28.7992 18.548C28.7352 18.852 28.7032 19.26 28.7032 19.772C28.7032 20.284 28.7352 20.696 28.7992 21.008C28.8712 21.32 28.9712 21.556 29.0992 21.716C29.2352 21.868 29.4032 21.968 29.6032 22.016C29.8112 22.064 30.0512 22.088 30.3232 22.088ZM34.6213 23V16.58H35.5813L35.8213 17.276C36.1333 17.06 36.4773 16.872 36.8533 16.712C37.2293 16.552 37.6613 16.472 38.1493 16.472C38.5493 16.472 38.8893 16.56 39.1693 16.736C39.4493 16.912 39.6613 17.136 39.8053 17.408C39.9973 17.264 40.2293 17.12 40.5013 16.976C40.7733 16.832 41.0653 16.712 41.3773 16.616C41.6893 16.52 41.9893 16.472 42.2773 16.472C42.7573 16.472 43.1453 16.572 43.4413 16.772C43.7453 16.964 43.9613 17.232 44.0893 17.576C44.2253 17.912 44.2933 18.296 44.2933 18.728V23H43.0933V18.824C43.0933 18.568 43.0413 18.348 42.9373 18.164C42.8413 17.972 42.7013 17.824 42.5173 17.72C42.3413 17.616 42.1253 17.564 41.8693 17.564C41.5493 17.564 41.2213 17.628 40.8853 17.756C40.5493 17.876 40.2413 18.024 39.9613 18.2C39.9933 18.304 40.0173 18.412 40.0333 18.524C40.0493 18.628 40.0573 18.732 40.0573 18.836V23H38.8573V18.824C38.8573 18.568 38.8053 18.348 38.7013 18.164C38.6053 17.972 38.4693 17.824 38.2933 17.72C38.1173 17.616 37.9013 17.564 37.6453 17.564C37.4053 17.564 37.1813 17.588 36.9733 17.636C36.7733 17.684 36.5813 17.752 36.3973 17.84C36.2133 17.92 36.0213 18.02 35.8213 18.14V23H34.6213ZM45.9416 25.844V16.58H46.9256L47.1416 17.228C47.2936 17.116 47.4736 17.004 47.6816 16.892C47.8976 16.78 48.1296 16.688 48.3776 16.616C48.6336 16.536 48.8896 16.496 49.1456 16.496C49.5536 16.496 49.9016 16.58 50.1896 16.748C50.4856 16.916 50.7256 17.152 50.9096 17.456C51.0936 17.752 51.2256 18.1 51.3056 18.5C51.3936 18.9 51.4376 19.328 51.4376 19.784C51.4376 20.496 51.3576 21.1 51.1976 21.596C51.0456 22.084 50.8016 22.456 50.4656 22.712C50.1376 22.96 49.6976 23.084 49.1456 23.084C48.8096 23.084 48.4656 23.036 48.1136 22.94C47.7616 22.836 47.4376 22.7 47.1416 22.532V25.844H45.9416ZM48.7856 22.076C49.0576 22.076 49.3016 22.008 49.5176 21.872C49.7336 21.736 49.9056 21.504 50.0336 21.176C50.1696 20.84 50.2376 20.376 50.2376 19.784C50.2376 19.224 50.1696 18.776 50.0336 18.44C49.8976 18.096 49.7216 17.852 49.5056 17.708C49.2896 17.556 49.0536 17.48 48.7976 17.48C48.4616 17.48 48.1536 17.532 47.8736 17.636C47.6016 17.74 47.3576 17.848 47.1416 17.96V21.62C47.3896 21.756 47.6536 21.868 47.9336 21.956C48.2216 22.036 48.5056 22.076 48.7856 22.076ZM54.6905 23.012C54.2985 23.012 53.9665 22.944 53.6945 22.808C53.4305 22.672 53.2305 22.456 53.0945 22.16C52.9665 21.856 52.9025 21.448 52.9025 20.936V13.844H54.1025V20.78C54.1025 21.116 54.1345 21.376 54.1985 21.56C54.2705 21.736 54.3665 21.86 54.4865 21.932C54.6145 22.004 54.7625 22.052 54.9305 22.076L55.5305 22.148V23.012H54.6905ZM59.0322 23.072C58.3522 23.072 57.8082 22.972 57.4002 22.772C57.0002 22.572 56.7122 22.236 56.5362 21.764C56.3682 21.284 56.2842 20.624 56.2842 19.784C56.2842 18.928 56.3682 18.264 56.5362 17.792C56.7122 17.312 57.0002 16.976 57.4002 16.784C57.8002 16.592 58.3402 16.496 59.0202 16.496C59.6122 16.496 60.0882 16.56 60.4482 16.688C60.8162 16.808 61.0842 17.028 61.2522 17.348C61.4282 17.66 61.5162 18.096 61.5162 18.656C61.5162 19.048 61.4362 19.36 61.2762 19.592C61.1242 19.824 60.9042 19.992 60.6162 20.096C60.3362 20.2 60.0002 20.252 59.6082 20.252H57.4842C57.4922 20.716 57.5442 21.088 57.6402 21.368C57.7442 21.64 57.9242 21.84 58.1802 21.968C58.4442 22.088 58.8282 22.148 59.3322 22.148H61.3362V22.868C60.9922 22.916 60.6402 22.96 60.2802 23C59.9202 23.048 59.5042 23.072 59.0322 23.072ZM57.4722 19.496H59.5002C59.8202 19.496 60.0562 19.436 60.2082 19.316C60.3602 19.196 60.4362 18.976 60.4362 18.656C60.4362 18.336 60.3882 18.084 60.2922 17.9C60.2042 17.716 60.0562 17.584 59.8482 17.504C59.6402 17.424 59.3642 17.384 59.0202 17.384C58.6282 17.384 58.3162 17.444 58.0842 17.564C57.8602 17.684 57.7002 17.896 57.6042 18.2C57.5162 18.504 57.4722 18.936 57.4722 19.496ZM65.2006 23C64.7686 23 64.4086 22.932 64.1206 22.796C63.8406 22.652 63.6326 22.424 63.4966 22.112C63.3686 21.8 63.3086 21.384 63.3166 20.864L63.3646 17.564H62.3446V16.784L63.3886 16.58L63.5686 14.78H64.5166V16.58H66.2566V17.564H64.5166V20.852C64.5166 21.1 64.5406 21.3 64.5886 21.452C64.6366 21.604 64.7046 21.72 64.7926 21.8C64.8806 21.88 64.9766 21.94 65.0806 21.98C65.1846 22.012 65.2846 22.032 65.3806 22.04L66.1726 22.112V23H65.2006ZM70.0009 23.072C69.3209 23.072 68.7769 22.972 68.3689 22.772C67.9689 22.572 67.6809 22.236 67.5049 21.764C67.3369 21.284 67.2529 20.624 67.2529 19.784C67.2529 18.928 67.3369 18.264 67.5049 17.792C67.6809 17.312 67.9689 16.976 68.3689 16.784C68.7689 16.592 69.3089 16.496 69.9889 16.496C70.5809 16.496 71.0569 16.56 71.4169 16.688C71.7849 16.808 72.0529 17.028 72.2209 17.348C72.3969 17.66 72.4849 18.096 72.4849 18.656C72.4849 19.048 72.4049 19.36 72.2449 19.592C72.0929 19.824 71.8729 19.992 71.5849 20.096C71.3049 20.2 70.9689 20.252 70.5769 20.252H68.4529C68.4609 20.716 68.5129 21.088 68.6089 21.368C68.7129 21.64 68.8929 21.84 69.1489 21.968C69.4129 22.088 69.7969 22.148 70.3009 22.148H72.3049V22.868C71.9609 22.916 71.6089 22.96 71.2489 23C70.8889 23.048 70.4729 23.072 70.0009 23.072ZM68.4409 19.496H70.4689C70.7889 19.496 71.0249 19.436 71.1769 19.316C71.3289 19.196 71.4049 18.976 71.4049 18.656C71.4049 18.336 71.3569 18.084 71.2609 17.9C71.1729 17.716 71.0249 17.584 70.8169 17.504C70.6089 17.424 70.3329 17.384 69.9889 17.384C69.5969 17.384 69.2849 17.444 69.0529 17.564C68.8289 17.684 68.6689 17.896 68.5729 18.2C68.4849 18.504 68.4409 18.936 68.4409 19.496Z" fill="white"/>
<rect x="84" y="8" width="35" height="22" rx="11" fill="white"/>
<path d="M102.96 23.06C102.44 23.06 101.912 23.044 101.376 23.012C100.84 22.988 100.352 22.956 99.912 22.916V21.968H102.996C103.332 21.968 103.616 21.916 103.848 21.812C104.088 21.7 104.268 21.544 104.388 21.344C104.516 21.144 104.58 20.916 104.58 20.66V19.796C104.58 19.428 104.472 19.14 104.256 18.932C104.048 18.716 103.72 18.608 103.272 18.608H102.408C102.08 18.608 101.82 18.68 101.628 18.824C101.436 18.968 101.312 19.192 101.256 19.496H100.116L100.368 14.156H105.48V15.236H101.412L101.28 18.14C101.384 17.988 101.552 17.856 101.784 17.744C102.016 17.632 102.304 17.576 102.648 17.576H103.668C104.132 17.576 104.52 17.664 104.832 17.84C105.144 18.016 105.38 18.256 105.54 18.56C105.7 18.864 105.78 19.208 105.78 19.592V20.9C105.78 21.388 105.664 21.792 105.432 22.112C105.208 22.432 104.884 22.672 104.46 22.832C104.044 22.984 103.544 23.06 102.96 23.06Z" fill="#EF7E22"/>
<rect x="155.5" y="0.5" width="79" height="37" rx="18.5" stroke="#EF7E22"/>
<path d="M179.068 23.072C178.58 23.072 178.132 23.028 177.724 22.94C177.316 22.852 176.964 22.704 176.668 22.496C176.372 22.28 176.144 21.988 175.984 21.62C175.832 21.252 175.756 20.788 175.756 20.228V14.156H176.968V20.216C176.968 20.672 177.048 21.028 177.208 21.284C177.376 21.532 177.616 21.712 177.928 21.824C178.248 21.928 178.628 21.98 179.068 21.98C179.516 21.98 179.896 21.928 180.208 21.824C180.528 21.712 180.768 21.532 180.928 21.284C181.096 21.028 181.18 20.672 181.18 20.216V14.156H182.392V20.228C182.392 20.788 182.312 21.252 182.152 21.62C181.992 21.988 181.764 22.28 181.468 22.496C181.18 22.704 180.832 22.852 180.424 22.94C180.016 23.028 179.564 23.072 179.068 23.072ZM183.985 25.844V16.58H184.969L185.185 17.228C185.337 17.116 185.517 17.004 185.725 16.892C185.941 16.78 186.173 16.688 186.421 16.616C186.677 16.536 186.933 16.496 187.189 16.496C187.597 16.496 187.945 16.58 188.233 16.748C188.529 16.916 188.769 17.152 188.953 17.456C189.137 17.752 189.269 18.1 189.349 18.5C189.437 18.9 189.481 19.328 189.481 19.784C189.481 20.496 189.401 21.1 189.241 21.596C189.089 22.084 188.845 22.456 188.509 22.712C188.181 22.96 187.741 23.084 187.189 23.084C186.853 23.084 186.509 23.036 186.157 22.94C185.805 22.836 185.481 22.7 185.185 22.532V25.844H183.985ZM186.829 22.076C187.101 22.076 187.345 22.008 187.561 21.872C187.777 21.736 187.949 21.504 188.077 21.176C188.213 20.84 188.281 20.376 188.281 19.784C188.281 19.224 188.213 18.776 188.077 18.44C187.941 18.096 187.765 17.852 187.549 17.708C187.333 17.556 187.097 17.48 186.841 17.48C186.505 17.48 186.197 17.532 185.917 17.636C185.645 17.74 185.401 17.848 185.185 17.96V21.62C185.433 21.756 185.697 21.868 185.977 21.956C186.265 22.036 186.549 22.076 186.829 22.076ZM193.033 23.072C192.513 23.072 192.081 22.96 191.737 22.736C191.401 22.512 191.149 22.164 190.981 21.692C190.813 21.212 190.729 20.596 190.729 19.844C190.729 19.052 190.805 18.412 190.957 17.924C191.117 17.428 191.373 17.068 191.725 16.844C192.077 16.612 192.553 16.496 193.153 16.496C193.489 16.496 193.821 16.532 194.149 16.604C194.485 16.676 194.777 16.756 195.025 16.844V13.844H196.225V23H195.241L195.025 22.364C194.897 22.476 194.721 22.588 194.497 22.7C194.273 22.804 194.033 22.892 193.777 22.964C193.521 23.036 193.273 23.072 193.033 23.072ZM193.417 22.088C193.745 22.088 194.041 22.036 194.305 21.932C194.577 21.828 194.817 21.72 195.025 21.608V17.708C194.777 17.636 194.533 17.572 194.293 17.516C194.061 17.452 193.801 17.42 193.513 17.42C193.137 17.42 192.833 17.488 192.601 17.624C192.369 17.76 192.201 18 192.097 18.344C191.993 18.688 191.941 19.168 191.941 19.784C191.941 20.352 191.989 20.808 192.085 21.152C192.181 21.488 192.337 21.728 192.553 21.872C192.777 22.016 193.065 22.088 193.417 22.088ZM199.155 23.072C198.683 23.072 198.291 22.932 197.979 22.652C197.675 22.364 197.523 21.968 197.523 21.464V20.96C197.523 20.464 197.691 20.06 198.027 19.748C198.371 19.428 198.887 19.268 199.575 19.268H201.579V18.596C201.579 18.348 201.535 18.14 201.447 17.972C201.367 17.796 201.215 17.664 200.991 17.576C200.767 17.488 200.435 17.444 199.995 17.444H198.027V16.736C198.315 16.672 198.651 16.616 199.035 16.568C199.427 16.52 199.883 16.492 200.403 16.484C200.931 16.484 201.371 16.552 201.723 16.688C202.083 16.816 202.351 17.032 202.527 17.336C202.703 17.632 202.791 18.028 202.791 18.524V23H201.843L201.639 22.292C201.591 22.324 201.491 22.384 201.339 22.472C201.187 22.552 200.991 22.64 200.751 22.736C200.519 22.832 200.263 22.912 199.983 22.976C199.711 23.04 199.435 23.072 199.155 23.072ZM199.707 22.196C199.827 22.204 199.967 22.192 200.127 22.16C200.295 22.128 200.459 22.092 200.619 22.052C200.787 22.004 200.939 21.956 201.075 21.908C201.219 21.86 201.335 21.82 201.423 21.788C201.519 21.748 201.571 21.724 201.579 21.716V19.868L199.899 19.94C199.483 19.964 199.183 20.068 198.999 20.252C198.823 20.436 198.735 20.676 198.735 20.972V21.26C198.735 21.492 198.783 21.68 198.879 21.824C198.975 21.96 199.095 22.056 199.239 22.112C199.391 22.168 199.547 22.196 199.707 22.196ZM206.642 23C206.21 23 205.85 22.932 205.562 22.796C205.282 22.652 205.074 22.424 204.938 22.112C204.81 21.8 204.75 21.384 204.758 20.864L204.806 17.564H203.786V16.784L204.83 16.58L205.01 14.78H205.958V16.58H207.698V17.564H205.958V20.852C205.958 21.1 205.982 21.3 206.03 21.452C206.078 21.604 206.146 21.72 206.234 21.8C206.322 21.88 206.418 21.94 206.522 21.98C206.626 22.012 206.726 22.032 206.822 22.04L207.614 22.112V23H206.642ZM211.442 23.072C210.762 23.072 210.218 22.972 209.81 22.772C209.41 22.572 209.122 22.236 208.946 21.764C208.778 21.284 208.694 20.624 208.694 19.784C208.694 18.928 208.778 18.264 208.946 17.792C209.122 17.312 209.41 16.976 209.81 16.784C210.21 16.592 210.75 16.496 211.43 16.496C212.022 16.496 212.498 16.56 212.858 16.688C213.226 16.808 213.494 17.028 213.662 17.348C213.838 17.66 213.926 18.096 213.926 18.656C213.926 19.048 213.846 19.36 213.686 19.592C213.534 19.824 213.314 19.992 213.026 20.096C212.746 20.2 212.41 20.252 212.018 20.252H209.894C209.902 20.716 209.954 21.088 210.05 21.368C210.154 21.64 210.334 21.84 210.59 21.968C210.854 22.088 211.238 22.148 211.742 22.148H213.746V22.868C213.402 22.916 213.05 22.96 212.69 23C212.33 23.048 211.914 23.072 211.442 23.072ZM209.882 19.496H211.91C212.23 19.496 212.466 19.436 212.618 19.316C212.77 19.196 212.846 18.976 212.846 18.656C212.846 18.336 212.798 18.084 212.702 17.9C212.614 17.716 212.466 17.584 212.258 17.504C212.05 17.424 211.774 17.384 211.43 17.384C211.038 17.384 210.726 17.444 210.494 17.564C210.27 17.684 210.11 17.896 210.014 18.2C209.926 18.504 209.882 18.936 209.882 19.496Z" fill="#EF7E22"/>
</svg>
