<svg width="19" height="19" viewBox="0 0 19 19" fill="none" xmlns="http://www.w3.org/2000/svg">
<path d="M15.5183 17.492H3.49028C2.28788 17.492 1.35988 16.5848 1.51748 15.3928L1.60868 14.6976C1.77428 13.7376 2.65268 13.1336 3.60628 12.9264L9.44228 11.9H9.55748L15.3935 12.9264C16.3631 13.1504 17.2255 13.7208 17.3911 14.6976L17.4823 15.4016C17.6399 16.5936 16.7119 17.5 15.5095 17.5L15.5183 17.492ZM13.4999 5.5C13.4999 6.56087 13.0785 7.57828 12.3283 8.32843C11.5782 9.07857 10.5608 9.5 9.49988 9.5C8.43902 9.5 7.4216 9.07857 6.67146 8.32843C5.92131 7.57828 5.49988 6.56087 5.49988 5.5C5.49988 4.43913 5.92131 3.42172 6.67146 2.67157C7.4216 1.92143 8.43902 1.5 9.49988 1.5C10.5608 1.5 11.5782 1.92143 12.3283 2.67157C13.0785 3.42172 13.4999 4.43913 13.4999 5.5Z" stroke="black" stroke-width="1.5" stroke-linecap="round" stroke-linejoin="round"/>
</svg>
