<svg width="16" height="16" viewBox="0 0 16 16" fill="none" xmlns="http://www.w3.org/2000/svg">
<path d="M8.44444 5.55556C8.44444 5.37874 8.51468 5.20918 8.63971 5.08415C8.76473 4.95913 8.9343 4.88889 9.11111 4.88889H12.2222C12.399 4.88889 12.5686 4.95913 12.6936 5.08415C12.8187 5.20918 12.8889 5.37874 12.8889 5.55556C12.8889 5.73237 12.8187 5.90194 12.6936 6.02696C12.5686 6.15198 12.399 6.22222 12.2222 6.22222H9.11111C8.9343 6.22222 8.76473 6.15198 8.63971 6.02696C8.51468 5.90194 8.44444 5.73237 8.44444 5.55556ZM9.11111 9.77778C8.9343 9.77778 8.76473 9.84802 8.63971 9.97304C8.51468 10.0981 8.44444 10.2676 8.44444 10.4444C8.44444 10.6213 8.51468 10.7908 8.63971 10.9158C8.76473 11.0409 8.9343 11.1111 9.11111 11.1111H12.2222C12.399 11.1111 12.5686 11.0409 12.6936 10.9158C12.8187 10.7908 12.8889 10.6213 12.8889 10.4444C12.8889 10.2676 12.8187 10.0981 12.6936 9.97304C12.5686 9.84802 12.399 9.77778 12.2222 9.77778H9.11111ZM6.91556 5.13778C6.98105 5.07674 7.03359 5.00314 7.07003 4.92137C7.10646 4.83959 7.12606 4.75131 7.12764 4.6618C7.12922 4.57228 7.11275 4.48337 7.07922 4.40036C7.04569 4.31735 6.99578 4.24194 6.93248 4.17863C6.86917 4.11533 6.79377 4.06542 6.71075 4.03189C6.62774 3.99836 6.53883 3.98189 6.44931 3.98347C6.3598 3.98505 6.27152 4.00465 6.18974 4.04108C6.10797 4.07752 6.03437 4.13006 5.97333 4.19556L4.66667 5.50222L4.24889 5.08444C4.12251 4.96668 3.95536 4.90257 3.78265 4.90562C3.60993 4.90867 3.44515 4.97864 3.323 5.10078C3.20086 5.22293 3.13089 5.38771 3.12784 5.56042C3.1248 5.73314 3.18891 5.90029 3.30667 6.02667L4.19556 6.91556C4.32056 7.0404 4.49 7.11052 4.66667 7.11052C4.84333 7.11052 5.01278 7.0404 5.13778 6.91556L6.91556 5.13778ZM6.91556 9.08444C7.0404 9.20944 7.11052 9.37889 7.11052 9.55556C7.11052 9.73222 7.0404 9.90167 6.91556 10.0267L5.13778 11.8044C5.01278 11.9293 4.84333 11.9994 4.66667 11.9994C4.49 11.9994 4.32056 11.9293 4.19556 11.8044L3.30667 10.9156C3.24117 10.8545 3.18863 10.7809 3.15219 10.6991C3.11576 10.6174 3.09616 10.5291 3.09459 10.4396C3.09301 10.3501 3.10947 10.2611 3.143 10.1781C3.17653 10.0951 3.22644 10.0197 3.28974 9.95641C3.35305 9.89311 3.42846 9.8432 3.51147 9.80967C3.59448 9.77614 3.6834 9.75967 3.77291 9.76125C3.86242 9.76283 3.9507 9.78242 4.03248 9.81886C4.11426 9.8553 4.18786 9.90783 4.24889 9.97333L4.66667 10.3911L5.97333 9.08444C6.09833 8.9596 6.26778 8.88948 6.44444 8.88948C6.62111 8.88948 6.79056 8.9596 6.91556 9.08444ZM2.88889 0C2.12271 0 1.38791 0.304364 0.846136 0.846136C0.304364 1.38791 0 2.12271 0 2.88889V13.1111C0 13.8773 0.304364 14.6121 0.846136 15.1539C1.38791 15.6956 2.12271 16 2.88889 16H13.1111C13.8773 16 14.6121 15.6956 15.1539 15.1539C15.6956 14.6121 16 13.8773 16 13.1111V2.88889C16 2.12271 15.6956 1.38791 15.1539 0.846136C14.6121 0.304364 13.8773 0 13.1111 0H2.88889ZM1.33333 2.88889C1.33333 2.03022 2.03022 1.33333 2.88889 1.33333H13.1111C13.9698 1.33333 14.6667 2.03022 14.6667 2.88889V13.1111C14.6667 13.5237 14.5028 13.9193 14.2111 14.2111C13.9193 14.5028 13.5237 14.6667 13.1111 14.6667H2.88889C2.47633 14.6667 2.08067 14.5028 1.78895 14.2111C1.49722 13.9193 1.33333 13.5237 1.33333 13.1111V2.88889Z" fill="black"/>
</svg>
