<svg width="17" height="16" viewBox="0 0 17 16" fill="none" xmlns="http://www.w3.org/2000/svg">
<path d="M4.22089 4.27907C4.22089 3.14419 4.67172 2.05579 5.4742 1.25331C6.27668 0.450829 7.36508 0 8.49996 0C9.63484 0 10.7232 0.450829 11.5257 1.25331C12.3282 2.05579 12.779 3.14419 12.779 4.27907C12.779 5.41395 12.3282 6.50235 11.5257 7.30483C10.7232 8.10731 9.63484 8.55814 8.49996 8.55814C7.36508 8.55814 6.27668 8.10731 5.4742 7.30483C4.67172 6.50235 4.22089 5.41395 4.22089 4.27907ZM8.34963 9.6826C8.38167 9.67777 8.41398 9.67504 8.44638 9.67442H8.55354C8.58628 9.67442 8.61853 9.67715 8.65028 9.6826L14.0791 10.6374L14.1074 10.6433C15.1076 10.874 16.1822 11.5088 16.3913 12.742L16.3943 12.7635L16.4791 13.4162V13.4177C16.6756 14.9127 15.4901 16 14.0903 16C14.0594 15.9994 14.0286 15.997 13.998 15.9926H2.90963C1.50982 15.9926 0.323586 14.9046 0.520796 13.4087L0.605633 12.762L0.609354 12.7397C0.817726 11.5289 1.90126 10.8584 2.89921 10.6419L2.9208 10.6374L8.34963 9.6826Z" fill="#EF7E22"/>
</svg>
