<svg width="15" height="18" viewBox="0 0 15 18" fill="none" xmlns="http://www.w3.org/2000/svg">
<path d="M4.83339 4.55556H10.1667M4.83339 8.11111H10.1667M4.83339 11.6667H8.38894M1.27783 2.77778C1.27783 2.30628 1.46513 1.8541 1.79853 1.5207C2.13193 1.1873 2.58411 1 3.05561 1H11.9445C12.416 1 12.8682 1.1873 13.2016 1.5207C13.535 1.8541 13.7223 2.30628 13.7223 2.77778V15.2222C13.7223 15.6937 13.535 16.1459 13.2016 16.4793C12.8682 16.8127 12.416 17 11.9445 17H3.05561C2.58411 17 2.13193 16.8127 1.79853 16.4793C1.46513 16.1459 1.27783 15.6937 1.27783 15.2222V2.77778Z" stroke="black" stroke-width="1.2" stroke-linecap="round" stroke-linejoin="round"/>
</svg>
