<svg width="16" height="16" viewBox="0 0 16 16" fill="none" xmlns="http://www.w3.org/2000/svg">
<path d="M7.17953 1.99385V5.17744C7.17887 5.57394 7.06097 5.96139 6.84066 6.29105C6.62035 6.62072 6.30747 6.87786 5.94138 7.03015C5.69922 7.13026 5.43951 7.18103 5.17748 7.17949H1.99389C1.46434 7.17732 0.957211 6.96543 0.583526 6.59021C0.209842 6.21498 3.85804e-05 5.70699 4.30278e-05 5.17744V2.00205C3.85804e-05 1.47249 0.209842 0.964503 0.583526 0.58928C0.957211 0.214058 1.46434 0.00217032 1.99389 0H5.17748C5.70704 -4.44733e-06 6.21503 0.209799 6.59025 0.583483C6.96547 0.957168 7.17736 1.46429 7.17953 1.99385ZM16 2.00205V5.17744C16.0018 5.43961 15.9511 5.69949 15.8511 5.94183C15.7511 6.18418 15.6036 6.40411 15.4175 6.58872C15.2341 6.77712 15.0146 6.92655 14.7721 7.02806C14.5296 7.12958 14.2691 7.18108 14.0062 7.17949H10.8226C10.427 7.17898 10.0404 7.06177 9.71114 6.84255C9.38187 6.62333 9.12459 6.31184 8.97153 5.94708C8.87011 5.70325 8.81877 5.44151 8.82056 5.17744V2.00205C8.81989 1.7393 8.87182 1.47907 8.97328 1.23669C9.07474 0.994317 9.22368 0.774697 9.41133 0.590769C9.59581 0.403864 9.81553 0.25541 10.0578 0.154003C10.3 0.052597 10.56 0.00025232 10.8226 0H14.0062C14.5358 0.00217032 15.0429 0.214058 15.4166 0.58928C15.7902 0.964503 16 1.47249 16 2.00205ZM7.17953 10.8308V14.0062C7.17736 14.5357 6.96547 15.0428 6.59025 15.4165C6.21503 15.7902 5.70704 16 5.17748 16H1.99389C1.46515 15.999 0.958116 15.7897 0.582607 15.4174C0.396445 15.2328 0.249022 15.0129 0.148984 14.7706C0.0489472 14.5282 -0.00169005 14.2683 4.30278e-05 14.0062V10.8308C-0.00169005 10.5686 0.0489472 10.3087 0.148984 10.0664C0.249022 9.82403 0.396445 9.6041 0.582607 9.41949C0.956454 9.04273 1.46318 8.82767 1.99389 8.82051H5.17748C5.70854 8.82483 6.21651 9.03826 6.59127 9.41456C6.96603 9.79086 7.17739 10.2997 7.17953 10.8308ZM16 12.4144C15.9984 13.1228 15.787 13.8149 15.3923 14.4033C14.9977 14.9917 14.4376 15.45 13.7828 15.7204C13.1279 15.9908 12.4077 16.0611 11.7129 15.9225C11.0181 15.7839 10.3799 15.4425 9.87898 14.9416C9.37801 14.4406 9.03668 13.8025 8.89807 13.1077C8.75945 12.4129 8.82977 11.6926 9.10014 11.0378C9.37051 10.3829 9.82882 9.82284 10.4172 9.42822C11.0056 9.0336 11.6977 8.82214 12.4062 8.82051C13.1171 8.82249 13.8117 9.03433 14.4027 9.42947C14.9937 9.8246 15.4549 10.3854 15.7285 11.0416C15.909 11.4765 16.0009 11.9434 16 12.4144Z" fill="#EF7E22"/>
</svg>
