<svg width="16" height="16" viewBox="0 0 16 16" fill="none" xmlns="http://www.w3.org/2000/svg">
<path d="M0 2.88889C0 2.12271 0.304364 1.38791 0.846136 0.846136C1.38791 0.304364 2.12271 0 2.88889 0H13.1111C13.8773 0 14.6121 0.304364 15.1539 0.846136C15.6956 1.38791 16 2.12271 16 2.88889V13.1111C16 13.8773 15.6956 14.6121 15.1539 15.1539C14.6121 15.6956 13.8773 16 13.1111 16H2.88889C2.12271 16 1.38791 15.6956 0.846136 15.1539C0.304364 14.6121 0 13.8773 0 13.1111V2.88889ZM8.44444 5.55556C8.44444 5.92356 8.74311 6.22222 9.11111 6.22222H12.2222C12.399 6.22222 12.5686 6.15198 12.6936 6.02696C12.8187 5.90194 12.8889 5.73237 12.8889 5.55556C12.8889 5.37874 12.8187 5.20918 12.6936 5.08415C12.5686 4.95913 12.399 4.88889 12.2222 4.88889H9.11111C8.9343 4.88889 8.76473 4.95913 8.63971 5.08415C8.51468 5.20918 8.44444 5.37874 8.44444 5.55556ZM9.11111 9.77778C8.9343 9.77778 8.76473 9.84802 8.63971 9.97304C8.51468 10.0981 8.44444 10.2676 8.44444 10.4444C8.44444 10.6213 8.51468 10.7908 8.63971 10.9158C8.76473 11.0409 8.9343 11.1111 9.11111 11.1111H12.2222C12.399 11.1111 12.5686 11.0409 12.6936 10.9158C12.8187 10.7908 12.8889 10.6213 12.8889 10.4444C12.8889 10.2676 12.8187 10.0981 12.6936 9.97304C12.5686 9.84802 12.399 9.77778 12.2222 9.77778H9.11111ZM6.91556 5.13778C6.98105 5.07674 7.03359 5.00314 7.07003 4.92137C7.10646 4.83959 7.12606 4.75131 7.12764 4.6618C7.12922 4.57228 7.11275 4.48337 7.07922 4.40036C7.04569 4.31735 6.99578 4.24194 6.93248 4.17863C6.86917 4.11533 6.79377 4.06542 6.71075 4.03189C6.62774 3.99836 6.53883 3.98189 6.44931 3.98347C6.3598 3.98505 6.27152 4.00465 6.18974 4.04108C6.10797 4.07752 6.03437 4.13006 5.97333 4.19556L4.66667 5.50222L4.24889 5.08444C4.12251 4.96668 3.95536 4.90257 3.78265 4.90562C3.60993 4.90867 3.44515 4.97864 3.323 5.10078C3.20086 5.22293 3.13089 5.38771 3.12784 5.56042C3.1248 5.73314 3.18891 5.90029 3.30667 6.02667L4.19556 6.91556C4.32056 7.0404 4.49 7.11052 4.66667 7.11052C4.84333 7.11052 5.01278 7.0404 5.13778 6.91556L6.91556 5.13778ZM6.91556 9.08444C6.79056 8.9596 6.62111 8.88948 6.44444 8.88948C6.26778 8.88948 6.09833 8.9596 5.97333 9.08444L4.66667 10.3911L4.24889 9.97333C4.12251 9.85557 3.95536 9.79146 3.78265 9.79451C3.60993 9.79756 3.44515 9.86753 3.323 9.98967C3.20086 10.1118 3.13089 10.2766 3.12784 10.4493C3.1248 10.622 3.18891 10.7892 3.30667 10.9156L4.19556 11.8044C4.32056 11.9293 4.49 11.9994 4.66667 11.9994C4.84333 11.9994 5.01278 11.9293 5.13778 11.8044L6.91556 10.0267C7.0404 9.90167 7.11052 9.73222 7.11052 9.55556C7.11052 9.37889 7.0404 9.20944 6.91556 9.08444Z" fill="#EF7E22"/>
</svg>
