<svg width="350" height="108" viewBox="0 0 350 108" fill="none" xmlns="http://www.w3.org/2000/svg">
<g filter="url(#filter0_d_10_836)">
<rect x="4" y="4" width="342" height="100" rx="12" fill="white"/>
<path d="M16.348 25L19.3 16.156H20.836L23.788 25H22.528L21.748 22.684H18.364L17.596 25H16.348ZM18.652 21.592H21.448L20.056 17.212L18.652 21.592ZM27.2168 25.072C27.0488 25.072 26.8488 25.068 26.6168 25.06C26.3848 25.052 26.1448 25.036 25.8968 25.012C25.6568 24.996 25.4328 24.976 25.2248 24.952C25.0248 24.928 24.8648 24.9 24.7448 24.868V24.148H27.4448C27.6768 24.148 27.8768 24.132 28.0448 24.1C28.2128 24.06 28.3408 23.98 28.4288 23.86C28.5248 23.74 28.5728 23.564 28.5728 23.332V23.068C28.5728 22.828 28.4928 22.64 28.3328 22.504C28.1728 22.368 27.9088 22.3 27.5408 22.3H26.6048C26.2288 22.3 25.8928 22.252 25.5968 22.156C25.3088 22.052 25.0808 21.88 24.9128 21.64C24.7528 21.4 24.6728 21.076 24.6728 20.668V20.32C24.6728 19.912 24.7488 19.576 24.9008 19.312C25.0608 19.048 25.3128 18.852 25.6568 18.724C26.0008 18.588 26.4568 18.52 27.0248 18.52C27.2648 18.52 27.5288 18.532 27.8168 18.556C28.1128 18.572 28.4008 18.596 28.6808 18.628C28.9608 18.66 29.1848 18.696 29.3528 18.736V19.456H26.8088C26.4568 19.456 26.1848 19.516 25.9928 19.636C25.8088 19.756 25.7168 19.984 25.7168 20.32V20.56C25.7168 20.768 25.7608 20.928 25.8488 21.04C25.9368 21.152 26.0608 21.224 26.2208 21.256C26.3888 21.288 26.5848 21.304 26.8088 21.304H27.7688C28.3768 21.304 28.8368 21.448 29.1488 21.736C29.4608 22.016 29.6168 22.412 29.6168 22.924V23.416C29.6168 23.848 29.5168 24.184 29.3168 24.424C29.1168 24.664 28.8368 24.832 28.4768 24.928C28.1248 25.024 27.7048 25.072 27.2168 25.072ZM33.2285 25.072C33.0605 25.072 32.8605 25.068 32.6285 25.06C32.3965 25.052 32.1565 25.036 31.9085 25.012C31.6685 24.996 31.4445 24.976 31.2365 24.952C31.0365 24.928 30.8765 24.9 30.7565 24.868V24.148H33.4565C33.6885 24.148 33.8885 24.132 34.0565 24.1C34.2245 24.06 34.3525 23.98 34.4405 23.86C34.5365 23.74 34.5845 23.564 34.5845 23.332V23.068C34.5845 22.828 34.5045 22.64 34.3445 22.504C34.1845 22.368 33.9205 22.3 33.5525 22.3H32.6165C32.2405 22.3 31.9045 22.252 31.6085 22.156C31.3205 22.052 31.0925 21.88 30.9245 21.64C30.7645 21.4 30.6845 21.076 30.6845 20.668V20.32C30.6845 19.912 30.7605 19.576 30.9125 19.312C31.0725 19.048 31.3245 18.852 31.6685 18.724C32.0125 18.588 32.4685 18.52 33.0365 18.52C33.2765 18.52 33.5405 18.532 33.8285 18.556C34.1245 18.572 34.4125 18.596 34.6925 18.628C34.9725 18.66 35.1965 18.696 35.3645 18.736V19.456H32.8205C32.4685 19.456 32.1965 19.516 32.0045 19.636C31.8205 19.756 31.7285 19.984 31.7285 20.32V20.56C31.7285 20.768 31.7725 20.928 31.8605 21.04C31.9485 21.152 32.0725 21.224 32.2325 21.256C32.4005 21.288 32.5965 21.304 32.8205 21.304H33.7805C34.3885 21.304 34.8485 21.448 35.1605 21.736C35.4725 22.016 35.6285 22.412 35.6285 22.924V23.416C35.6285 23.848 35.5285 24.184 35.3285 24.424C35.1285 24.664 34.8485 24.832 34.4885 24.928C34.1365 25.024 33.7165 25.072 33.2285 25.072ZM37.1643 17.5C37.0203 17.5 36.9482 17.432 36.9482 17.296V16.288C36.9482 16.144 37.0203 16.072 37.1643 16.072H38.0523C38.1163 16.072 38.1643 16.092 38.1963 16.132C38.2283 16.172 38.2443 16.224 38.2443 16.288V17.296C38.2443 17.432 38.1803 17.5 38.0523 17.5H37.1643ZM36.9963 25V18.58H38.1963V25H36.9963ZM41.4751 27.952C41.0671 27.952 40.7031 27.892 40.3831 27.772C40.0711 27.66 39.8231 27.484 39.6391 27.244C39.4551 27.012 39.3631 26.724 39.3631 26.38V26.116C39.3631 25.756 39.4631 25.452 39.6631 25.204C39.8711 24.964 40.1311 24.78 40.4431 24.652C40.7551 24.524 41.0791 24.46 41.4151 24.46L41.7391 24.904C41.5231 24.904 41.3191 24.936 41.1271 25C40.9431 25.072 40.7911 25.18 40.6711 25.324C40.5591 25.476 40.5031 25.668 40.5031 25.9V26.128C40.5031 26.464 40.6151 26.708 40.8391 26.86C41.0711 27.012 41.3871 27.088 41.7871 27.088H43.1911C43.6151 27.088 43.9511 27.004 44.1991 26.836C44.4471 26.676 44.5711 26.424 44.5711 26.08V25.852C44.5711 25.66 44.5271 25.492 44.4391 25.348C44.3591 25.204 44.2271 25.092 44.0431 25.012C43.8591 24.94 43.6071 24.904 43.2871 24.904H41.5111C40.9431 24.904 40.5111 24.788 40.2151 24.556C39.9191 24.324 39.7711 24.032 39.7711 23.68C39.7711 23.36 39.8631 23.104 40.0471 22.912C40.2391 22.712 40.5071 22.576 40.8511 22.504C40.5631 22.376 40.3351 22.212 40.1671 22.012C40.0071 21.812 39.8951 21.596 39.8311 21.364C39.7671 21.124 39.7351 20.884 39.7351 20.644C39.7351 20.156 39.8351 19.76 40.0351 19.456C40.2351 19.152 40.5231 18.928 40.8991 18.784C41.2831 18.64 41.7391 18.568 42.2671 18.568H45.7231V19.252L44.4151 19.384C44.5111 19.456 44.6151 19.552 44.7271 19.672C44.8391 19.784 44.9351 19.94 45.0151 20.14C45.0951 20.34 45.1351 20.604 45.1351 20.932C45.1351 21.276 45.0591 21.596 44.9071 21.892C44.7631 22.188 44.5231 22.428 44.1871 22.612C43.8591 22.796 43.4111 22.888 42.8431 22.888H41.7871C41.4831 22.888 41.2431 22.932 41.0671 23.02C40.8911 23.108 40.8031 23.264 40.8031 23.488C40.8031 23.672 40.8711 23.8 41.0071 23.872C41.1431 23.944 41.2871 23.98 41.4391 23.98H43.4671C43.9551 23.98 44.3631 24.044 44.6911 24.172C45.0271 24.3 45.2791 24.496 45.4471 24.76C45.6151 25.024 45.6991 25.368 45.6991 25.792V26.02C45.6991 26.628 45.4991 27.1 45.0991 27.436C44.7071 27.78 44.1111 27.952 43.3111 27.952H41.4751ZM42.0031 21.964H42.7111C43.0711 21.964 43.3431 21.912 43.5271 21.808C43.7191 21.696 43.8511 21.552 43.9231 21.376C43.9951 21.2 44.0311 21.004 44.0311 20.788C44.0311 20.468 43.9791 20.216 43.8751 20.032C43.7711 19.84 43.6271 19.704 43.4431 19.624C43.2671 19.536 43.0511 19.492 42.7951 19.492H42.1231C41.7151 19.492 41.3951 19.584 41.1631 19.768C40.9391 19.952 40.8271 20.268 40.8271 20.716C40.8271 21.156 40.9311 21.476 41.1391 21.676C41.3471 21.868 41.6351 21.964 42.0031 21.964ZM46.8166 25V18.58H47.7766L48.0166 19.276C48.3046 19.068 48.6446 18.884 49.0366 18.724C49.4366 18.556 49.8486 18.472 50.2726 18.472C50.7526 18.472 51.1366 18.576 51.4246 18.784C51.7206 18.984 51.9326 19.252 52.0606 19.588C52.1886 19.924 52.2526 20.288 52.2526 20.68V25H51.0526V20.824C51.0526 20.568 51.0006 20.348 50.8966 20.164C50.8006 19.972 50.6646 19.824 50.4886 19.72C50.3126 19.616 50.0966 19.564 49.8406 19.564C49.6006 19.564 49.3766 19.588 49.1686 19.636C48.9686 19.684 48.7766 19.752 48.5926 19.84C48.4086 19.92 48.2166 20.02 48.0166 20.14V25H46.8166ZM53.8947 25V18.58H54.8547L55.0947 19.276C55.4067 19.06 55.7507 18.872 56.1267 18.712C56.5027 18.552 56.9347 18.472 57.4227 18.472C57.8227 18.472 58.1627 18.56 58.4427 18.736C58.7227 18.912 58.9347 19.136 59.0787 19.408C59.2707 19.264 59.5027 19.12 59.7747 18.976C60.0467 18.832 60.3387 18.712 60.6507 18.616C60.9627 18.52 61.2627 18.472 61.5507 18.472C62.0307 18.472 62.4187 18.572 62.7147 18.772C63.0187 18.964 63.2347 19.232 63.3627 19.576C63.4987 19.912 63.5667 20.296 63.5667 20.728V25H62.3667V20.824C62.3667 20.568 62.3147 20.348 62.2107 20.164C62.1147 19.972 61.9747 19.824 61.7907 19.72C61.6147 19.616 61.3987 19.564 61.1427 19.564C60.8227 19.564 60.4947 19.628 60.1587 19.756C59.8227 19.876 59.5147 20.024 59.2347 20.2C59.2667 20.304 59.2907 20.412 59.3067 20.524C59.3227 20.628 59.3307 20.732 59.3307 20.836V25H58.1307V20.824C58.1307 20.568 58.0787 20.348 57.9747 20.164C57.8787 19.972 57.7427 19.824 57.5667 19.72C57.3907 19.616 57.1747 19.564 56.9187 19.564C56.6787 19.564 56.4547 19.588 56.2467 19.636C56.0467 19.684 55.8547 19.752 55.6707 19.84C55.4867 19.92 55.2947 20.02 55.0947 20.14V25H53.8947ZM67.747 25.072C67.067 25.072 66.523 24.972 66.115 24.772C65.715 24.572 65.427 24.236 65.251 23.764C65.083 23.284 64.999 22.624 64.999 21.784C64.999 20.928 65.083 20.264 65.251 19.792C65.427 19.312 65.715 18.976 66.115 18.784C66.515 18.592 67.055 18.496 67.735 18.496C68.327 18.496 68.803 18.56 69.163 18.688C69.531 18.808 69.799 19.028 69.967 19.348C70.143 19.66 70.231 20.096 70.231 20.656C70.231 21.048 70.151 21.36 69.991 21.592C69.839 21.824 69.619 21.992 69.331 22.096C69.051 22.2 68.715 22.252 68.323 22.252H66.199C66.207 22.716 66.259 23.088 66.355 23.368C66.459 23.64 66.639 23.84 66.895 23.968C67.159 24.088 67.543 24.148 68.047 24.148H70.051V24.868C69.707 24.916 69.355 24.96 68.995 25C68.635 25.048 68.219 25.072 67.747 25.072ZM66.187 21.496H68.215C68.535 21.496 68.771 21.436 68.923 21.316C69.075 21.196 69.151 20.976 69.151 20.656C69.151 20.336 69.103 20.084 69.007 19.9C68.919 19.716 68.771 19.584 68.563 19.504C68.355 19.424 68.079 19.384 67.735 19.384C67.343 19.384 67.031 19.444 66.799 19.564C66.575 19.684 66.415 19.896 66.319 20.2C66.231 20.504 66.187 20.936 66.187 21.496ZM71.6955 25V18.58H72.6555L72.8955 19.276C73.1835 19.068 73.5235 18.884 73.9155 18.724C74.3155 18.556 74.7275 18.472 75.1515 18.472C75.6315 18.472 76.0155 18.576 76.3035 18.784C76.5995 18.984 76.8115 19.252 76.9395 19.588C77.0675 19.924 77.1315 20.288 77.1315 20.68V25H75.9315V20.824C75.9315 20.568 75.8795 20.348 75.7755 20.164C75.6795 19.972 75.5435 19.824 75.3675 19.72C75.1915 19.616 74.9755 19.564 74.7195 19.564C74.4795 19.564 74.2555 19.588 74.0475 19.636C73.8475 19.684 73.6555 19.752 73.4715 19.84C73.2875 19.92 73.0955 20.02 72.8955 20.14V25H71.6955ZM80.9936 25C80.5616 25 80.2016 24.932 79.9136 24.796C79.6336 24.652 79.4256 24.424 79.2896 24.112C79.1616 23.8 79.1016 23.384 79.1096 22.864L79.1576 19.564H78.1376V18.784L79.1816 18.58L79.3616 16.78H80.3096V18.58H82.0496V19.564H80.3096V22.852C80.3096 23.1 80.3336 23.3 80.3816 23.452C80.4296 23.604 80.4976 23.72 80.5856 23.8C80.6736 23.88 80.7696 23.94 80.8736 23.98C80.9776 24.012 81.0776 24.032 81.1736 24.04L81.9656 24.112V25H80.9936ZM85.5059 25.072C85.3379 25.072 85.1379 25.068 84.9059 25.06C84.6739 25.052 84.4339 25.036 84.1859 25.012C83.9459 24.996 83.7219 24.976 83.5139 24.952C83.3139 24.928 83.1539 24.9 83.0339 24.868V24.148H85.7339C85.9659 24.148 86.1659 24.132 86.3339 24.1C86.5019 24.06 86.6299 23.98 86.7179 23.86C86.8139 23.74 86.8619 23.564 86.8619 23.332V23.068C86.8619 22.828 86.7819 22.64 86.6219 22.504C86.4619 22.368 86.1979 22.3 85.8299 22.3H84.8939C84.5179 22.3 84.1819 22.252 83.8859 22.156C83.5979 22.052 83.3699 21.88 83.2019 21.64C83.0419 21.4 82.9619 21.076 82.9619 20.668V20.32C82.9619 19.912 83.0379 19.576 83.1899 19.312C83.3499 19.048 83.6019 18.852 83.9459 18.724C84.2899 18.588 84.7459 18.52 85.3139 18.52C85.5539 18.52 85.8179 18.532 86.1059 18.556C86.4019 18.572 86.6899 18.596 86.9699 18.628C87.2499 18.66 87.4739 18.696 87.6419 18.736V19.456H85.0979C84.7459 19.456 84.4739 19.516 84.2819 19.636C84.0979 19.756 84.0059 19.984 84.0059 20.32V20.56C84.0059 20.768 84.0499 20.928 84.1379 21.04C84.2259 21.152 84.3499 21.224 84.5099 21.256C84.6779 21.288 84.8739 21.304 85.0979 21.304H86.0579C86.6659 21.304 87.1259 21.448 87.4379 21.736C87.7499 22.016 87.9059 22.412 87.9059 22.924V23.416C87.9059 23.848 87.8059 24.184 87.6059 24.424C87.4059 24.664 87.1259 24.832 86.7659 24.928C86.4139 25.024 85.9939 25.072 85.5059 25.072ZM92.5451 25.012C92.4091 25.012 92.3411 24.944 92.3411 24.808V23.764C92.3411 23.62 92.4091 23.548 92.5451 23.548H93.2291C93.3731 23.548 93.4451 23.62 93.4451 23.764V24.808C93.4451 24.88 93.4251 24.932 93.3851 24.964C93.3451 24.996 93.2931 25.012 93.2291 25.012H92.5451ZM92.5451 20.032C92.4091 20.032 92.3411 19.964 92.3411 19.828V18.784C92.3411 18.64 92.4091 18.568 92.5451 18.568H93.2291C93.3731 18.568 93.4451 18.64 93.4451 18.784V19.828C93.4451 19.9 93.4251 19.952 93.3851 19.984C93.3451 20.016 93.2931 20.032 93.2291 20.032H92.5451Z" fill="black"/>
<line x1="16" y1="43.5" x2="321" y2="43.5" stroke="black" stroke-opacity="0.2"/>
<line x1="16" y1="58.5" x2="321" y2="58.5" stroke="black" stroke-opacity="0.2"/>
<line x1="16" y1="73.5" x2="321" y2="73.5" stroke="black" stroke-opacity="0.2"/>
<line x1="16" y1="88.5" x2="321" y2="88.5" stroke="black" stroke-opacity="0.2"/>
</g>
<defs>
<filter id="filter0_d_10_836" x="0" y="0" width="350" height="108" filterUnits="userSpaceOnUse" color-interpolation-filters="sRGB">
<feFlood flood-opacity="0" result="BackgroundImageFix"/>
<feColorMatrix in="SourceAlpha" type="matrix" values="0 0 0 0 0 0 0 0 0 0 0 0 0 0 0 0 0 0 127 0" result="hardAlpha"/>
<feOffset/>
<feGaussianBlur stdDeviation="2"/>
<feComposite in2="hardAlpha" operator="out"/>
<feColorMatrix type="matrix" values="0 0 0 0 0 0 0 0 0 0 0 0 0 0 0 0 0 0 0.28 0"/>
<feBlend mode="normal" in2="BackgroundImageFix" result="effect1_dropShadow_10_836"/>
<feBlend mode="normal" in="SourceGraphic" in2="effect1_dropShadow_10_836" result="shape"/>
</filter>
</defs>
</svg>
