<svg width="280" height="36" viewBox="0 0 280 36" fill="none" xmlns="http://www.w3.org/2000/svg">
<rect width="280" height="36" rx="12" fill="#EF7E22"/>
<rect x="3" y="2" width="140" height="32" rx="12" fill="white"/>
<path d="M46.3477 23V11.208H47.9637V16.504H53.4197V11.208H55.0197V23H53.4197V17.944H47.9637V23H46.3477ZM60.8033 23.096C60.1526 23.096 59.5873 23.0267 59.1073 22.888C58.638 22.7493 58.2486 22.52 57.9393 22.2C57.63 21.8693 57.4006 21.4213 57.2513 20.856C57.102 20.2907 57.0273 19.576 57.0273 18.712C57.0273 17.816 57.102 17.0853 57.2513 16.52C57.4006 15.944 57.63 15.496 57.9393 15.176C58.2486 14.856 58.6433 14.6373 59.1233 14.52C59.6033 14.392 60.1633 14.328 60.8033 14.328C61.4433 14.328 62.0033 14.392 62.4833 14.52C62.9633 14.648 63.358 14.872 63.6673 15.192C63.9766 15.512 64.206 15.96 64.3553 16.536C64.5046 17.1013 64.5793 17.8267 64.5793 18.712C64.5793 19.5867 64.5046 20.312 64.3553 20.888C64.206 21.4533 63.9766 21.896 63.6673 22.216C63.3686 22.536 62.9793 22.7653 62.4993 22.904C62.0193 23.032 61.454 23.096 60.8033 23.096ZM60.8033 21.784C61.1553 21.784 61.4646 21.752 61.7313 21.688C62.0086 21.624 62.238 21.4907 62.4193 21.288C62.6006 21.0747 62.7393 20.76 62.8353 20.344C62.9313 19.928 62.9793 19.3787 62.9793 18.696C62.9793 18.0133 62.9313 17.4693 62.8353 17.064C62.7393 16.648 62.6006 16.3387 62.4193 16.136C62.238 15.9333 62.0086 15.8 61.7313 15.736C61.4646 15.6613 61.1553 15.624 60.8033 15.624C60.4406 15.624 60.1206 15.6613 59.8433 15.736C59.5766 15.8 59.3526 15.9333 59.1713 16.136C59.0006 16.3387 58.8673 16.648 58.7713 17.064C58.686 17.4693 58.6433 18.0133 58.6433 18.696C58.6433 19.3787 58.686 19.928 58.7713 20.344C58.8673 20.76 59.0006 21.0747 59.1713 21.288C59.3526 21.4907 59.5766 21.624 59.8433 21.688C60.1206 21.752 60.4406 21.784 60.8033 21.784ZM68.9181 23.016C68.3954 23.016 67.9527 22.9253 67.5901 22.744C67.2381 22.5627 66.9714 22.2747 66.7901 21.88C66.6194 21.4747 66.5341 20.9307 66.5341 20.248V10.792H68.1341V20.04C68.1341 20.488 68.1767 20.8347 68.2621 21.08C68.3581 21.3147 68.4861 21.48 68.6461 21.576C68.8167 21.672 69.0141 21.736 69.2381 21.768L70.0381 21.864V23.016H68.9181ZM71.5549 13C71.3629 13 71.2669 12.9093 71.2669 12.728V11.384C71.2669 11.192 71.3629 11.096 71.5549 11.096H72.7389C72.8243 11.096 72.8883 11.1227 72.9309 11.176C72.9736 11.2293 72.9949 11.2987 72.9949 11.384V12.728C72.9949 12.9093 72.9096 13 72.7389 13H71.5549ZM71.3309 23V14.44H72.9309V23H71.3309ZM77.9587 23.096C77.2654 23.096 76.6894 22.9467 76.2307 22.648C75.7827 22.3493 75.4467 21.8853 75.2227 21.256C74.9987 20.616 74.8867 19.7947 74.8867 18.792C74.8867 17.736 74.988 16.8827 75.1907 16.232C75.404 15.5707 75.7454 15.0907 76.2147 14.792C76.684 14.4827 77.3187 14.328 78.1187 14.328C78.5667 14.328 79.0094 14.376 79.4467 14.472C79.8947 14.568 80.284 14.6747 80.6147 14.792V10.792H82.2147V23H80.9027L80.6147 22.152C80.444 22.3013 80.2094 22.4507 79.9107 22.6C79.612 22.7387 79.292 22.856 78.9507 22.952C78.6094 23.048 78.2787 23.096 77.9587 23.096ZM78.4707 21.784C78.908 21.784 79.3027 21.7147 79.6547 21.576C80.0174 21.4373 80.3374 21.2933 80.6147 21.144V15.944C80.284 15.848 79.9587 15.7627 79.6387 15.688C79.3294 15.6027 78.9827 15.56 78.5987 15.56C78.0974 15.56 77.692 15.6507 77.3827 15.832C77.0734 16.0133 76.8494 16.3333 76.7107 16.792C76.572 17.2507 76.5027 17.8907 76.5027 18.712C76.5027 19.4693 76.5667 20.0773 76.6947 20.536C76.8227 20.984 77.0307 21.304 77.3187 21.496C77.6174 21.688 78.0014 21.784 78.4707 21.784ZM86.1211 23.096C85.4917 23.096 84.9691 22.9093 84.5531 22.536C84.1477 22.152 83.9451 21.624 83.9451 20.952V20.28C83.9451 19.6187 84.1691 19.08 84.6171 18.664C85.0757 18.2373 85.7637 18.024 86.6811 18.024H89.3531V17.128C89.3531 16.7973 89.2944 16.52 89.1771 16.296C89.0704 16.0613 88.8677 15.8853 88.5691 15.768C88.2704 15.6507 87.8277 15.592 87.2411 15.592H84.6171V14.648C85.0011 14.5627 85.4491 14.488 85.9611 14.424C86.4837 14.36 87.0917 14.3227 87.7851 14.312C88.4891 14.312 89.0757 14.4027 89.5451 14.584C90.0251 14.7547 90.3824 15.0427 90.6171 15.448C90.8517 15.8427 90.9691 16.3707 90.9691 17.032V23H89.7051L89.4331 22.056C89.3691 22.0987 89.2357 22.1787 89.0331 22.296C88.8304 22.4027 88.5691 22.52 88.2491 22.648C87.9397 22.776 87.5984 22.8827 87.2251 22.968C86.8624 23.0533 86.4944 23.096 86.1211 23.096ZM86.8571 21.928C87.0171 21.9387 87.2037 21.9227 87.4171 21.88C87.6411 21.8373 87.8597 21.7893 88.0731 21.736C88.2971 21.672 88.4997 21.608 88.6811 21.544C88.8731 21.48 89.0277 21.4267 89.1451 21.384C89.2731 21.3307 89.3424 21.2987 89.3531 21.288V18.824L87.1131 18.92C86.5584 18.952 86.1584 19.0907 85.9131 19.336C85.6784 19.5813 85.5611 19.9013 85.5611 20.296V20.68C85.5611 20.9893 85.6251 21.24 85.7531 21.432C85.8811 21.6133 86.0411 21.7413 86.2331 21.816C86.4357 21.8907 86.6437 21.928 86.8571 21.928ZM95.5594 26.792L96.5994 23C96.2581 22.9893 95.9328 22.92 95.6234 22.792C95.3141 22.6533 95.0368 22.4347 94.7914 22.136C94.5568 21.8267 94.3648 21.416 94.2154 20.904L92.2954 14.44H93.9754L95.7034 20.568C95.7994 20.856 95.9061 21.0747 96.0234 21.224C96.1514 21.3733 96.2741 21.48 96.3914 21.544C96.5194 21.5973 96.6314 21.6293 96.7274 21.64C96.8234 21.6507 96.8821 21.656 96.9034 21.656L98.9034 14.44H100.551L97.6074 25.208L96.8394 26.792H95.5594Z" fill="black"/>
<path d="M162.744 23L159.784 11.208H161.448L163.784 20.712L166.472 11.208H168.04L170.712 20.712L173.064 11.208H174.712L171.752 23H170.056L167.256 13.496L164.44 23H162.744ZM179.147 23.096C178.496 23.096 177.931 23.0267 177.451 22.888C176.982 22.7493 176.592 22.52 176.283 22.2C175.974 21.8693 175.744 21.4213 175.595 20.856C175.446 20.2907 175.371 19.576 175.371 18.712C175.371 17.816 175.446 17.0853 175.595 16.52C175.744 15.944 175.974 15.496 176.283 15.176C176.592 14.856 176.987 14.6373 177.467 14.52C177.947 14.392 178.507 14.328 179.147 14.328C179.787 14.328 180.347 14.392 180.827 14.52C181.307 14.648 181.702 14.872 182.011 15.192C182.32 15.512 182.55 15.96 182.699 16.536C182.848 17.1013 182.923 17.8267 182.923 18.712C182.923 19.5867 182.848 20.312 182.699 20.888C182.55 21.4533 182.32 21.896 182.011 22.216C181.712 22.536 181.323 22.7653 180.843 22.904C180.363 23.032 179.798 23.096 179.147 23.096ZM179.147 21.784C179.499 21.784 179.808 21.752 180.075 21.688C180.352 21.624 180.582 21.4907 180.763 21.288C180.944 21.0747 181.083 20.76 181.179 20.344C181.275 19.928 181.323 19.3787 181.323 18.696C181.323 18.0133 181.275 17.4693 181.179 17.064C181.083 16.648 180.944 16.3387 180.763 16.136C180.582 15.9333 180.352 15.8 180.075 15.736C179.808 15.6613 179.499 15.624 179.147 15.624C178.784 15.624 178.464 15.6613 178.187 15.736C177.92 15.8 177.696 15.9333 177.515 16.136C177.344 16.3387 177.211 16.648 177.115 17.064C177.03 17.4693 176.987 18.0133 176.987 18.696C176.987 19.3787 177.03 19.928 177.115 20.344C177.211 20.76 177.344 21.0747 177.515 21.288C177.696 21.4907 177.92 21.624 178.187 21.688C178.464 21.752 178.784 21.784 179.147 21.784ZM184.878 23V14.44H186.11L186.478 15.88C186.84 15.4427 187.246 15.0747 187.694 14.776C188.142 14.4773 188.664 14.328 189.262 14.328C189.4 14.328 189.534 14.3387 189.662 14.36C189.79 14.3707 189.912 14.392 190.03 14.424V16.072C189.88 16.0507 189.726 16.0347 189.566 16.024C189.406 16.0027 189.24 15.992 189.07 15.992C188.707 15.992 188.382 16.0347 188.094 16.12C187.806 16.2053 187.528 16.3387 187.262 16.52C187.006 16.6907 186.744 16.904 186.478 17.16V23H184.878ZM191.534 23V10.792H193.134V17.72H194.302L196.686 14.44H198.35L195.486 18.44L198.558 23H196.878L194.254 19.16H193.134V23H191.534ZM200.102 13C199.91 13 199.814 12.9093 199.814 12.728V11.384C199.814 11.192 199.91 11.096 200.102 11.096H201.286C201.371 11.096 201.435 11.1227 201.478 11.176C201.52 11.2293 201.542 11.2987 201.542 11.384V12.728C201.542 12.9093 201.456 13 201.286 13H200.102ZM199.878 23V14.44H201.478V23H199.878ZM203.722 23V14.44H205.002L205.322 15.368C205.706 15.0907 206.159 14.8453 206.682 14.632C207.215 14.408 207.764 14.296 208.33 14.296C208.97 14.296 209.482 14.4347 209.866 14.712C210.26 14.9787 210.543 15.336 210.714 15.784C210.884 16.232 210.97 16.7173 210.97 17.24V23H209.37V17.432C209.37 17.0907 209.3 16.7973 209.162 16.552C209.034 16.296 208.852 16.0987 208.618 15.96C208.383 15.8213 208.095 15.752 207.754 15.752C207.434 15.752 207.135 15.784 206.858 15.848C206.591 15.912 206.335 16.0027 206.09 16.12C205.844 16.2267 205.588 16.36 205.322 16.52V23H203.722ZM215.287 26.936C214.743 26.936 214.258 26.856 213.831 26.696C213.415 26.5467 213.084 26.312 212.839 25.992C212.594 25.6827 212.471 25.2987 212.471 24.84V24.488C212.471 24.008 212.604 23.6027 212.871 23.272C213.148 22.952 213.495 22.7067 213.911 22.536C214.327 22.3653 214.759 22.28 215.207 22.28L215.639 22.872C215.351 22.872 215.079 22.9147 214.823 23C214.578 23.096 214.375 23.24 214.215 23.432C214.066 23.6347 213.991 23.8907 213.991 24.2V24.504C213.991 24.952 214.14 25.2773 214.439 25.48C214.748 25.6827 215.17 25.784 215.703 25.784H217.575C218.14 25.784 218.588 25.672 218.919 25.448C219.25 25.2347 219.415 24.8987 219.415 24.44V24.136C219.415 23.88 219.356 23.656 219.239 23.464C219.132 23.272 218.956 23.1227 218.711 23.016C218.466 22.92 218.13 22.872 217.703 22.872H215.335C214.578 22.872 214.002 22.7173 213.607 22.408C213.212 22.0987 213.015 21.7093 213.015 21.24C213.015 20.8133 213.138 20.472 213.383 20.216C213.639 19.9493 213.996 19.768 214.455 19.672C214.071 19.5013 213.767 19.2827 213.543 19.016C213.33 18.7493 213.18 18.4613 213.095 18.152C213.01 17.832 212.967 17.512 212.967 17.192C212.967 16.5413 213.1 16.0133 213.367 15.608C213.634 15.2027 214.018 14.904 214.519 14.712C215.031 14.52 215.639 14.424 216.343 14.424H220.951V15.336L219.207 15.512C219.335 15.608 219.474 15.736 219.623 15.896C219.772 16.0453 219.9 16.2533 220.007 16.52C220.114 16.7867 220.167 17.1387 220.167 17.576C220.167 18.0347 220.066 18.4613 219.863 18.856C219.671 19.2507 219.351 19.5707 218.903 19.816C218.466 20.0613 217.868 20.184 217.111 20.184H215.703C215.298 20.184 214.978 20.2427 214.743 20.36C214.508 20.4773 214.391 20.6853 214.391 20.984C214.391 21.2293 214.482 21.4 214.663 21.496C214.844 21.592 215.036 21.64 215.239 21.64H217.943C218.594 21.64 219.138 21.7253 219.575 21.896C220.023 22.0667 220.359 22.328 220.583 22.68C220.807 23.032 220.919 23.4907 220.919 24.056V24.36C220.919 25.1707 220.652 25.8 220.119 26.248C219.596 26.7067 218.802 26.936 217.735 26.936H215.287ZM215.991 18.952H216.935C217.415 18.952 217.778 18.8827 218.023 18.744C218.279 18.5947 218.455 18.4027 218.551 18.168C218.647 17.9333 218.695 17.672 218.695 17.384C218.695 16.9573 218.626 16.6213 218.487 16.376C218.348 16.12 218.156 15.9387 217.911 15.832C217.676 15.7147 217.388 15.656 217.047 15.656H216.151C215.607 15.656 215.18 15.7787 214.871 16.024C214.572 16.2693 214.423 16.6907 214.423 17.288C214.423 17.8747 214.562 18.3013 214.839 18.568C215.116 18.824 215.5 18.952 215.991 18.952ZM226.707 23V11.208H231.475C232.211 11.208 232.83 11.3413 233.331 11.608C233.832 11.8747 234.238 12.264 234.547 12.776C234.856 13.2773 235.08 13.896 235.219 14.632C235.358 15.3573 235.427 16.184 235.427 17.112C235.427 18.3707 235.278 19.4373 234.979 20.312C234.691 21.1867 234.254 21.8533 233.667 22.312C233.08 22.7707 232.35 23 231.475 23H226.707ZM228.323 21.56H231.331C231.918 21.56 232.392 21.384 232.755 21.032C233.118 20.6693 233.384 20.1573 233.555 19.496C233.726 18.824 233.811 18.0293 233.811 17.112C233.811 16.2693 233.763 15.5653 233.667 15C233.571 14.424 233.422 13.9653 233.219 13.624C233.016 13.272 232.755 13.0213 232.435 12.872C232.126 12.7227 231.758 12.648 231.331 12.648H228.323V21.56ZM238.98 23.096C238.351 23.096 237.828 22.9093 237.412 22.536C237.007 22.152 236.804 21.624 236.804 20.952V20.28C236.804 19.6187 237.028 19.08 237.476 18.664C237.935 18.2373 238.623 18.024 239.54 18.024H242.212V17.128C242.212 16.7973 242.154 16.52 242.036 16.296C241.93 16.0613 241.727 15.8853 241.428 15.768C241.13 15.6507 240.687 15.592 240.1 15.592H237.476V14.648C237.86 14.5627 238.308 14.488 238.82 14.424C239.343 14.36 239.951 14.3227 240.644 14.312C241.348 14.312 241.935 14.4027 242.404 14.584C242.884 14.7547 243.242 15.0427 243.476 15.448C243.711 15.8427 243.828 16.3707 243.828 17.032V23H242.564L242.292 22.056C242.228 22.0987 242.095 22.1787 241.892 22.296C241.69 22.4027 241.428 22.52 241.108 22.648C240.799 22.776 240.458 22.8827 240.084 22.968C239.722 23.0533 239.354 23.096 238.98 23.096ZM239.716 21.928C239.876 21.9387 240.063 21.9227 240.276 21.88C240.5 21.8373 240.719 21.7893 240.932 21.736C241.156 21.672 241.359 21.608 241.54 21.544C241.732 21.48 241.887 21.4267 242.004 21.384C242.132 21.3307 242.202 21.2987 242.212 21.288V18.824L239.972 18.92C239.418 18.952 239.018 19.0907 238.772 19.336C238.538 19.5813 238.42 19.9013 238.42 20.296V20.68C238.42 20.9893 238.484 21.24 238.612 21.432C238.74 21.6133 238.9 21.7413 239.092 21.816C239.295 21.8907 239.503 21.928 239.716 21.928ZM248.419 26.792L249.459 23C249.117 22.9893 248.792 22.92 248.483 22.792C248.173 22.6533 247.896 22.4347 247.651 22.136C247.416 21.8267 247.224 21.416 247.075 20.904L245.155 14.44H246.835L248.563 20.568C248.659 20.856 248.765 21.0747 248.883 21.224C249.011 21.3733 249.133 21.48 249.251 21.544C249.379 21.5973 249.491 21.6293 249.587 21.64C249.683 21.6507 249.741 21.656 249.763 21.656L251.763 14.44H253.411L250.467 25.208L249.699 26.792H248.419Z" fill="white"/>
</svg>
