<svg width="350" height="108" viewBox="0 0 350 108" fill="none" xmlns="http://www.w3.org/2000/svg">
<g filter="url(#filter0_d_10_843)">
<rect x="4" y="4" width="342" height="100" rx="12" fill="white"/>
<path d="M16.876 25V16.156H20.416C20.72 16.156 21.012 16.192 21.292 16.264C21.58 16.336 21.836 16.468 22.06 16.66C22.284 16.852 22.46 17.124 22.588 17.476C22.716 17.82 22.78 18.272 22.78 18.832C22.78 19.288 22.732 19.668 22.636 19.972C22.54 20.276 22.412 20.52 22.252 20.704C22.1 20.88 21.928 21.016 21.736 21.112C21.552 21.2 21.368 21.268 21.184 21.316L22.948 25H21.724L20.092 21.484C19.972 21.484 19.824 21.484 19.648 21.484C19.48 21.476 19.3 21.472 19.108 21.472C18.924 21.472 18.74 21.468 18.556 21.46C18.38 21.452 18.224 21.448 18.088 21.448V25H16.876ZM18.088 20.512H20.224C20.416 20.512 20.592 20.492 20.752 20.452C20.912 20.404 21.052 20.32 21.172 20.2C21.3 20.072 21.4 19.9 21.472 19.684C21.544 19.46 21.58 19.176 21.58 18.832C21.58 18.496 21.544 18.224 21.472 18.016C21.4 17.808 21.3 17.648 21.172 17.536C21.044 17.424 20.9 17.348 20.74 17.308C20.58 17.26 20.408 17.236 20.224 17.236H18.088V20.512ZM26.6259 25.072C25.9459 25.072 25.4019 24.972 24.9939 24.772C24.5939 24.572 24.3059 24.236 24.1299 23.764C23.9619 23.284 23.8779 22.624 23.8779 21.784C23.8779 20.928 23.9619 20.264 24.1299 19.792C24.3059 19.312 24.5939 18.976 24.9939 18.784C25.3939 18.592 25.9339 18.496 26.6139 18.496C27.2059 18.496 27.6819 18.56 28.0419 18.688C28.4099 18.808 28.6779 19.028 28.8459 19.348C29.0219 19.66 29.1099 20.096 29.1099 20.656C29.1099 21.048 29.0299 21.36 28.8699 21.592C28.7179 21.824 28.4979 21.992 28.2099 22.096C27.9299 22.2 27.5939 22.252 27.2019 22.252H25.0779C25.0859 22.716 25.1379 23.088 25.2339 23.368C25.3379 23.64 25.5179 23.84 25.7739 23.968C26.0379 24.088 26.4219 24.148 26.9259 24.148H28.9299V24.868C28.5859 24.916 28.2339 24.96 27.8739 25C27.5139 25.048 27.0979 25.072 26.6259 25.072ZM25.0659 21.496H27.0939C27.4139 21.496 27.6499 21.436 27.8019 21.316C27.9539 21.196 28.0299 20.976 28.0299 20.656C28.0299 20.336 27.9819 20.084 27.8859 19.9C27.7979 19.716 27.6499 19.584 27.4419 19.504C27.2339 19.424 26.9579 19.384 26.6139 19.384C26.2219 19.384 25.9099 19.444 25.6779 19.564C25.4539 19.684 25.2939 19.896 25.1979 20.2C25.1099 20.504 25.0659 20.936 25.0659 21.496ZM30.5744 25V18.58H31.5344L31.7744 19.276C32.0864 19.06 32.4304 18.872 32.8064 18.712C33.1824 18.552 33.6144 18.472 34.1024 18.472C34.5024 18.472 34.8424 18.56 35.1224 18.736C35.4024 18.912 35.6144 19.136 35.7584 19.408C35.9504 19.264 36.1824 19.12 36.4544 18.976C36.7264 18.832 37.0184 18.712 37.3304 18.616C37.6424 18.52 37.9424 18.472 38.2304 18.472C38.7104 18.472 39.0984 18.572 39.3944 18.772C39.6984 18.964 39.9144 19.232 40.0424 19.576C40.1784 19.912 40.2464 20.296 40.2464 20.728V25H39.0464V20.824C39.0464 20.568 38.9944 20.348 38.8904 20.164C38.7944 19.972 38.6544 19.824 38.4704 19.72C38.2944 19.616 38.0784 19.564 37.8224 19.564C37.5024 19.564 37.1744 19.628 36.8384 19.756C36.5024 19.876 36.1944 20.024 35.9144 20.2C35.9464 20.304 35.9704 20.412 35.9864 20.524C36.0024 20.628 36.0104 20.732 36.0104 20.836V25H34.8104V20.824C34.8104 20.568 34.7584 20.348 34.6544 20.164C34.5584 19.972 34.4224 19.824 34.2464 19.72C34.0704 19.616 33.8544 19.564 33.5984 19.564C33.3584 19.564 33.1344 19.588 32.9264 19.636C32.7264 19.684 32.5344 19.752 32.3504 19.84C32.1664 19.92 31.9744 20.02 31.7744 20.14V25H30.5744ZM42.0627 17.5C41.9187 17.5 41.8467 17.432 41.8467 17.296V16.288C41.8467 16.144 41.9187 16.072 42.0627 16.072H42.9507C43.0147 16.072 43.0627 16.092 43.0947 16.132C43.1267 16.172 43.1427 16.224 43.1427 16.288V17.296C43.1427 17.432 43.0787 17.5 42.9507 17.5H42.0627ZM41.8947 25V18.58H43.0947V25H41.8947ZM44.7775 25V18.58H45.7375L45.9775 19.276C46.2655 19.068 46.6055 18.884 46.9975 18.724C47.3975 18.556 47.8095 18.472 48.2335 18.472C48.7135 18.472 49.0975 18.576 49.3855 18.784C49.6815 18.984 49.8935 19.252 50.0215 19.588C50.1495 19.924 50.2135 20.288 50.2135 20.68V25H49.0135V20.824C49.0135 20.568 48.9615 20.348 48.8575 20.164C48.7615 19.972 48.6255 19.824 48.4495 19.72C48.2735 19.616 48.0575 19.564 47.8015 19.564C47.5615 19.564 47.3375 19.588 47.1295 19.636C46.9295 19.684 46.7375 19.752 46.5535 19.84C46.3695 19.92 46.1775 20.02 45.9775 20.14V25H44.7775ZM53.9436 25.072C53.4236 25.072 52.9916 24.96 52.6476 24.736C52.3116 24.512 52.0596 24.164 51.8916 23.692C51.7236 23.212 51.6396 22.596 51.6396 21.844C51.6396 21.052 51.7156 20.412 51.8676 19.924C52.0276 19.428 52.2836 19.068 52.6356 18.844C52.9876 18.612 53.4636 18.496 54.0636 18.496C54.3996 18.496 54.7316 18.532 55.0596 18.604C55.3956 18.676 55.6876 18.756 55.9356 18.844V15.844H57.1356V25H56.1516L55.9356 24.364C55.8076 24.476 55.6316 24.588 55.4076 24.7C55.1836 24.804 54.9436 24.892 54.6876 24.964C54.4316 25.036 54.1836 25.072 53.9436 25.072ZM54.3276 24.088C54.6556 24.088 54.9516 24.036 55.2156 23.932C55.4876 23.828 55.7276 23.72 55.9356 23.608V19.708C55.6876 19.636 55.4436 19.572 55.2036 19.516C54.9716 19.452 54.7116 19.42 54.4236 19.42C54.0476 19.42 53.7436 19.488 53.5116 19.624C53.2796 19.76 53.1116 20 53.0076 20.344C52.9036 20.688 52.8516 21.168 52.8516 21.784C52.8516 22.352 52.8996 22.808 52.9956 23.152C53.0916 23.488 53.2476 23.728 53.4636 23.872C53.6876 24.016 53.9756 24.088 54.3276 24.088ZM61.3134 25.072C60.6334 25.072 60.0894 24.972 59.6814 24.772C59.2814 24.572 58.9934 24.236 58.8174 23.764C58.6494 23.284 58.5654 22.624 58.5654 21.784C58.5654 20.928 58.6494 20.264 58.8174 19.792C58.9934 19.312 59.2814 18.976 59.6814 18.784C60.0814 18.592 60.6214 18.496 61.3014 18.496C61.8934 18.496 62.3694 18.56 62.7294 18.688C63.0974 18.808 63.3654 19.028 63.5334 19.348C63.7094 19.66 63.7974 20.096 63.7974 20.656C63.7974 21.048 63.7174 21.36 63.5574 21.592C63.4054 21.824 63.1854 21.992 62.8974 22.096C62.6174 22.2 62.2814 22.252 61.8894 22.252H59.7654C59.7734 22.716 59.8254 23.088 59.9214 23.368C60.0254 23.64 60.2054 23.84 60.4614 23.968C60.7254 24.088 61.1094 24.148 61.6134 24.148H63.6174V24.868C63.2734 24.916 62.9214 24.96 62.5614 25C62.2014 25.048 61.7854 25.072 61.3134 25.072ZM59.7534 21.496H61.7814C62.1014 21.496 62.3374 21.436 62.4894 21.316C62.6414 21.196 62.7174 20.976 62.7174 20.656C62.7174 20.336 62.6694 20.084 62.5734 19.9C62.4854 19.716 62.3374 19.584 62.1294 19.504C61.9214 19.424 61.6454 19.384 61.3014 19.384C60.9094 19.384 60.5974 19.444 60.3654 19.564C60.1414 19.684 59.9814 19.896 59.8854 20.2C59.7974 20.504 59.7534 20.936 59.7534 21.496ZM65.2619 25V18.58H66.1859L66.4619 19.66C66.7339 19.332 67.0379 19.056 67.3739 18.832C67.7099 18.608 68.1019 18.496 68.5499 18.496C68.6539 18.496 68.7539 18.504 68.8499 18.52C68.9459 18.528 69.0379 18.544 69.1259 18.568V19.804C69.0139 19.788 68.8979 19.776 68.7779 19.768C68.6579 19.752 68.5339 19.744 68.4059 19.744C68.1339 19.744 67.8899 19.776 67.6739 19.84C67.4579 19.904 67.2499 20.004 67.0499 20.14C66.8579 20.268 66.6619 20.428 66.4619 20.62V25H65.2619ZM72.4981 25.072C72.3301 25.072 72.1301 25.068 71.8981 25.06C71.6661 25.052 71.4261 25.036 71.1781 25.012C70.9381 24.996 70.7141 24.976 70.5061 24.952C70.3061 24.928 70.1461 24.9 70.0261 24.868V24.148H72.7261C72.9581 24.148 73.1581 24.132 73.3261 24.1C73.4941 24.06 73.6221 23.98 73.7101 23.86C73.8061 23.74 73.8541 23.564 73.8541 23.332V23.068C73.8541 22.828 73.7741 22.64 73.6141 22.504C73.4541 22.368 73.1901 22.3 72.8221 22.3H71.8861C71.5101 22.3 71.1741 22.252 70.8781 22.156C70.5901 22.052 70.3621 21.88 70.1941 21.64C70.0341 21.4 69.9541 21.076 69.9541 20.668V20.32C69.9541 19.912 70.0301 19.576 70.1821 19.312C70.3421 19.048 70.5941 18.852 70.9381 18.724C71.2821 18.588 71.7381 18.52 72.3061 18.52C72.5461 18.52 72.8101 18.532 73.0981 18.556C73.3941 18.572 73.6821 18.596 73.9621 18.628C74.2421 18.66 74.4661 18.696 74.6341 18.736V19.456H72.0901C71.7381 19.456 71.4661 19.516 71.2741 19.636C71.0901 19.756 70.9981 19.984 70.9981 20.32V20.56C70.9981 20.768 71.0421 20.928 71.1301 21.04C71.2181 21.152 71.3421 21.224 71.5021 21.256C71.6701 21.288 71.8661 21.304 72.0901 21.304H73.0501C73.6581 21.304 74.1181 21.448 74.4301 21.736C74.7421 22.016 74.8981 22.412 74.8981 22.924V23.416C74.8981 23.848 74.7981 24.184 74.5981 24.424C74.3981 24.664 74.1181 24.832 73.7581 24.928C73.4061 25.024 72.9861 25.072 72.4981 25.072ZM79.5373 25.012C79.4013 25.012 79.3333 24.944 79.3333 24.808V23.764C79.3333 23.62 79.4013 23.548 79.5373 23.548H80.2213C80.3653 23.548 80.4373 23.62 80.4373 23.764V24.808C80.4373 24.88 80.4173 24.932 80.3773 24.964C80.3373 24.996 80.2853 25.012 80.2213 25.012H79.5373ZM79.5373 20.032C79.4013 20.032 79.3333 19.964 79.3333 19.828V18.784C79.3333 18.64 79.4013 18.568 79.5373 18.568H80.2213C80.3653 18.568 80.4373 18.64 80.4373 18.784V19.828C80.4373 19.9 80.4173 19.952 80.3773 19.984C80.3373 20.016 80.2853 20.032 80.2213 20.032H79.5373Z" fill="black"/>
<line x1="16" y1="43.5" x2="321" y2="43.5" stroke="black" stroke-opacity="0.2"/>
<line x1="16" y1="58.5" x2="321" y2="58.5" stroke="black" stroke-opacity="0.2"/>
<line x1="16" y1="73.5" x2="321" y2="73.5" stroke="black" stroke-opacity="0.2"/>
<line x1="16" y1="88.5" x2="321" y2="88.5" stroke="black" stroke-opacity="0.2"/>
</g>
<defs>
<filter id="filter0_d_10_843" x="0" y="0" width="350" height="108" filterUnits="userSpaceOnUse" color-interpolation-filters="sRGB">
<feFlood flood-opacity="0" result="BackgroundImageFix"/>
<feColorMatrix in="SourceAlpha" type="matrix" values="0 0 0 0 0 0 0 0 0 0 0 0 0 0 0 0 0 0 127 0" result="hardAlpha"/>
<feOffset/>
<feGaussianBlur stdDeviation="2"/>
<feComposite in2="hardAlpha" operator="out"/>
<feColorMatrix type="matrix" values="0 0 0 0 0 0 0 0 0 0 0 0 0 0 0 0 0 0 0.28 0"/>
<feBlend mode="normal" in2="BackgroundImageFix" result="effect1_dropShadow_10_843"/>
<feBlend mode="normal" in="SourceGraphic" in2="effect1_dropShadow_10_843" result="shape"/>
</filter>
</defs>
</svg>
