<svg width="350" height="336" viewBox="0 0 350 336" fill="none" xmlns="http://www.w3.org/2000/svg">
<g filter="url(#filter0_d_10_779)">
<rect x="4" y="4" width="342" height="328" rx="12" fill="white"/>
<path d="M94.7706 50.9825C94.9175 50.8355 95 50.6362 95 50.4284C95 50.2206 94.9175 50.0214 94.7706 49.8744L90.8915 45.9954L94.7706 42.1164C94.9133 41.9686 94.9923 41.7706 94.9905 41.5652C94.9887 41.3597 94.9063 41.1631 94.761 41.0178C94.6157 40.8726 94.4192 40.7901 94.2137 40.7884C94.0082 40.7866 93.8103 40.8656 93.6625 41.0083L89.2294 45.4414C89.0825 45.5883 89 45.7876 89 45.9954C89 46.2032 89.0825 46.4025 89.2294 46.5494L93.6625 50.9825C93.8094 51.1294 94.0087 51.2119 94.2165 51.2119C94.4243 51.2119 94.6236 51.1294 94.7706 50.9825Z" fill="black"/>
<path d="M120.834 54L126.402 36.24H130.89L136.458 54H132.762L131.634 50.28H125.586L124.482 54H120.834ZM126.426 47.088H130.794L128.61 39.288L126.426 47.088ZM141.637 54.144C140.485 54.144 139.581 53.808 138.925 53.136C138.269 52.448 137.941 51.48 137.941 50.232V41.112H141.493V49.176C141.493 49.896 141.661 50.384 141.997 50.64C142.349 50.88 142.805 51 143.365 51C143.813 51 144.269 50.92 144.733 50.76C145.213 50.584 145.637 50.352 146.005 50.064V41.112H149.581V54H146.629L146.005 52.68C145.429 53.064 144.765 53.408 144.013 53.712C143.261 54 142.469 54.144 141.637 54.144ZM155.599 59.952C154.783 59.952 154.055 59.832 153.415 59.592C152.791 59.352 152.295 59 151.927 58.536C151.559 58.088 151.375 57.528 151.375 56.856V56.472C151.375 55.784 151.567 55.192 151.951 54.696C152.351 54.216 152.863 53.848 153.487 53.592C154.111 53.336 154.775 53.208 155.479 53.208L156.535 54.312C156.183 54.312 155.871 54.368 155.599 54.48C155.327 54.592 155.111 54.752 154.951 54.96C154.807 55.184 154.735 55.456 154.735 55.776V56.04C154.735 56.504 154.895 56.856 155.215 57.096C155.535 57.336 155.991 57.456 156.583 57.456H159.031C159.623 57.456 160.095 57.336 160.447 57.096C160.815 56.872 160.999 56.528 160.999 56.064V55.68C160.999 55.392 160.927 55.144 160.783 54.936C160.655 54.744 160.455 54.592 160.183 54.48C159.927 54.368 159.575 54.312 159.127 54.312H156.271C154.831 54.312 153.759 54.048 153.055 53.52C152.367 52.976 152.023 52.312 152.023 51.528C152.023 50.872 152.207 50.328 152.575 49.896C152.959 49.448 153.487 49.152 154.159 49.008C153.647 48.736 153.239 48.408 152.935 48.024C152.631 47.624 152.415 47.2 152.287 46.752C152.159 46.288 152.095 45.808 152.095 45.312C152.095 44.368 152.287 43.584 152.671 42.96C153.071 42.336 153.663 41.872 154.447 41.568C155.247 41.264 156.247 41.112 157.447 41.112H164.431V43.056L162.463 43.416C162.607 43.576 162.751 43.768 162.895 43.992C163.039 44.2 163.159 44.48 163.255 44.832C163.367 45.168 163.423 45.592 163.423 46.104C163.423 46.84 163.263 47.504 162.943 48.096C162.639 48.688 162.143 49.16 161.455 49.512C160.783 49.864 159.887 50.04 158.767 50.04H156.487C156.055 50.04 155.703 50.104 155.431 50.232C155.159 50.36 155.023 50.592 155.023 50.928C155.023 51.2 155.135 51.392 155.359 51.504C155.599 51.6 155.863 51.648 156.151 51.648H159.703C160.695 51.648 161.535 51.776 162.223 52.032C162.911 52.288 163.439 52.704 163.807 53.28C164.175 53.84 164.359 54.584 164.359 55.512V55.872C164.359 57.136 163.959 58.128 163.159 58.848C162.359 59.584 161.127 59.952 159.463 59.952H155.599ZM156.991 47.376H158.359C158.855 47.376 159.231 47.304 159.487 47.16C159.759 47 159.943 46.792 160.039 46.536C160.151 46.264 160.207 45.952 160.207 45.6C160.207 45.152 160.135 44.792 159.991 44.52C159.863 44.248 159.671 44.056 159.415 43.944C159.159 43.832 158.839 43.776 158.455 43.776H157.111C156.503 43.776 156.047 43.912 155.743 44.184C155.439 44.44 155.287 44.896 155.287 45.552C155.287 46.176 155.431 46.64 155.719 46.944C156.007 47.232 156.431 47.376 156.991 47.376ZM172.155 54V51.144L178.083 45.264C178.563 44.8 178.955 44.368 179.259 43.968C179.563 43.568 179.787 43.176 179.931 42.792C180.091 42.392 180.171 41.968 180.171 41.52C180.171 41.088 180.083 40.72 179.907 40.416C179.747 40.096 179.475 39.856 179.091 39.696C178.723 39.536 178.211 39.456 177.555 39.456H172.563V36.672C173.331 36.528 174.179 36.4 175.107 36.288C176.051 36.16 177.099 36.096 178.251 36.096C179.643 36.096 180.731 36.288 181.515 36.672C182.315 37.056 182.883 37.608 183.219 38.328C183.555 39.048 183.723 39.92 183.723 40.944C183.723 41.744 183.611 42.472 183.387 43.128C183.179 43.784 182.867 44.416 182.451 45.024C182.035 45.616 181.507 46.216 180.867 46.824L176.883 50.784H184.275V54H172.155ZM191.089 54.096C190.097 54.096 189.249 53.928 188.545 53.592C187.857 53.24 187.329 52.72 186.961 52.032C186.609 51.344 186.433 50.504 186.433 49.512V40.872C186.433 39.832 186.617 38.96 186.985 38.256C187.353 37.536 187.889 37 188.593 36.648C189.313 36.28 190.153 36.096 191.113 36.096H194.809C195.817 36.096 196.649 36.288 197.305 36.672C197.977 37.04 198.481 37.584 198.817 38.304C199.153 39.008 199.321 39.864 199.321 40.872V49.512C199.321 51 198.921 52.136 198.121 52.92C197.337 53.704 196.233 54.096 194.809 54.096H191.089ZM191.929 50.904H193.849C194.505 50.904 194.985 50.744 195.289 50.424C195.609 50.104 195.769 49.624 195.769 48.984V41.208C195.769 40.504 195.609 40.008 195.289 39.72C194.969 39.432 194.537 39.288 193.993 39.288H191.809C191.217 39.288 190.761 39.448 190.441 39.768C190.137 40.088 189.985 40.568 189.985 41.208V48.96C189.985 49.632 190.153 50.128 190.489 50.448C190.825 50.752 191.305 50.904 191.929 50.904ZM201.756 54V51.144L207.684 45.264C208.164 44.8 208.556 44.368 208.86 43.968C209.164 43.568 209.388 43.176 209.532 42.792C209.692 42.392 209.772 41.968 209.772 41.52C209.772 41.088 209.684 40.72 209.508 40.416C209.348 40.096 209.076 39.856 208.692 39.696C208.324 39.536 207.812 39.456 207.156 39.456H202.164V36.672C202.932 36.528 203.78 36.4 204.708 36.288C205.652 36.16 206.7 36.096 207.852 36.096C209.244 36.096 210.332 36.288 211.116 36.672C211.916 37.056 212.484 37.608 212.82 38.328C213.156 39.048 213.324 39.92 213.324 40.944C213.324 41.744 213.212 42.472 212.988 43.128C212.78 43.784 212.468 44.416 212.052 45.024C211.636 45.616 211.108 46.216 210.468 46.824L206.484 50.784H213.876V54H201.756ZM223.715 53.976V50.232H215.939L215.267 48.552L221.027 36.24H224.651L219.491 47.208H223.715V43.752L224.411 41.712H227.267V47.208H229.091V49.656L227.267 50.232V53.976H223.715Z" fill="#EF7E22"/>
<path d="M255.229 50.9825C255.083 50.8355 255 50.6362 255 50.4284C255 50.2206 255.083 50.0214 255.229 49.8744L259.108 45.9954L255.229 42.1164C255.087 41.9686 255.008 41.7706 255.009 41.5652C255.011 41.3597 255.094 41.1631 255.239 41.0178C255.384 40.8726 255.581 40.7901 255.786 40.7884C255.992 40.7866 256.19 40.8656 256.338 41.0083L260.771 45.4414C260.917 45.5883 261 45.7876 261 45.9954C261 46.2032 260.917 46.4025 260.771 46.5494L256.338 50.9825C256.191 51.1294 255.991 51.2119 255.783 51.2119C255.576 51.2119 255.376 51.1294 255.229 50.9825Z" fill="black"/>
<path d="M26.7983 108.863C26.5786 108.863 26.3268 108.854 26.0429 108.836C25.7682 108.827 25.4844 108.808 25.1914 108.781C24.9075 108.754 24.6328 108.726 24.3673 108.699C24.1109 108.671 23.8912 108.635 23.7081 108.589V107.517C23.9461 107.536 24.23 107.554 24.5596 107.572C24.8984 107.591 25.2555 107.604 25.6309 107.614C26.0154 107.623 26.3863 107.627 26.7434 107.627C27.1371 107.627 27.485 107.591 27.7872 107.517C28.0985 107.444 28.3411 107.307 28.5151 107.105C28.6982 106.904 28.7898 106.62 28.7898 106.254V105.663C28.7898 105.251 28.6753 104.935 28.4464 104.716C28.2267 104.496 27.8879 104.386 27.4301 104.386H26.4C25.521 104.386 24.8389 104.194 24.3536 103.809C23.8775 103.425 23.6394 102.765 23.6394 101.831V101.282C23.6394 100.311 23.9004 99.6202 24.4223 99.2082C24.9533 98.787 25.7041 98.5764 26.6747 98.5764C26.9952 98.5764 27.3385 98.5947 27.7048 98.6313C28.071 98.6588 28.4281 98.6954 28.776 98.7412C29.124 98.787 29.4124 98.8327 29.6413 98.8785V99.9498C29.2293 99.9223 28.7669 99.8949 28.2541 99.8674C27.7506 99.8308 27.2744 99.8125 26.8258 99.8125C26.4412 99.8125 26.107 99.8582 25.8232 99.9498C25.5485 100.032 25.3333 100.183 25.1776 100.403C25.0311 100.623 24.9579 100.934 24.9579 101.337V101.749C24.9579 102.243 25.0907 102.587 25.3562 102.779C25.6217 102.971 25.9926 103.068 26.4687 103.068H27.5812C28.158 103.068 28.6295 103.173 28.9958 103.383C29.3712 103.594 29.6505 103.882 29.8336 104.249C30.0167 104.615 30.1083 105.032 30.1083 105.498V106.213C30.1083 106.927 29.9618 107.476 29.6688 107.861C29.3758 108.245 28.9821 108.511 28.4876 108.657C27.9932 108.795 27.4301 108.863 26.7983 108.863Z" fill="black"/>
<path d="M28.8916 186.362V183.236H22.8877L22.5168 182.318L27.214 173.365H29.0328L24.6005 181.718H28.8916V178.521L29.2624 177.232H30.6751V181.718H32.3173V182.936L30.6751 183.236V186.362H28.8916Z" fill="black"/>
<path d="M23.2412 223.658V212.251L20.6807 212.834V211.704L23.4177 210.521H25.0247V223.658H23.2412ZM29.6906 223.658V212.251L27.1302 212.834V211.704L29.8672 210.521H31.4742V223.658H29.6906Z" fill="black"/>
<path d="M21.3746 260.939V249.531L18.8141 250.114V248.984L21.5512 247.801H23.1581V260.939H21.3746ZM29.1132 260.992C28.654 260.992 28.2243 260.95 27.8241 260.868C27.4356 260.774 27.0942 260.627 26.7999 260.427C26.5056 260.215 26.276 259.938 26.1112 259.597C25.9464 259.255 25.864 258.831 25.864 258.325V256.489C25.864 256.089 25.9405 255.741 26.0936 255.447C26.2584 255.141 26.4585 254.894 26.6939 254.705C26.9412 254.517 27.2002 254.393 27.4709 254.334C27.106 254.17 26.8234 253.97 26.6233 253.734C26.435 253.487 26.3055 253.222 26.2348 252.939C26.1642 252.645 26.1289 252.345 26.1289 252.039V250.538C26.1289 249.89 26.2584 249.367 26.5174 248.966C26.7764 248.566 27.1295 248.278 27.5769 248.101C28.0242 247.924 28.5128 247.836 29.0425 247.836H31.497C32.0503 247.836 32.533 247.924 32.945 248.101C33.3571 248.278 33.6808 248.566 33.9163 248.966C34.1517 249.367 34.2694 249.89 34.2694 250.538V252.039C34.2694 252.227 34.2459 252.433 34.1988 252.657C34.1517 252.869 34.0752 253.081 33.9692 253.293C33.8751 253.493 33.7456 253.669 33.5807 253.822C33.4159 253.975 33.2217 254.081 32.998 254.14C33.3865 254.223 33.6867 254.387 33.8986 254.635C34.1223 254.87 34.2812 255.147 34.3754 255.465C34.4696 255.771 34.5166 256.083 34.5166 256.4V258.325C34.5166 258.996 34.3872 259.526 34.1282 259.915C33.8692 260.291 33.5101 260.568 33.051 260.744C32.6036 260.909 32.0857 260.992 31.497 260.992H29.1132ZM29.3957 259.473H31.1262C31.7031 259.473 32.1151 259.355 32.3623 259.12C32.6213 258.873 32.7508 258.514 32.7508 258.043V256.559C32.7508 256.03 32.6213 255.647 32.3623 255.412C32.1033 255.176 31.6736 255.058 31.0732 255.058H29.3957C29.2191 255.058 29.0249 255.088 28.813 255.147C28.6128 255.194 28.4245 255.276 28.2479 255.394C28.0713 255.512 27.9242 255.671 27.8064 255.871C27.7005 256.059 27.6475 256.289 27.6475 256.559V258.043C27.6475 258.561 27.8064 258.932 28.1243 259.155C28.4539 259.367 28.8777 259.473 29.3957 259.473ZM29.3957 253.54H31.0556C31.4323 253.54 31.7266 253.469 31.9385 253.328C32.1504 253.175 32.3035 252.987 32.3976 252.763C32.4918 252.527 32.5389 252.292 32.5389 252.057V250.944C32.5389 250.332 32.4153 249.914 32.1681 249.69C31.9326 249.467 31.5853 249.355 31.1262 249.355H29.3957C28.8542 249.355 28.4598 249.472 28.2126 249.708C27.9771 249.943 27.8594 250.355 27.8594 250.944V252.057C27.8594 252.516 27.983 252.881 28.2302 253.151C28.4774 253.41 28.8659 253.54 29.3957 253.54Z" fill="black"/>
<path d="M17.2007 298.219V296.788L21.8626 292.25C22.3099 291.826 22.669 291.432 22.9397 291.067C23.2105 290.702 23.4047 290.337 23.5225 289.972C23.652 289.595 23.7167 289.189 23.7167 288.754C23.7167 288.365 23.6402 288.024 23.4871 287.729C23.3459 287.423 23.0928 287.188 22.7278 287.023C22.3629 286.858 21.8449 286.776 21.1739 286.776H17.6069V285.398C18.1484 285.328 18.7488 285.263 19.408 285.204C20.0791 285.134 20.7913 285.098 21.5447 285.098C22.5454 285.098 23.3282 285.24 23.8933 285.522C24.4701 285.793 24.8763 286.187 25.1117 286.705C25.3589 287.211 25.4825 287.812 25.4825 288.506C25.4825 289.107 25.4001 289.66 25.2353 290.166C25.0823 290.661 24.841 291.143 24.5113 291.614C24.1817 292.073 23.7579 292.556 23.2399 293.062L19.5846 296.594H25.9417V298.219H17.2007ZM32.5428 298.307C31.7776 298.307 31.0006 298.283 30.2118 298.236C29.4231 298.201 28.705 298.154 28.0575 298.095V296.7H32.5957C33.0902 296.7 33.5081 296.623 33.8495 296.47C34.2027 296.306 34.4675 296.076 34.6441 295.782C34.8325 295.487 34.9267 295.152 34.9267 294.775V293.504C34.9267 292.962 34.7677 292.538 34.4499 292.232C34.1438 291.914 33.6611 291.756 33.0019 291.756H31.7305C31.2478 291.756 30.8652 291.861 30.5827 292.073C30.3001 292.285 30.1177 292.615 30.0353 293.062H28.3577L28.7285 285.204H36.251V286.793H30.2648L30.0706 291.067C30.2236 290.843 30.4708 290.649 30.8122 290.484C31.1536 290.319 31.5774 290.237 32.0836 290.237H33.5846C34.2674 290.237 34.8384 290.366 35.2975 290.625C35.7566 290.884 36.1039 291.238 36.3393 291.685C36.5748 292.132 36.6925 292.638 36.6925 293.204V295.128C36.6925 295.846 36.5218 296.441 36.1804 296.912C35.8508 297.383 35.374 297.736 34.7501 297.971C34.1379 298.195 33.4021 298.307 32.5428 298.307Z" fill="black"/>
<path d="M71.2665 108.781L72.4202 98.6588H73.7937L76.3757 107.105L78.9166 98.6588H80.3038L81.4849 108.781H80.1527L79.1638 100.348L79.3973 100.376L77.0075 108.781H75.7302L73.2992 100.376L73.5465 100.362L72.5988 108.781H71.2665Z" fill="black"/>
<path d="M76.6993 186.467C75.9341 186.467 75.1571 186.444 74.3684 186.397C73.5797 186.361 72.8615 186.314 72.2141 186.256V184.861H76.7523C77.2467 184.861 77.6646 184.784 78.006 184.631C78.3592 184.466 78.6241 184.237 78.8007 183.942C78.989 183.648 79.0832 183.312 79.0832 182.936V181.664C79.0832 181.123 78.9243 180.699 78.6064 180.393C78.3003 180.075 77.8177 179.916 77.1584 179.916H75.887C75.4044 179.916 75.0218 180.022 74.7392 180.234C74.4567 180.446 74.2742 180.776 74.1918 181.223H72.5143L72.8851 173.365H80.4076V174.954H74.4214L74.2271 179.227C74.3802 179.004 74.6274 178.81 74.9688 178.645C75.3102 178.48 75.734 178.398 76.2402 178.398H77.7412C78.424 178.398 78.9949 178.527 79.454 178.786C79.9132 179.045 80.2604 179.398 80.4959 179.846C80.7313 180.293 80.8491 180.799 80.8491 181.364V183.289C80.8491 184.007 80.6784 184.602 80.337 185.072C80.0073 185.543 79.5306 185.896 78.9066 186.132C78.2945 186.356 77.5587 186.467 76.6993 186.467Z" fill="black"/>
<path d="M70.7553 223.659V212.251L68.1948 212.834V211.704L70.9319 210.521H72.5388V223.659H70.7553ZM74.8562 223.659V222.228L79.518 217.69C79.9654 217.266 80.3244 216.872 80.5952 216.507C80.8659 216.142 81.0602 215.777 81.1779 215.412C81.3074 215.035 81.3722 214.629 81.3722 214.194C81.3722 213.805 81.2956 213.464 81.1426 213.17C81.0013 212.863 80.7482 212.628 80.3833 212.463C80.0183 212.298 79.5004 212.216 78.8293 212.216H75.2623V210.839C75.8038 210.768 76.4042 210.703 77.0635 210.644C77.7345 210.574 78.4467 210.538 79.2002 210.538C80.2008 210.538 80.9837 210.68 81.5487 210.962C82.1256 211.233 82.5317 211.627 82.7672 212.145C83.0144 212.652 83.138 213.252 83.138 213.947C83.138 214.547 83.0556 215.1 82.8908 215.606C82.7377 216.101 82.4964 216.584 82.1668 217.054C81.8372 217.514 81.4134 217.996 80.8954 218.502L77.2401 222.034H83.5971V223.659H74.8562Z" fill="black"/>
<path d="M71.0158 260.938V249.531L68.4553 250.114V248.984L71.1924 247.801H72.7993V260.938H71.0158ZM79.3018 261.027C78.772 261.027 78.2128 261.003 77.6242 260.956C77.0356 260.921 76.5058 260.874 76.0349 260.815V259.42H79.1958C80.1729 259.42 80.9205 259.073 81.4384 258.378C81.9564 257.672 82.2154 256.606 82.2154 255.182C81.8976 255.241 81.5385 255.288 81.1382 255.323C80.7498 255.358 80.3554 255.382 79.9551 255.394C79.5549 255.405 79.1782 255.411 78.825 255.411C78.0245 255.411 77.3593 255.311 76.8296 255.111C76.2998 254.911 75.9055 254.605 75.6465 254.193C75.3875 253.781 75.258 253.251 75.258 252.604V250.75C75.258 250.043 75.3934 249.478 75.6641 249.054C75.9349 248.631 76.2998 248.324 76.7589 248.136C77.2298 247.948 77.7537 247.854 78.3305 247.854H80.3083C80.8851 247.854 81.4031 247.954 81.8622 248.154C82.3214 248.342 82.704 248.678 83.01 249.16C83.3279 249.631 83.5692 250.29 83.734 251.138C83.9106 251.986 83.9989 253.057 83.9989 254.352C83.9989 255.553 83.893 256.577 83.6811 257.424C83.4692 258.272 83.1572 258.967 82.7452 259.508C82.3449 260.038 81.8564 260.426 81.2795 260.674C80.7027 260.909 80.0434 261.027 79.3018 261.027ZM79.2664 253.893H82.2154C82.2154 253.01 82.1683 252.28 82.0741 251.703C81.98 251.114 81.8387 250.661 81.6503 250.343C81.462 250.014 81.2265 249.784 80.944 249.655C80.6732 249.513 80.3554 249.443 79.9904 249.443H78.7014C78.3835 249.443 78.0951 249.49 77.8361 249.584C77.5889 249.678 77.3888 249.843 77.2357 250.079C77.0945 250.314 77.0238 250.644 77.0238 251.067V252.286C77.0238 252.733 77.1121 253.069 77.2887 253.292C77.4653 253.516 77.7184 253.675 78.048 253.769C78.3894 253.852 78.7956 253.893 79.2664 253.893Z" fill="black"/>
<path d="M66.7126 298.218V296.788L71.3744 292.25C71.8218 291.826 72.1808 291.432 72.4516 291.067C72.7223 290.702 72.9166 290.337 73.0343 289.972C73.1638 289.595 73.2286 289.189 73.2286 288.753C73.2286 288.365 73.152 288.023 72.999 287.729C72.8577 287.423 72.6046 287.188 72.2397 287.023C71.8747 286.858 71.3568 286.776 70.6857 286.776H67.1187V285.398C67.6603 285.328 68.2606 285.263 68.9199 285.204C69.5909 285.133 70.3031 285.098 71.0566 285.098C72.0572 285.098 72.8401 285.239 73.4051 285.522C73.982 285.793 74.3881 286.187 74.6236 286.705C74.8708 287.211 74.9944 287.812 74.9944 288.506C74.9944 289.106 74.912 289.66 74.7472 290.166C74.5941 290.66 74.3528 291.143 74.0232 291.614C73.6936 292.073 73.2698 292.556 72.7518 293.062L69.0965 296.594H75.4535V298.218H66.7126ZM81.0657 298.271C80.4889 298.271 79.9709 298.177 79.5118 297.989C79.0527 297.789 78.6642 297.453 78.3463 296.982C78.0285 296.5 77.7872 295.834 77.6223 294.987C77.4575 294.139 77.3751 293.068 77.3751 291.773C77.3751 290.56 77.4811 289.536 77.693 288.7C77.9049 287.853 78.211 287.164 78.6112 286.634C79.0232 286.093 79.5177 285.704 80.0945 285.469C80.6714 285.222 81.3306 285.098 82.0723 285.098C82.5903 285.098 83.1494 285.122 83.7498 285.169C84.3502 285.204 84.88 285.251 85.3391 285.31V286.687H82.1782C81.2011 286.687 80.4536 287.04 79.9356 287.747C79.4176 288.453 79.1586 289.519 79.1586 290.943C79.4883 290.884 79.8473 290.837 80.2358 290.802C80.6243 290.766 81.0187 290.743 81.4189 290.731C81.8192 290.719 82.1959 290.713 82.5491 290.713C83.3496 290.713 84.0147 290.813 84.5445 291.014C85.0742 291.214 85.4686 291.52 85.7276 291.932C85.9866 292.344 86.1161 292.874 86.1161 293.521V295.358C86.1161 296.076 85.9807 296.647 85.7099 297.07C85.4392 297.494 85.0683 297.8 84.5974 297.989C84.1383 298.177 83.6203 298.271 83.0435 298.271H81.0657ZM81.3836 296.682H82.6727C82.9905 296.682 83.2731 296.635 83.5203 296.541C83.7793 296.447 83.9794 296.282 84.1207 296.046C84.2737 295.811 84.3502 295.481 84.3502 295.057V293.839C84.3502 293.392 84.2619 293.056 84.0853 292.832C83.9205 292.597 83.6674 292.438 83.326 292.356C82.9964 292.273 82.5844 292.232 82.0899 292.232H79.1586C79.1586 293.115 79.2057 293.851 79.2999 294.439C79.3941 295.016 79.5353 295.469 79.7237 295.799C79.9121 296.117 80.1416 296.346 80.4124 296.488C80.6949 296.617 81.0187 296.682 81.3836 296.682Z" fill="black"/>
<path d="M125.109 108.781V99.8949H122.088V98.6588H129.518V99.8949H126.497V108.781H125.109Z" fill="black"/>
<path d="M125.705 186.432C125.128 186.432 124.61 186.338 124.151 186.15C123.692 185.949 123.303 185.614 122.985 185.143C122.667 184.66 122.426 183.995 122.261 183.148C122.097 182.3 122.014 181.229 122.014 179.934C122.014 178.721 122.12 177.697 122.332 176.861C122.544 176.014 122.85 175.325 123.25 174.795C123.662 174.254 124.157 173.865 124.734 173.63C125.31 173.383 125.97 173.259 126.711 173.259C127.229 173.259 127.788 173.282 128.389 173.33C128.989 173.365 129.519 173.412 129.978 173.471V174.848H126.817C125.84 174.848 125.093 175.201 124.575 175.908C124.057 176.614 123.798 177.679 123.798 179.104C124.127 179.045 124.486 178.998 124.875 178.963C125.263 178.927 125.658 178.904 126.058 178.892C126.458 178.88 126.835 178.874 127.188 178.874C127.989 178.874 128.654 178.974 129.183 179.174C129.713 179.375 130.108 179.681 130.367 180.093C130.626 180.505 130.755 181.035 130.755 181.682V183.518C130.755 184.237 130.62 184.808 130.349 185.231C130.078 185.655 129.707 185.961 129.236 186.15C128.777 186.338 128.259 186.432 127.682 186.432H125.705ZM126.023 184.843H127.312C127.629 184.843 127.912 184.796 128.159 184.702C128.418 184.607 128.618 184.443 128.76 184.207C128.913 183.972 128.989 183.642 128.989 183.218V182C128.989 181.553 128.901 181.217 128.724 180.993C128.56 180.758 128.306 180.599 127.965 180.517C127.635 180.434 127.223 180.393 126.729 180.393H123.798C123.798 181.276 123.845 182.012 123.939 182.6C124.033 183.177 124.174 183.63 124.363 183.96C124.551 184.278 124.781 184.507 125.051 184.649C125.334 184.778 125.658 184.843 126.023 184.843Z" fill="black"/>
<path d="M121.275 223.659V212.251L118.715 212.834V211.704L121.452 210.521H123.059V223.659H121.275ZM130.003 223.765C129.061 223.765 128.178 223.741 127.354 223.694C126.542 223.647 125.824 223.582 125.2 223.5V222.105H129.367C129.873 222.105 130.309 222.058 130.674 221.963C131.039 221.858 131.321 221.681 131.521 221.434C131.733 221.187 131.839 220.827 131.839 220.357V219.597C131.839 219.173 131.739 218.844 131.539 218.608C131.339 218.361 131.08 218.185 130.762 218.079C130.444 217.973 130.109 217.914 129.756 217.902L126.453 217.761V216.436L129.685 216.295C130.285 216.26 130.768 216.13 131.133 215.907C131.498 215.683 131.68 215.3 131.68 214.759V214.017C131.68 213.44 131.48 212.999 131.08 212.693C130.692 212.375 130.085 212.216 129.261 212.216H125.588V210.821C126.165 210.739 126.818 210.668 127.548 210.609C128.278 210.55 129.079 210.527 129.95 210.538C130.727 210.538 131.368 210.668 131.875 210.927C132.393 211.174 132.781 211.533 133.04 212.004C133.299 212.463 133.429 213.011 133.429 213.646V214.706C133.429 215.094 133.37 215.43 133.252 215.712C133.146 215.983 132.999 216.219 132.811 216.419C132.634 216.607 132.44 216.754 132.228 216.86C132.016 216.966 131.816 217.049 131.627 217.107C131.839 217.154 132.057 217.249 132.281 217.39C132.516 217.519 132.734 217.696 132.934 217.92C133.146 218.132 133.317 218.396 133.446 218.714C133.576 219.032 133.64 219.397 133.64 219.809V220.657C133.64 221.669 133.317 222.44 132.669 222.97C132.034 223.5 131.145 223.765 130.003 223.765Z" fill="black"/>
<path d="M115.871 260.938V259.508L120.533 254.97C120.98 254.546 121.339 254.152 121.61 253.787C121.881 253.422 122.075 253.057 122.193 252.692C122.322 252.315 122.387 251.909 122.387 251.474C122.387 251.085 122.31 250.744 122.157 250.449C122.016 250.143 121.763 249.908 121.398 249.743C121.033 249.578 120.515 249.496 119.844 249.496H116.277V248.118C116.819 248.048 117.419 247.983 118.078 247.924C118.749 247.854 119.461 247.818 120.215 247.818C121.216 247.818 121.998 247.96 122.563 248.242C123.14 248.513 123.546 248.907 123.782 249.425C124.029 249.931 124.153 250.532 124.153 251.226C124.153 251.827 124.07 252.38 123.906 252.886C123.752 253.381 123.511 253.863 123.182 254.334C122.852 254.793 122.428 255.276 121.91 255.782L118.255 259.314H124.612V260.938H115.871ZM129.906 260.991C129.247 260.991 128.67 260.88 128.176 260.656C127.681 260.42 127.299 260.067 127.028 259.596C126.757 259.126 126.622 258.531 126.622 257.813V251.085C126.622 250.367 126.757 249.767 127.028 249.284C127.299 248.801 127.681 248.436 128.176 248.189C128.682 247.942 129.259 247.818 129.906 247.818H132.502C133.232 247.818 133.826 247.954 134.286 248.224C134.756 248.495 135.104 248.872 135.327 249.355C135.563 249.837 135.681 250.414 135.681 251.085V257.813C135.681 258.884 135.392 259.685 134.815 260.214C134.25 260.732 133.473 260.991 132.484 260.991H129.906ZM130.277 259.385H132.061C132.708 259.385 133.173 259.226 133.456 258.908C133.75 258.59 133.897 258.143 133.897 257.566V251.244C133.897 250.608 133.744 250.143 133.438 249.849C133.132 249.555 132.696 249.407 132.131 249.407H130.224C129.659 249.407 129.212 249.566 128.882 249.884C128.552 250.202 128.388 250.655 128.388 251.244V257.566C128.388 258.178 128.552 258.637 128.882 258.943C129.223 259.237 129.688 259.385 130.277 259.385Z" fill="black"/>
<path d="M117.291 298.218V296.788L121.953 292.25C122.4 291.826 122.759 291.432 123.03 291.067C123.301 290.702 123.495 290.337 123.613 289.972C123.742 289.595 123.807 289.189 123.807 288.753C123.807 288.365 123.731 288.023 123.578 287.729C123.436 287.423 123.183 287.188 122.818 287.023C122.453 286.858 121.935 286.776 121.264 286.776H117.697V285.398C118.239 285.328 118.839 285.263 119.499 285.204C120.17 285.133 120.882 285.098 121.635 285.098C122.636 285.098 123.419 285.239 123.984 285.522C124.561 285.793 124.967 286.187 125.202 286.705C125.449 287.211 125.573 287.812 125.573 288.506C125.573 289.106 125.491 289.66 125.326 290.166C125.173 290.66 124.931 291.143 124.602 291.614C124.272 292.073 123.848 292.556 123.33 293.062L119.675 296.594H126.032V298.218H117.291ZM129.225 298.218L133.569 286.987H127.336V285.204H135.317L135.829 286.052L131.221 298.218H129.225Z" fill="black"/>
<path d="M172.443 108.781L169.902 98.6588H171.33L173.336 106.817L175.643 98.6588H176.989L179.283 106.817L181.302 98.6588H182.716L180.175 108.781H178.719L176.316 100.623L173.899 108.781H172.443Z" fill="black"/>
<path d="M173.864 186.379L178.208 175.148H171.975V173.365H179.956L180.468 174.212L175.86 186.379H173.864Z" fill="black"/>
<path d="M171.08 223.659V212.251L168.52 212.834V211.704L171.257 210.521H172.864V223.659H171.08ZM181.079 223.641V220.515H175.075L174.704 219.597L179.402 210.644H181.22L176.788 218.997H181.079V215.801L181.45 214.512H182.863V218.997H184.505V220.215L182.863 220.515V223.641H181.079Z" fill="black"/>
<path d="M168.327 260.938V259.508L172.988 254.97C173.436 254.546 173.795 254.152 174.066 253.787C174.336 253.422 174.531 253.057 174.648 252.692C174.778 252.315 174.843 251.909 174.843 251.474C174.843 251.085 174.766 250.744 174.613 250.449C174.472 250.143 174.219 249.908 173.854 249.743C173.489 249.578 172.971 249.496 172.3 249.496H168.733V248.118C169.274 248.048 169.875 247.983 170.534 247.924C171.205 247.854 171.917 247.818 172.671 247.818C173.671 247.818 174.454 247.96 175.019 248.242C175.596 248.513 176.002 248.907 176.238 249.425C176.485 249.931 176.608 250.532 176.608 251.226C176.608 251.827 176.526 252.38 176.361 252.886C176.208 253.381 175.967 253.863 175.637 254.334C175.308 254.793 174.884 255.276 174.366 255.782L170.711 259.314H177.068V260.938H168.327ZM181.108 260.938V249.531L178.548 250.114V248.984L181.285 247.801H182.892V260.938H181.108Z" fill="black"/>
<path d="M165.478 298.218V296.788L170.139 292.25C170.587 291.826 170.946 291.432 171.217 291.067C171.487 290.702 171.682 290.337 171.799 289.972C171.929 289.595 171.994 289.189 171.994 288.753C171.994 288.365 171.917 288.023 171.764 287.729C171.623 287.423 171.37 287.188 171.005 287.023C170.64 286.858 170.122 286.776 169.451 286.776H165.884V285.398C166.425 285.328 167.026 285.263 167.685 285.204C168.356 285.133 169.068 285.098 169.822 285.098C170.822 285.098 171.605 285.239 172.17 285.522C172.747 285.793 173.153 286.187 173.389 286.705C173.636 287.211 173.759 287.812 173.759 288.506C173.759 289.106 173.677 289.66 173.512 290.166C173.359 290.66 173.118 291.143 172.788 291.614C172.459 292.073 172.035 292.556 171.517 293.062L167.862 296.594H174.219V298.218H165.478ZM179.548 298.271C179.089 298.271 178.659 298.23 178.259 298.148C177.871 298.053 177.529 297.906 177.235 297.706C176.941 297.494 176.711 297.218 176.546 296.876C176.382 296.535 176.299 296.111 176.299 295.605V293.768C176.299 293.368 176.376 293.021 176.529 292.726C176.693 292.42 176.894 292.173 177.129 291.985C177.376 291.796 177.635 291.673 177.906 291.614C177.541 291.449 177.259 291.249 177.058 291.014C176.87 290.766 176.741 290.502 176.67 290.219C176.599 289.925 176.564 289.624 176.564 289.318V287.817C176.564 287.17 176.693 286.646 176.952 286.246C177.211 285.846 177.565 285.557 178.012 285.381C178.459 285.204 178.948 285.116 179.478 285.116H181.932C182.485 285.116 182.968 285.204 183.38 285.381C183.792 285.557 184.116 285.846 184.351 286.246C184.587 286.646 184.705 287.17 184.705 287.817V289.318C184.705 289.507 184.681 289.713 184.634 289.936C184.587 290.148 184.51 290.36 184.404 290.572C184.31 290.772 184.181 290.949 184.016 291.102C183.851 291.255 183.657 291.361 183.433 291.42C183.822 291.502 184.122 291.667 184.334 291.914C184.557 292.15 184.716 292.426 184.81 292.744C184.905 293.05 184.952 293.362 184.952 293.68V295.605C184.952 296.276 184.822 296.806 184.563 297.194C184.304 297.571 183.945 297.847 183.486 298.024C183.039 298.189 182.521 298.271 181.932 298.271H179.548ZM179.831 296.753H181.561C182.138 296.753 182.55 296.635 182.797 296.399C183.056 296.152 183.186 295.793 183.186 295.322V293.839C183.186 293.309 183.056 292.927 182.797 292.691C182.538 292.456 182.109 292.338 181.508 292.338H179.831C179.654 292.338 179.46 292.367 179.248 292.426C179.048 292.473 178.86 292.556 178.683 292.674C178.506 292.791 178.359 292.95 178.242 293.15C178.136 293.339 178.083 293.568 178.083 293.839V295.322C178.083 295.84 178.242 296.211 178.559 296.435C178.889 296.647 179.313 296.753 179.831 296.753ZM179.831 290.819H181.491C181.867 290.819 182.162 290.749 182.374 290.607C182.586 290.454 182.739 290.266 182.833 290.042C182.927 289.807 182.974 289.571 182.974 289.336V288.224C182.974 287.611 182.85 287.193 182.603 286.97C182.368 286.746 182.02 286.634 181.561 286.634H179.831C179.289 286.634 178.895 286.752 178.648 286.987C178.412 287.223 178.295 287.635 178.295 288.224V289.336C178.295 289.795 178.418 290.16 178.665 290.431C178.913 290.69 179.301 290.819 179.831 290.819Z" fill="black"/>
<path d="M224.047 108.781V99.8949H221.025V98.6588H228.456V99.8949H225.434V108.781H224.047Z" fill="black"/>
<path d="M225.265 149.099V137.692L222.704 138.274V137.144L225.441 135.961H227.048V149.099H225.265Z" fill="black"/>
<path d="M223.705 186.432C223.246 186.432 222.816 186.391 222.416 186.309C222.027 186.214 221.686 186.067 221.392 185.867C221.097 185.655 220.868 185.379 220.703 185.037C220.538 184.696 220.456 184.272 220.456 183.766V181.929C220.456 181.529 220.532 181.182 220.685 180.887C220.85 180.581 221.05 180.334 221.286 180.146C221.533 179.957 221.792 179.834 222.063 179.775C221.698 179.61 221.415 179.41 221.215 179.174C221.027 178.927 220.897 178.662 220.826 178.38C220.756 178.086 220.721 177.785 220.721 177.479V175.978C220.721 175.331 220.85 174.807 221.109 174.407C221.368 174.006 221.721 173.718 222.169 173.541C222.616 173.365 223.104 173.277 223.634 173.277H226.089C226.642 173.277 227.125 173.365 227.537 173.541C227.949 173.718 228.272 174.006 228.508 174.407C228.743 174.807 228.861 175.331 228.861 175.978V177.479C228.861 177.668 228.838 177.874 228.79 178.097C228.743 178.309 228.667 178.521 228.561 178.733C228.467 178.933 228.337 179.11 228.172 179.263C228.008 179.416 227.813 179.522 227.59 179.581C227.978 179.663 228.278 179.828 228.49 180.075C228.714 180.311 228.873 180.587 228.967 180.905C229.061 181.211 229.108 181.523 229.108 181.841V183.766C229.108 184.437 228.979 184.966 228.72 185.355C228.461 185.732 228.102 186.008 227.643 186.185C227.195 186.35 226.677 186.432 226.089 186.432H223.705ZM223.987 184.913H225.718C226.295 184.913 226.707 184.796 226.954 184.56C227.213 184.313 227.342 183.954 227.342 183.483V182C227.342 181.47 227.213 181.087 226.954 180.852C226.695 180.617 226.265 180.499 225.665 180.499H223.987C223.811 180.499 223.617 180.528 223.405 180.587C223.204 180.634 223.016 180.717 222.84 180.834C222.663 180.952 222.516 181.111 222.398 181.311C222.292 181.5 222.239 181.729 222.239 182V183.483C222.239 184.001 222.398 184.372 222.716 184.596C223.046 184.808 223.469 184.913 223.987 184.913ZM223.987 178.98H225.647C226.024 178.98 226.318 178.91 226.53 178.768C226.742 178.615 226.895 178.427 226.989 178.203C227.083 177.968 227.131 177.732 227.131 177.497V176.384C227.131 175.772 227.007 175.354 226.76 175.131C226.524 174.907 226.177 174.795 225.718 174.795H223.987C223.446 174.795 223.051 174.913 222.804 175.148C222.569 175.384 222.451 175.796 222.451 176.384V177.497C222.451 177.956 222.575 178.321 222.822 178.592C223.069 178.851 223.458 178.98 223.987 178.98Z" fill="black"/>
<path d="M219.379 223.659V212.251L216.818 212.834V211.704L219.556 210.521H221.162V223.659H219.379ZM228.389 223.747C227.624 223.747 226.847 223.723 226.058 223.676C225.269 223.641 224.551 223.594 223.904 223.535V222.14H228.442C228.936 222.14 229.354 222.064 229.696 221.911C230.049 221.746 230.314 221.516 230.49 221.222C230.679 220.928 230.773 220.592 230.773 220.215V218.944C230.773 218.402 230.614 217.979 230.296 217.672C229.99 217.355 229.507 217.196 228.848 217.196H227.577C227.094 217.196 226.711 217.302 226.429 217.514C226.146 217.725 225.964 218.055 225.881 218.502H224.204L224.575 210.644H232.097V212.234H226.111L225.917 216.507C226.07 216.283 226.317 216.089 226.658 215.924C227 215.759 227.424 215.677 227.93 215.677H229.431C230.114 215.677 230.684 215.807 231.144 216.066C231.603 216.325 231.95 216.678 232.185 217.125C232.421 217.572 232.539 218.079 232.539 218.644V220.568C232.539 221.287 232.368 221.881 232.027 222.352C231.697 222.823 231.22 223.176 230.596 223.411C229.984 223.635 229.248 223.747 228.389 223.747Z" fill="black"/>
<path d="M214.86 260.938V259.508L219.522 254.97C219.969 254.546 220.328 254.152 220.599 253.787C220.87 253.422 221.064 253.057 221.182 252.692C221.311 252.315 221.376 251.909 221.376 251.474C221.376 251.085 221.3 250.744 221.147 250.449C221.005 250.143 220.752 249.908 220.387 249.743C220.022 249.578 219.504 249.496 218.833 249.496H215.266V248.118C215.808 248.048 216.408 247.983 217.068 247.924C217.739 247.854 218.451 247.818 219.204 247.818C220.205 247.818 220.988 247.96 221.553 248.242C222.13 248.513 222.536 248.907 222.771 249.425C223.018 249.931 223.142 250.532 223.142 251.226C223.142 251.827 223.06 252.38 222.895 252.886C222.742 253.381 222.5 253.863 222.171 254.334C221.841 254.793 221.417 255.276 220.899 255.782L217.244 259.314H223.601V260.938H214.86ZM225.293 260.938V259.508L229.955 254.97C230.402 254.546 230.761 254.152 231.032 253.787C231.303 253.422 231.497 253.057 231.615 252.692C231.744 252.315 231.809 251.909 231.809 251.474C231.809 251.085 231.733 250.744 231.58 250.449C231.438 250.143 231.185 249.908 230.82 249.743C230.455 249.578 229.937 249.496 229.266 249.496H225.699V248.118C226.241 248.048 226.841 247.983 227.501 247.924C228.172 247.854 228.884 247.818 229.637 247.818C230.638 247.818 231.421 247.96 231.986 248.242C232.563 248.513 232.969 248.907 233.204 249.425C233.451 249.931 233.575 250.532 233.575 251.226C233.575 251.827 233.493 252.38 233.328 252.886C233.175 253.381 232.933 253.863 232.604 254.334C232.274 254.793 231.85 255.276 231.332 255.782L227.677 259.314H234.034V260.938H225.293Z" fill="black"/>
<path d="M215.119 298.218V296.788L219.781 292.25C220.228 291.826 220.587 291.432 220.858 291.067C221.129 290.702 221.323 290.337 221.441 289.972C221.57 289.595 221.635 289.189 221.635 288.753C221.635 288.365 221.558 288.023 221.405 287.729C221.264 287.423 221.011 287.188 220.646 287.023C220.281 286.858 219.763 286.776 219.092 286.776H215.525V285.398C216.067 285.328 216.667 285.263 217.326 285.204C217.997 285.133 218.709 285.098 219.463 285.098C220.463 285.098 221.246 285.239 221.811 285.522C222.388 285.793 222.794 286.187 223.03 286.705C223.277 287.211 223.401 287.812 223.401 288.506C223.401 289.106 223.318 289.66 223.153 290.166C223 290.66 222.759 291.143 222.429 291.614C222.1 292.073 221.676 292.556 221.158 293.062L217.503 296.594H223.86V298.218H215.119ZM229.737 298.307C229.207 298.307 228.648 298.283 228.059 298.236C227.471 298.201 226.941 298.154 226.47 298.095V296.7H229.631C230.608 296.7 231.356 296.352 231.874 295.658C232.392 294.951 232.651 293.886 232.651 292.462C232.333 292.52 231.974 292.568 231.573 292.603C231.185 292.638 230.79 292.662 230.39 292.674C229.99 292.685 229.613 292.691 229.26 292.691C228.46 292.691 227.794 292.591 227.265 292.391C226.735 292.191 226.341 291.885 226.082 291.473C225.823 291.061 225.693 290.531 225.693 289.883V288.029C225.693 287.323 225.828 286.758 226.099 286.334C226.37 285.91 226.735 285.604 227.194 285.416C227.665 285.228 228.189 285.133 228.766 285.133H230.743C231.32 285.133 231.838 285.233 232.297 285.434C232.756 285.622 233.139 285.957 233.445 286.44C233.763 286.911 234.004 287.57 234.169 288.418C234.346 289.265 234.434 290.337 234.434 291.632C234.434 292.832 234.328 293.857 234.116 294.704C233.904 295.552 233.592 296.246 233.18 296.788C232.78 297.318 232.291 297.706 231.715 297.953C231.138 298.189 230.479 298.307 229.737 298.307ZM229.702 291.173H232.651C232.651 290.29 232.603 289.56 232.509 288.983C232.415 288.394 232.274 287.941 232.085 287.623C231.897 287.294 231.662 287.064 231.379 286.934C231.108 286.793 230.79 286.723 230.426 286.723H229.136C228.819 286.723 228.53 286.77 228.271 286.864C228.024 286.958 227.824 287.123 227.671 287.358C227.53 287.594 227.459 287.923 227.459 288.347V289.566C227.459 290.013 227.547 290.348 227.724 290.572C227.9 290.796 228.153 290.955 228.483 291.049C228.825 291.131 229.231 291.173 229.702 291.173Z" fill="black"/>
<path d="M273.245 108.781V100.774C273.245 100.371 273.304 100.032 273.423 99.7575C273.551 99.4828 273.716 99.2677 273.918 99.112C274.119 98.9472 274.343 98.8327 274.591 98.7687C274.847 98.6954 275.099 98.6588 275.346 98.6588C275.721 98.6679 276.147 98.6771 276.623 98.6862C277.099 98.6862 277.594 98.6954 278.107 98.7137C278.629 98.732 279.132 98.7641 279.617 98.8099V99.9361H275.689C275.351 99.9361 275.09 100.028 274.906 100.211C274.723 100.394 274.632 100.659 274.632 101.007V103.356L278.999 103.438V104.51L274.632 104.592V108.781H273.245Z" fill="black"/>
<path d="M270.432 149.099V147.669L275.094 143.13C275.541 142.707 275.9 142.312 276.171 141.947C276.442 141.582 276.636 141.217 276.754 140.852C276.883 140.476 276.948 140.07 276.948 139.634C276.948 139.245 276.872 138.904 276.719 138.61C276.577 138.304 276.324 138.068 275.959 137.903C275.594 137.739 275.076 137.656 274.405 137.656H270.838V136.279C271.38 136.208 271.98 136.143 272.64 136.085C273.311 136.014 274.023 135.979 274.776 135.979C275.777 135.979 276.56 136.12 277.125 136.402C277.702 136.673 278.108 137.068 278.343 137.586C278.59 138.092 278.714 138.692 278.714 139.387C278.714 139.987 278.632 140.54 278.467 141.047C278.314 141.541 278.072 142.024 277.743 142.495C277.413 142.954 276.989 143.436 276.471 143.943L272.816 147.474H279.173V149.099H270.432Z" fill="black"/>
<path d="M273.393 186.467C272.864 186.467 272.304 186.444 271.716 186.397C271.127 186.361 270.598 186.314 270.127 186.256V184.861H273.287C274.265 184.861 275.012 184.513 275.53 183.819C276.048 183.112 276.307 182.047 276.307 180.622C275.989 180.681 275.63 180.728 275.23 180.764C274.841 180.799 274.447 180.823 274.047 180.834C273.647 180.846 273.27 180.852 272.917 180.852C272.116 180.852 271.451 180.752 270.921 180.552C270.391 180.352 269.997 180.046 269.738 179.634C269.479 179.222 269.35 178.692 269.35 178.044V176.19C269.35 175.484 269.485 174.919 269.756 174.495C270.027 174.071 270.391 173.765 270.851 173.577C271.322 173.388 271.845 173.294 272.422 173.294H274.4C274.977 173.294 275.495 173.394 275.954 173.594C276.413 173.783 276.796 174.118 277.102 174.601C277.42 175.072 277.661 175.731 277.826 176.579C278.002 177.426 278.091 178.498 278.091 179.793C278.091 180.993 277.985 182.018 277.773 182.865C277.561 183.713 277.249 184.407 276.837 184.949C276.437 185.479 275.948 185.867 275.371 186.114C274.794 186.35 274.135 186.467 273.393 186.467ZM273.358 179.333H276.307C276.307 178.45 276.26 177.721 276.166 177.144C276.072 176.555 275.93 176.102 275.742 175.784C275.554 175.454 275.318 175.225 275.036 175.095C274.765 174.954 274.447 174.883 274.082 174.883H272.793C272.475 174.883 272.187 174.931 271.928 175.025C271.681 175.119 271.48 175.284 271.327 175.519C271.186 175.755 271.115 176.084 271.115 176.508V177.727C271.115 178.174 271.204 178.509 271.38 178.733C271.557 178.957 271.81 179.116 272.14 179.21C272.481 179.292 272.887 179.333 273.358 179.333Z" fill="black"/>
<path d="M268.891 223.659V212.251L266.33 212.834V211.704L269.067 210.521H270.674V223.659H268.891ZM276.912 223.712C276.335 223.712 275.817 223.617 275.358 223.429C274.899 223.229 274.51 222.893 274.192 222.423C273.875 221.94 273.633 221.275 273.468 220.427C273.304 219.58 273.221 218.508 273.221 217.213C273.221 216.001 273.327 214.977 273.539 214.141C273.751 213.293 274.057 212.604 274.457 212.075C274.869 211.533 275.364 211.145 275.941 210.909C276.518 210.662 277.177 210.538 277.918 210.538C278.436 210.538 278.996 210.562 279.596 210.609C280.196 210.644 280.726 210.691 281.185 210.75V212.128H278.024C277.047 212.128 276.3 212.481 275.782 213.187C275.264 213.894 275.005 214.959 275.005 216.383C275.334 216.325 275.693 216.277 276.082 216.242C276.47 216.207 276.865 216.183 277.265 216.172C277.665 216.16 278.042 216.154 278.395 216.154C279.196 216.154 279.861 216.254 280.391 216.454C280.92 216.654 281.315 216.96 281.574 217.372C281.833 217.784 281.962 218.314 281.962 218.962V220.798C281.962 221.516 281.827 222.087 281.556 222.511C281.285 222.935 280.914 223.241 280.444 223.429C279.984 223.617 279.466 223.712 278.89 223.712H276.912ZM277.23 222.122H278.519C278.837 222.122 279.119 222.075 279.366 221.981C279.625 221.887 279.826 221.722 279.967 221.487C280.12 221.251 280.196 220.922 280.196 220.498V219.279C280.196 218.832 280.108 218.497 279.931 218.273C279.767 218.037 279.514 217.878 279.172 217.796C278.843 217.714 278.431 217.672 277.936 217.672H275.005C275.005 218.555 275.052 219.291 275.146 219.88C275.24 220.457 275.381 220.91 275.57 221.239C275.758 221.557 275.988 221.787 276.259 221.928C276.541 222.058 276.865 222.122 277.23 222.122Z" fill="black"/>
<path d="M264.398 260.938V259.508L269.06 254.97C269.507 254.546 269.866 254.152 270.137 253.787C270.408 253.422 270.602 253.057 270.72 252.692C270.849 252.315 270.914 251.909 270.914 251.474C270.914 251.085 270.837 250.744 270.684 250.449C270.543 250.143 270.29 249.908 269.925 249.743C269.56 249.578 269.042 249.496 268.371 249.496H264.804V248.118C265.346 248.048 265.946 247.983 266.605 247.924C267.276 247.854 267.989 247.818 268.742 247.818C269.743 247.818 270.525 247.96 271.091 248.242C271.667 248.513 272.074 248.907 272.309 249.425C272.556 249.931 272.68 250.532 272.68 251.226C272.68 251.827 272.597 252.38 272.433 252.886C272.28 253.381 272.038 253.863 271.709 254.334C271.379 254.793 270.955 255.276 270.437 255.782L266.782 259.314H273.139V260.938H264.398ZM279.457 261.044C278.516 261.044 277.633 261.021 276.809 260.974C275.996 260.927 275.278 260.862 274.654 260.78V259.385H278.822C279.328 259.385 279.764 259.337 280.129 259.243C280.493 259.137 280.776 258.961 280.976 258.714C281.188 258.466 281.294 258.107 281.294 257.636V256.877C281.294 256.453 281.194 256.124 280.994 255.888C280.794 255.641 280.535 255.464 280.217 255.358C279.899 255.252 279.563 255.194 279.21 255.182L275.908 255.041V253.716L279.14 253.575C279.74 253.54 280.223 253.41 280.588 253.186C280.953 252.963 281.135 252.58 281.135 252.039V251.297C281.135 250.72 280.935 250.279 280.535 249.973C280.146 249.655 279.54 249.496 278.716 249.496H275.043V248.101C275.62 248.018 276.273 247.948 277.003 247.889C277.733 247.83 278.533 247.806 279.405 247.818C280.181 247.818 280.823 247.948 281.329 248.207C281.847 248.454 282.236 248.813 282.495 249.284C282.754 249.743 282.883 250.29 282.883 250.926V251.986C282.883 252.374 282.824 252.71 282.707 252.992C282.601 253.263 282.454 253.498 282.265 253.699C282.089 253.887 281.894 254.034 281.682 254.14C281.471 254.246 281.27 254.328 281.082 254.387C281.294 254.434 281.512 254.528 281.735 254.67C281.971 254.799 282.189 254.976 282.389 255.199C282.601 255.411 282.771 255.676 282.901 255.994C283.03 256.312 283.095 256.677 283.095 257.089V257.937C283.095 258.949 282.771 259.72 282.124 260.25C281.488 260.78 280.599 261.044 279.457 261.044Z" fill="black"/>
<path d="M268.973 298.324C268.031 298.324 267.148 298.301 266.324 298.254C265.512 298.206 264.794 298.142 264.17 298.059V296.664H268.337C268.843 296.664 269.279 296.617 269.644 296.523C270.009 296.417 270.291 296.241 270.491 295.993C270.703 295.746 270.809 295.387 270.809 294.916V294.157C270.809 293.733 270.709 293.403 270.509 293.168C270.309 292.921 270.05 292.744 269.732 292.638C269.414 292.532 269.079 292.473 268.725 292.462L265.423 292.32V290.996L268.655 290.855C269.255 290.819 269.738 290.69 270.103 290.466C270.468 290.243 270.65 289.86 270.65 289.318V288.577C270.65 288 270.45 287.558 270.05 287.252C269.661 286.935 269.055 286.776 268.231 286.776H264.558V285.381C265.135 285.298 265.788 285.228 266.518 285.169C267.248 285.11 268.049 285.086 268.92 285.098C269.697 285.098 270.338 285.228 270.844 285.487C271.362 285.734 271.751 286.093 272.01 286.564C272.269 287.023 272.398 287.57 272.398 288.206V289.265C272.398 289.654 272.34 289.989 272.222 290.272C272.116 290.543 271.969 290.778 271.78 290.978C271.604 291.167 271.41 291.314 271.198 291.42C270.986 291.526 270.786 291.608 270.597 291.667C270.809 291.714 271.027 291.808 271.251 291.95C271.486 292.079 271.704 292.256 271.904 292.479C272.116 292.691 272.287 292.956 272.416 293.274C272.546 293.592 272.61 293.957 272.61 294.369V295.216C272.61 296.229 272.287 297 271.639 297.53C271.003 298.059 270.115 298.324 268.973 298.324ZM278.244 298.271C277.584 298.271 277.007 298.159 276.513 297.936C276.019 297.7 275.636 297.347 275.365 296.876C275.094 296.405 274.959 295.811 274.959 295.093V288.365C274.959 287.647 275.094 287.046 275.365 286.564C275.636 286.081 276.019 285.716 276.513 285.469C277.019 285.222 277.596 285.098 278.244 285.098H280.839C281.569 285.098 282.164 285.233 282.623 285.504C283.094 285.775 283.441 286.152 283.665 286.634C283.9 287.117 284.018 287.694 284.018 288.365V295.093C284.018 296.164 283.729 296.965 283.153 297.494C282.587 298.012 281.811 298.271 280.822 298.271H278.244ZM278.614 296.664H280.398C281.045 296.664 281.51 296.505 281.793 296.188C282.087 295.87 282.234 295.422 282.234 294.845V288.524C282.234 287.888 282.081 287.423 281.775 287.129C281.469 286.834 281.034 286.687 280.468 286.687H278.561C277.996 286.687 277.549 286.846 277.219 287.164C276.89 287.482 276.725 287.935 276.725 288.524V294.845C276.725 295.458 276.89 295.917 277.219 296.223C277.561 296.517 278.026 296.664 278.614 296.664Z" fill="black"/>
<path d="M323.611 108.863C323.391 108.863 323.139 108.854 322.855 108.836C322.581 108.827 322.297 108.808 322.004 108.781C321.72 108.754 321.445 108.726 321.18 108.699C320.923 108.671 320.704 108.635 320.521 108.589V107.517C320.759 107.536 321.042 107.554 321.372 107.572C321.711 107.591 322.068 107.604 322.443 107.614C322.828 107.623 323.199 107.627 323.556 107.627C323.95 107.627 324.298 107.591 324.6 107.517C324.911 107.444 325.154 107.307 325.328 107.105C325.511 106.904 325.602 106.62 325.602 106.254V105.663C325.602 105.251 325.488 104.935 325.259 104.716C325.039 104.496 324.7 104.386 324.243 104.386H323.213C322.334 104.386 321.651 104.194 321.166 103.809C320.69 103.425 320.452 102.765 320.452 101.831V101.282C320.452 100.311 320.713 99.6202 321.235 99.2082C321.766 98.787 322.517 98.5764 323.487 98.5764C323.808 98.5764 324.151 98.5947 324.517 98.6313C324.884 98.6588 325.241 98.6954 325.589 98.7412C325.936 98.787 326.225 98.8327 326.454 98.8785V99.9498C326.042 99.9223 325.579 99.8949 325.067 99.8674C324.563 99.8308 324.087 99.8125 323.638 99.8125C323.254 99.8125 322.92 99.8582 322.636 99.9498C322.361 100.032 322.146 100.183 321.99 100.403C321.844 100.623 321.77 100.934 321.77 101.337V101.749C321.77 102.243 321.903 102.587 322.169 102.779C322.434 102.971 322.805 103.068 323.281 103.068H324.394C324.971 103.068 325.442 103.173 325.808 103.383C326.184 103.594 326.463 103.882 326.646 104.249C326.829 104.615 326.921 105.032 326.921 105.498V106.213C326.921 106.927 326.774 107.476 326.481 107.861C326.188 108.245 325.795 108.511 325.3 108.657C324.806 108.795 324.243 108.863 323.611 108.863Z" fill="black"/>
<path d="M324.596 149.205C323.655 149.205 322.772 149.181 321.948 149.134C321.135 149.087 320.417 149.022 319.793 148.94V147.545H323.961C324.467 147.545 324.903 147.498 325.267 147.404C325.632 147.298 325.915 147.121 326.115 146.874C326.327 146.627 326.433 146.268 326.433 145.797V145.037C326.433 144.614 326.333 144.284 326.133 144.049C325.933 143.801 325.674 143.625 325.356 143.519C325.038 143.413 324.702 143.354 324.349 143.342L321.047 143.201V141.877L324.279 141.735C324.879 141.7 325.362 141.57 325.727 141.347C326.092 141.123 326.274 140.741 326.274 140.199V139.457C326.274 138.881 326.074 138.439 325.674 138.133C325.285 137.815 324.679 137.656 323.855 137.656H320.182V136.261C320.759 136.179 321.412 136.108 322.142 136.049C322.872 135.99 323.672 135.967 324.543 135.979C325.32 135.979 325.962 136.108 326.468 136.367C326.986 136.614 327.375 136.973 327.634 137.444C327.893 137.903 328.022 138.451 328.022 139.087V140.146C328.022 140.535 327.963 140.87 327.846 141.153C327.74 141.423 327.593 141.659 327.404 141.859C327.228 142.047 327.033 142.194 326.821 142.3C326.61 142.406 326.409 142.489 326.221 142.548C326.433 142.595 326.651 142.689 326.874 142.83C327.11 142.96 327.328 143.136 327.528 143.36C327.74 143.572 327.91 143.837 328.04 144.155C328.169 144.472 328.234 144.837 328.234 145.249V146.097C328.234 147.109 327.91 147.88 327.263 148.41C326.627 148.94 325.738 149.205 324.596 149.205Z" fill="black"/>
<path d="M318.049 186.379V174.972L315.489 175.555V174.424L318.226 173.241H319.833V186.379H318.049ZM325.752 186.432C325.093 186.432 324.516 186.32 324.022 186.097C323.527 185.861 323.145 185.508 322.874 185.037C322.603 184.566 322.468 183.972 322.468 183.254V176.526C322.468 175.808 322.603 175.207 322.874 174.725C323.145 174.242 323.527 173.877 324.022 173.63C324.528 173.383 325.105 173.259 325.752 173.259H328.348C329.078 173.259 329.673 173.394 330.132 173.665C330.603 173.936 330.95 174.313 331.174 174.795C331.409 175.278 331.527 175.855 331.527 176.526V183.254C331.527 184.325 331.238 185.125 330.661 185.655C330.096 186.173 329.319 186.432 328.331 186.432H325.752ZM326.123 184.825H327.907C328.554 184.825 329.019 184.666 329.302 184.348C329.596 184.031 329.743 183.583 329.743 183.006V176.685C329.743 176.049 329.59 175.584 329.284 175.29C328.978 174.995 328.542 174.848 327.977 174.848H326.07C325.505 174.848 325.058 175.007 324.728 175.325C324.399 175.643 324.234 176.096 324.234 176.685V183.006C324.234 183.619 324.399 184.078 324.728 184.384C325.07 184.678 325.535 184.825 326.123 184.825Z" fill="black"/>
<path d="M319.469 223.659V212.251L316.909 212.834V211.704L319.646 210.521H321.253V223.659H319.469ZM325.071 223.659L329.415 212.428H323.182V210.644H331.163L331.676 211.492L327.067 223.659H325.071Z" fill="black"/>
<path d="M314.203 260.938V259.508L318.865 254.97C319.312 254.546 319.671 254.152 319.942 253.787C320.213 253.422 320.407 253.057 320.525 252.692C320.654 252.315 320.719 251.909 320.719 251.474C320.719 251.085 320.642 250.744 320.489 250.449C320.348 250.143 320.095 249.908 319.73 249.743C319.365 249.578 318.847 249.496 318.176 249.496H314.609V248.118C315.151 248.048 315.751 247.983 316.41 247.924C317.081 247.854 317.793 247.818 318.547 247.818C319.548 247.818 320.33 247.96 320.895 248.242C321.472 248.513 321.878 248.907 322.114 249.425C322.361 249.931 322.485 250.532 322.485 251.226C322.485 251.827 322.402 252.38 322.238 252.886C322.084 253.381 321.843 253.863 321.514 254.334C321.184 254.793 320.76 255.276 320.242 255.782L316.587 259.314H322.944V260.938H314.203ZM330.534 260.921V257.795H324.53L324.159 256.877L328.856 247.924H330.675L326.243 256.277H330.534V253.08L330.905 251.791H332.317V256.277H333.96V257.495L332.317 257.795V260.921H330.534Z" fill="black"/>
<path d="M320.448 298.324C319.506 298.324 318.623 298.301 317.799 298.254C316.987 298.206 316.269 298.142 315.645 298.059V296.664H319.812C320.318 296.664 320.754 296.617 321.119 296.523C321.484 296.417 321.766 296.241 321.967 295.993C322.178 295.746 322.284 295.387 322.284 294.916V294.157C322.284 293.733 322.184 293.403 321.984 293.168C321.784 292.921 321.525 292.744 321.207 292.638C320.889 292.532 320.554 292.473 320.201 292.462L316.899 292.32V290.996L320.13 290.855C320.73 290.819 321.213 290.69 321.578 290.466C321.943 290.243 322.125 289.86 322.125 289.318V288.577C322.125 288 321.925 287.558 321.525 287.252C321.137 286.935 320.53 286.776 319.706 286.776H316.033V285.381C316.61 285.298 317.263 285.228 317.993 285.169C318.723 285.11 319.524 285.086 320.395 285.098C321.172 285.098 321.813 285.228 322.32 285.487C322.838 285.734 323.226 286.093 323.485 286.564C323.744 287.023 323.874 287.57 323.874 288.206V289.265C323.874 289.654 323.815 289.989 323.697 290.272C323.591 290.543 323.444 290.778 323.256 290.978C323.079 291.167 322.885 291.314 322.673 291.42C322.461 291.526 322.261 291.608 322.072 291.667C322.284 291.714 322.502 291.808 322.726 291.95C322.961 292.079 323.179 292.256 323.379 292.479C323.591 292.691 323.762 292.956 323.891 293.274C324.021 293.592 324.086 293.957 324.086 294.369V295.216C324.086 296.229 323.762 297 323.114 297.53C322.479 298.059 321.59 298.324 320.448 298.324ZM328.465 298.218V286.811L325.905 287.394V286.263L328.642 285.08H330.248V298.218H328.465Z" fill="black"/>
</g>
<defs>
<filter id="filter0_d_10_779" x="0" y="0" width="350" height="336" filterUnits="userSpaceOnUse" color-interpolation-filters="sRGB">
<feFlood flood-opacity="0" result="BackgroundImageFix"/>
<feColorMatrix in="SourceAlpha" type="matrix" values="0 0 0 0 0 0 0 0 0 0 0 0 0 0 0 0 0 0 127 0" result="hardAlpha"/>
<feOffset/>
<feGaussianBlur stdDeviation="2"/>
<feComposite in2="hardAlpha" operator="out"/>
<feColorMatrix type="matrix" values="0 0 0 0 0 0 0 0 0 0 0 0 0 0 0 0 0 0 0.16 0"/>
<feBlend mode="normal" in2="BackgroundImageFix" result="effect1_dropShadow_10_779"/>
<feBlend mode="normal" in="SourceGraphic" in2="effect1_dropShadow_10_779" result="shape"/>
</filter>
</defs>
</svg>
