<svg width="350" height="108" viewBox="0 0 350 108" fill="none" xmlns="http://www.w3.org/2000/svg">
<g filter="url(#filter0_d_10_834)">
<rect x="4" y="4" width="342" height="100" rx="12" fill="white"/>
<path d="M16.876 25V16.156H20.452C21.004 16.156 21.468 16.256 21.844 16.456C22.22 16.656 22.524 16.948 22.756 17.332C22.988 17.708 23.156 18.172 23.26 18.724C23.364 19.268 23.416 19.888 23.416 20.584C23.416 21.528 23.304 22.328 23.08 22.984C22.864 23.64 22.536 24.14 22.096 24.484C21.656 24.828 21.108 25 20.452 25H16.876ZM18.088 23.92H20.344C20.784 23.92 21.14 23.788 21.412 23.524C21.684 23.252 21.884 22.868 22.012 22.372C22.14 21.868 22.204 21.272 22.204 20.584C22.204 19.952 22.168 19.424 22.096 19C22.024 18.568 21.912 18.224 21.76 17.968C21.608 17.704 21.412 17.516 21.172 17.404C20.94 17.292 20.664 17.236 20.344 17.236H18.088V23.92ZM27.329 25.072C26.649 25.072 26.105 24.972 25.697 24.772C25.297 24.572 25.009 24.236 24.833 23.764C24.665 23.284 24.581 22.624 24.581 21.784C24.581 20.928 24.665 20.264 24.833 19.792C25.009 19.312 25.297 18.976 25.697 18.784C26.097 18.592 26.637 18.496 27.317 18.496C27.909 18.496 28.385 18.56 28.745 18.688C29.113 18.808 29.381 19.028 29.549 19.348C29.725 19.66 29.813 20.096 29.813 20.656C29.813 21.048 29.733 21.36 29.573 21.592C29.421 21.824 29.201 21.992 28.913 22.096C28.633 22.2 28.297 22.252 27.905 22.252H25.781C25.789 22.716 25.841 23.088 25.937 23.368C26.041 23.64 26.221 23.84 26.477 23.968C26.741 24.088 27.125 24.148 27.629 24.148H29.633V24.868C29.289 24.916 28.937 24.96 28.577 25C28.217 25.048 27.801 25.072 27.329 25.072ZM25.769 21.496H27.797C28.117 21.496 28.353 21.436 28.505 21.316C28.657 21.196 28.733 20.976 28.733 20.656C28.733 20.336 28.685 20.084 28.589 19.9C28.501 19.716 28.353 19.584 28.145 19.504C27.937 19.424 27.661 19.384 27.317 19.384C26.925 19.384 26.613 19.444 26.381 19.564C26.157 19.684 25.997 19.896 25.901 20.2C25.813 20.504 25.769 20.936 25.769 21.496ZM33.5215 25.072C33.3535 25.072 33.1535 25.068 32.9215 25.06C32.6895 25.052 32.4495 25.036 32.2015 25.012C31.9615 24.996 31.7375 24.976 31.5295 24.952C31.3295 24.928 31.1695 24.9 31.0495 24.868V24.148H33.7495C33.9815 24.148 34.1815 24.132 34.3495 24.1C34.5175 24.06 34.6455 23.98 34.7335 23.86C34.8295 23.74 34.8775 23.564 34.8775 23.332V23.068C34.8775 22.828 34.7975 22.64 34.6375 22.504C34.4775 22.368 34.2135 22.3 33.8455 22.3H32.9095C32.5335 22.3 32.1975 22.252 31.9015 22.156C31.6135 22.052 31.3855 21.88 31.2175 21.64C31.0575 21.4 30.9775 21.076 30.9775 20.668V20.32C30.9775 19.912 31.0535 19.576 31.2055 19.312C31.3655 19.048 31.6175 18.852 31.9615 18.724C32.3055 18.588 32.7615 18.52 33.3295 18.52C33.5695 18.52 33.8335 18.532 34.1215 18.556C34.4175 18.572 34.7055 18.596 34.9855 18.628C35.2655 18.66 35.4895 18.696 35.6575 18.736V19.456H33.1135C32.7615 19.456 32.4895 19.516 32.2975 19.636C32.1135 19.756 32.0215 19.984 32.0215 20.32V20.56C32.0215 20.768 32.0655 20.928 32.1535 21.04C32.2415 21.152 32.3655 21.224 32.5255 21.256C32.6935 21.288 32.8895 21.304 33.1135 21.304H34.0735C34.6815 21.304 35.1415 21.448 35.4535 21.736C35.7655 22.016 35.9215 22.412 35.9215 22.924V23.416C35.9215 23.848 35.8215 24.184 35.6215 24.424C35.4215 24.664 35.1415 24.832 34.7815 24.928C34.4295 25.024 34.0095 25.072 33.5215 25.072ZM39.6772 25.072C39.3012 25.072 38.9532 25.024 38.6332 24.928C38.3212 24.824 38.0452 24.652 37.8052 24.412C37.5732 24.172 37.3932 23.84 37.2652 23.416C37.1372 22.992 37.0732 22.456 37.0732 21.808C37.0732 21.144 37.1332 20.6 37.2532 20.176C37.3732 19.744 37.5452 19.408 37.7692 19.168C38.0012 18.92 38.2812 18.748 38.6092 18.652C38.9372 18.556 39.3052 18.508 39.7132 18.508C40.0492 18.508 40.4012 18.524 40.7692 18.556C41.1452 18.588 41.5092 18.64 41.8612 18.712V19.42H40.0492C39.6572 19.42 39.3292 19.484 39.0652 19.612C38.8012 19.732 38.6052 19.968 38.4772 20.32C38.3492 20.664 38.2852 21.164 38.2852 21.82C38.2852 22.452 38.3532 22.94 38.4892 23.284C38.6252 23.62 38.8212 23.848 39.0772 23.968C39.3412 24.088 39.6692 24.148 40.0612 24.148H41.9572V24.832C41.7732 24.88 41.5532 24.924 41.2972 24.964C41.0492 24.996 40.7852 25.02 40.5052 25.036C40.2332 25.06 39.9572 25.072 39.6772 25.072ZM43.172 25V18.58H44.096L44.372 19.66C44.644 19.332 44.948 19.056 45.284 18.832C45.62 18.608 46.012 18.496 46.46 18.496C46.564 18.496 46.664 18.504 46.76 18.52C46.856 18.528 46.948 18.544 47.036 18.568V19.804C46.924 19.788 46.808 19.776 46.688 19.768C46.568 19.752 46.444 19.744 46.316 19.744C46.044 19.744 45.8 19.776 45.584 19.84C45.368 19.904 45.16 20.004 44.96 20.14C44.768 20.268 44.572 20.428 44.372 20.62V25H43.172ZM48.3322 17.5C48.1882 17.5 48.1162 17.432 48.1162 17.296V16.288C48.1162 16.144 48.1882 16.072 48.3322 16.072H49.2202C49.2842 16.072 49.3322 16.092 49.3642 16.132C49.3962 16.172 49.4122 16.224 49.4122 16.288V17.296C49.4122 17.432 49.3482 17.5 49.2202 17.5H48.3322ZM48.1642 25V18.58H49.3642V25H48.1642ZM51.047 27.844V18.58H52.031L52.247 19.228C52.399 19.116 52.579 19.004 52.787 18.892C53.003 18.78 53.235 18.688 53.483 18.616C53.739 18.536 53.995 18.496 54.251 18.496C54.659 18.496 55.007 18.58 55.295 18.748C55.591 18.916 55.831 19.152 56.015 19.456C56.199 19.752 56.331 20.1 56.411 20.5C56.499 20.9 56.543 21.328 56.543 21.784C56.543 22.496 56.463 23.1 56.303 23.596C56.151 24.084 55.907 24.456 55.571 24.712C55.243 24.96 54.803 25.084 54.251 25.084C53.915 25.084 53.571 25.036 53.219 24.94C52.867 24.836 52.543 24.7 52.247 24.532V27.844H51.047ZM53.891 24.076C54.163 24.076 54.407 24.008 54.623 23.872C54.839 23.736 55.011 23.504 55.139 23.176C55.275 22.84 55.343 22.376 55.343 21.784C55.343 21.224 55.275 20.776 55.139 20.44C55.003 20.096 54.827 19.852 54.611 19.708C54.395 19.556 54.159 19.48 53.903 19.48C53.567 19.48 53.259 19.532 52.979 19.636C52.707 19.74 52.463 19.848 52.247 19.96V23.62C52.495 23.756 52.759 23.868 53.039 23.956C53.327 24.036 53.611 24.076 53.891 24.076ZM60.228 25C59.796 25 59.436 24.932 59.148 24.796C58.868 24.652 58.66 24.424 58.524 24.112C58.396 23.8 58.336 23.384 58.344 22.864L58.392 19.564H57.372V18.784L58.416 18.58L58.596 16.78H59.544V18.58H61.284V19.564H59.544V22.852C59.544 23.1 59.568 23.3 59.616 23.452C59.664 23.604 59.732 23.72 59.82 23.8C59.908 23.88 60.004 23.94 60.108 23.98C60.212 24.012 60.312 24.032 60.408 24.04L61.2 24.112V25H60.228ZM62.6643 17.5C62.5203 17.5 62.4482 17.432 62.4482 17.296V16.288C62.4482 16.144 62.5203 16.072 62.6643 16.072H63.5523C63.6163 16.072 63.6643 16.092 63.6963 16.132C63.7283 16.172 63.7443 16.224 63.7443 16.288V17.296C63.7443 17.432 63.6803 17.5 63.5523 17.5H62.6643ZM62.4963 25V18.58H63.6963V25H62.4963ZM67.9951 25.072C67.5071 25.072 67.0831 25.02 66.7231 24.916C66.3711 24.812 66.0791 24.64 65.8471 24.4C65.6151 24.152 65.4431 23.816 65.3311 23.392C65.2191 22.968 65.1631 22.432 65.1631 21.784C65.1631 21.112 65.2191 20.564 65.3311 20.14C65.4431 19.708 65.6151 19.372 65.8471 19.132C66.0791 18.892 66.3751 18.728 66.7351 18.64C67.0951 18.544 67.5151 18.496 67.9951 18.496C68.4751 18.496 68.8951 18.544 69.2551 18.64C69.6151 18.736 69.9111 18.904 70.1431 19.144C70.3751 19.384 70.5471 19.72 70.6591 20.152C70.7711 20.576 70.8271 21.12 70.8271 21.784C70.8271 22.44 70.7711 22.984 70.6591 23.416C70.5471 23.84 70.3751 24.172 70.1431 24.412C69.9191 24.652 69.6271 24.824 69.2671 24.928C68.9071 25.024 68.4831 25.072 67.9951 25.072ZM67.9951 24.088C68.2591 24.088 68.4911 24.064 68.6911 24.016C68.8991 23.968 69.0711 23.868 69.2071 23.716C69.3431 23.556 69.4471 23.32 69.5191 23.008C69.5911 22.696 69.6271 22.284 69.6271 21.772C69.6271 21.26 69.5911 20.852 69.5191 20.548C69.4471 20.236 69.3431 20.004 69.2071 19.852C69.0711 19.7 68.8991 19.6 68.6911 19.552C68.4911 19.496 68.2591 19.468 67.9951 19.468C67.7231 19.468 67.4831 19.496 67.2751 19.552C67.0751 19.6 66.9071 19.7 66.7711 19.852C66.6431 20.004 66.5431 20.236 66.4711 20.548C66.4071 20.852 66.3751 21.26 66.3751 21.772C66.3751 22.284 66.4071 22.696 66.4711 23.008C66.5431 23.32 66.6431 23.556 66.7711 23.716C66.9071 23.868 67.0751 23.968 67.2751 24.016C67.4831 24.064 67.7231 24.088 67.9951 24.088ZM72.2931 25V18.58H73.2531L73.4931 19.276C73.7811 19.068 74.1211 18.884 74.5131 18.724C74.9131 18.556 75.3251 18.472 75.7491 18.472C76.2291 18.472 76.6131 18.576 76.9011 18.784C77.1971 18.984 77.4091 19.252 77.5371 19.588C77.6651 19.924 77.7291 20.288 77.7291 20.68V25H76.5291V20.824C76.5291 20.568 76.4771 20.348 76.3731 20.164C76.2771 19.972 76.1411 19.824 75.9651 19.72C75.7891 19.616 75.5731 19.564 75.3171 19.564C75.0771 19.564 74.8531 19.588 74.6451 19.636C74.4451 19.684 74.2531 19.752 74.0691 19.84C73.8851 19.92 73.6931 20.02 73.4931 20.14V25H72.2931Z" fill="black"/>
</g>
<defs>
<filter id="filter0_d_10_834" x="0" y="0" width="350" height="108" filterUnits="userSpaceOnUse" color-interpolation-filters="sRGB">
<feFlood flood-opacity="0" result="BackgroundImageFix"/>
<feColorMatrix in="SourceAlpha" type="matrix" values="0 0 0 0 0 0 0 0 0 0 0 0 0 0 0 0 0 0 127 0" result="hardAlpha"/>
<feOffset/>
<feGaussianBlur stdDeviation="2"/>
<feComposite in2="hardAlpha" operator="out"/>
<feColorMatrix type="matrix" values="0 0 0 0 0 0 0 0 0 0 0 0 0 0 0 0 0 0 0.28 0"/>
<feBlend mode="normal" in2="BackgroundImageFix" result="effect1_dropShadow_10_834"/>
<feBlend mode="normal" in="SourceGraphic" in2="effect1_dropShadow_10_834" result="shape"/>
</filter>
</defs>
</svg>
