<svg width="57" height="64" viewBox="0 0 57 64" fill="none" xmlns="http://www.w3.org/2000/svg">
<path d="M46.5918 7.90414C46.3424 7.90477 46.0974 7.83846 45.8824 7.71214C39.9651 4.54415 34.8491 3.20015 28.7158 3.20015C22.6131 3.20015 16.8185 4.70415 11.5478 7.71214C10.8025 8.13347 9.88385 7.84014 9.45185 7.06681C9.25903 6.69356 9.21553 6.2609 9.33019 5.85673C9.44485 5.45256 9.70907 5.1072 10.0692 4.89082C15.7536 1.66673 22.1807 -0.0189657 28.7158 0.000160968C35.2798 0.000160968 41.0131 1.50416 47.3011 4.86415C47.6679 5.06586 47.9411 5.40333 48.062 5.80416C48.1829 6.20498 48.1419 6.63722 47.9478 7.00814C47.831 7.27149 47.6413 7.49586 47.4009 7.65466C47.1606 7.81346 46.8798 7.90004 46.5918 7.90414ZM2.48653 24.7041C2.16629 24.7018 1.85447 24.6013 1.5932 24.4161C1.25328 24.1635 1.02467 23.7888 0.955531 23.371C0.886389 22.9531 0.982113 22.5248 1.22254 22.1761C4.27453 17.6961 8.15585 14.1761 12.7812 11.7121C22.4585 6.53348 34.8491 6.49614 44.5571 11.6801C49.1811 14.1441 53.0637 17.6321 56.1157 22.0801C56.3552 22.4291 56.4503 22.8572 56.3812 23.2747C56.3121 23.6922 56.0842 24.0669 55.7451 24.3201C55.5805 24.4431 55.3925 24.531 55.1927 24.5783C54.9928 24.6257 54.7854 24.6316 54.5832 24.5956C54.381 24.5596 54.1883 24.4825 54.0171 24.3691C53.8458 24.2556 53.6997 24.1083 53.5877 23.9361C50.8144 19.9041 47.3011 16.7361 43.1398 14.5281C34.2945 9.82414 22.9825 9.82414 14.1678 14.5601C9.97585 16.8001 6.46252 20.0001 3.6892 24.0268C3.56961 24.2387 3.39433 24.4138 3.18233 24.5332C2.97034 24.6526 2.72972 24.7117 2.48653 24.7041ZM21.7492 63.3333C21.5455 63.3353 21.3437 63.2935 21.1576 63.2106C20.9715 63.1278 20.8054 63.006 20.6705 62.8533C17.9892 60.064 16.5358 58.2667 14.4758 54.4C12.3425 50.464 11.2398 45.664 11.2398 40.5121C11.2398 31.0081 19.0678 23.2641 28.6851 23.2641C38.3024 23.2641 46.1358 31.0081 46.1358 40.5121C46.1418 40.7182 46.1065 40.9235 46.0318 41.1157C45.9571 41.3079 45.8445 41.4832 45.7009 41.6311C45.5572 41.7791 45.3853 41.8967 45.1954 41.977C45.0054 42.0573 44.8013 42.0987 44.5951 42.0987C44.3889 42.0987 44.1847 42.0573 43.9948 41.977C43.8049 41.8967 43.633 41.7791 43.4893 41.6311C43.3456 41.4832 43.2331 41.3079 43.1584 41.1157C43.0837 40.9235 43.0484 40.7182 43.0544 40.5121C43.0544 32.7681 36.6118 26.4641 28.6918 26.4641C20.7718 26.4641 14.3225 32.7681 14.3225 40.5121C14.3225 45.12 15.3078 49.376 17.1878 52.832C19.1612 56.512 20.5212 58.08 22.8905 60.576C23.1715 60.8866 23.3271 61.2905 23.3271 61.7093C23.3271 62.1282 23.1715 62.5321 22.8905 62.8427C22.588 63.1479 22.1788 63.3238 21.7492 63.3333ZM43.8491 57.4134C40.1811 57.4134 36.9451 56.4534 34.2945 54.5654C32.0362 52.9825 30.1913 50.8802 28.9151 48.4354C27.6389 45.9907 26.9688 43.2752 26.9611 40.5174C26.9525 40.3096 26.986 40.1022 27.0595 39.9076C27.1331 39.7131 27.2452 39.5354 27.3892 39.3854C27.5332 39.2353 27.706 39.1158 27.8973 39.0342C28.0886 38.9527 28.2945 38.9106 28.5025 38.9106C28.7105 38.9106 28.9163 38.9527 29.1076 39.0342C29.2989 39.1158 29.4718 39.2353 29.6157 39.3854C29.7597 39.5354 29.8719 39.7131 29.9454 39.9076C30.019 40.1022 30.0524 40.3096 30.0438 40.5174C30.049 42.7574 30.5953 44.963 31.6362 46.9465C32.6772 48.93 34.1819 50.6325 36.0224 51.9094C38.2104 53.4454 40.7691 54.176 43.8518 54.176C44.9254 54.157 45.9956 54.0499 47.0518 53.856C47.8837 53.696 48.6851 54.272 48.8384 55.168C48.9165 55.5815 48.8275 56.0091 48.5908 56.3571C48.3541 56.705 47.989 56.9448 47.5757 57.024C46.348 57.2666 45.1005 57.3951 43.8491 57.408V57.4134ZM37.6531 64C37.5177 63.9944 37.3835 63.9729 37.2531 63.936C32.3518 62.528 29.1465 60.64 25.7865 57.216C21.4705 52.768 19.0985 46.848 19.0985 40.5121C19.0985 35.3281 23.3518 31.1041 28.5905 31.1041C33.8291 31.1041 38.0838 35.3281 38.0838 40.5121C38.0838 43.9361 40.9504 46.72 44.4944 46.72C48.0384 46.72 50.9051 43.9361 50.9051 40.5121C50.9051 28.4481 40.8878 18.6561 28.5598 18.6561C19.8065 18.6561 11.7932 23.7121 8.18785 31.5521C6.98786 34.1441 6.36919 37.1841 6.36919 40.5121C6.36919 43.0081 6.58386 46.944 8.43319 52.064C8.74252 52.896 8.34119 53.824 7.53985 54.112C7.34941 54.1846 7.14628 54.2178 6.94266 54.2099C6.73903 54.2019 6.53912 54.1529 6.35492 54.0657C6.17073 53.9785 6.00606 53.855 5.87081 53.7026C5.73555 53.5501 5.63251 53.3719 5.56786 53.1787C4.08078 49.1211 3.31895 44.8336 3.3172 40.5121C3.3172 36.6721 4.02653 33.1787 5.41319 30.1441C9.51318 21.2108 18.6052 15.4241 28.5598 15.4241C42.5838 15.4241 53.9877 26.6561 53.9877 40.4801C53.9877 45.664 49.7344 49.888 44.4944 49.888C39.2544 49.888 35.0011 45.664 35.0011 40.4801C35.0024 37.0561 32.1358 34.2667 28.5918 34.2667C25.0478 34.2667 22.1811 37.0507 22.1811 40.4747C22.1811 45.9414 24.2158 51.0667 27.9451 54.9067C30.8785 57.9147 33.6785 59.5733 38.0238 60.8267C38.8558 61.0507 39.3184 61.9467 39.1024 62.7787C39.0351 63.1164 38.855 63.4213 38.5917 63.6432C38.3283 63.8651 37.9974 63.9909 37.6531 64Z" fill="white"/>
</svg>
