<svg width="267" height="473" viewBox="0 0 267 473" fill="none" xmlns="http://www.w3.org/2000/svg">
<path d="M93.3032 26.12C92.5832 26.12 91.8232 26.088 91.0232 26.024C90.2232 25.976 89.5032 25.912 88.8632 25.832V23.936H93.1592C94.4872 23.936 95.5032 23.464 96.2072 22.52C96.9112 21.56 97.2632 20.112 97.2632 18.176C96.8312 18.256 96.3432 18.32 95.7992 18.368C95.2712 18.416 94.7352 18.448 94.1912 18.464C93.6472 18.48 93.1352 18.488 92.6552 18.488C91.5672 18.488 90.6632 18.352 89.9432 18.08C89.2232 17.808 88.6872 17.392 88.3352 16.832C87.9832 16.272 87.8072 15.552 87.8072 14.672V12.152C87.8072 11.192 87.9912 10.424 88.3592 9.848C88.7272 9.272 89.2232 8.856 89.8472 8.6C90.4872 8.344 91.1992 8.216 91.9832 8.216H94.6712C95.4552 8.216 96.1592 8.352 96.7832 8.624C97.4072 8.88 97.9272 9.336 98.3432 9.992C98.7752 10.632 99.1032 11.528 99.3272 12.68C99.5672 13.832 99.6872 15.288 99.6872 17.048C99.6872 18.68 99.5432 20.072 99.2552 21.224C98.9672 22.376 98.5432 23.32 97.9832 24.056C97.4392 24.776 96.7752 25.304 95.9912 25.64C95.2072 25.96 94.3112 26.12 93.3032 26.12ZM93.2552 16.424H97.2632C97.2632 15.224 97.1992 14.232 97.0712 13.448C96.9432 12.648 96.7512 12.032 96.4952 11.6C96.2392 11.152 95.9192 10.84 95.5352 10.664C95.1672 10.472 94.7352 10.376 94.2392 10.376H92.4872C92.0552 10.376 91.6632 10.44 91.3112 10.568C90.9752 10.696 90.7032 10.92 90.4952 11.24C90.3032 11.56 90.2072 12.008 90.2072 12.584V14.24C90.2072 14.848 90.3272 15.304 90.5672 15.608C90.8072 15.912 91.1512 16.128 91.5992 16.256C92.0632 16.368 92.6152 16.424 93.2552 16.424ZM103.051 26.024C102.779 26.024 102.643 25.888 102.643 25.616V23.528C102.643 23.24 102.779 23.096 103.051 23.096H104.419C104.707 23.096 104.851 23.24 104.851 23.528V25.616C104.851 25.76 104.811 25.864 104.731 25.928C104.651 25.992 104.547 26.024 104.419 26.024H103.051ZM103.051 16.064C102.779 16.064 102.643 15.928 102.643 15.656V13.568C102.643 13.28 102.779 13.136 103.051 13.136H104.419C104.707 13.136 104.851 13.28 104.851 13.568V15.656C104.851 15.8 104.811 15.904 104.731 15.968C104.651 16.032 104.547 16.064 104.419 16.064H103.051ZM112.386 26.072C111.49 26.072 110.706 25.92 110.034 25.616C109.362 25.296 108.842 24.816 108.474 24.176C108.106 23.536 107.922 22.728 107.922 21.752V12.608C107.922 11.632 108.106 10.816 108.474 10.16C108.842 9.504 109.362 9.008 110.034 8.672C110.722 8.336 111.506 8.168 112.386 8.168H115.914C116.906 8.168 117.714 8.352 118.338 8.72C118.978 9.088 119.45 9.6 119.754 10.256C120.074 10.912 120.234 11.696 120.234 12.608V21.752C120.234 23.208 119.842 24.296 119.058 25.016C118.29 25.72 117.234 26.072 115.89 26.072H112.386ZM112.89 23.888H115.314C116.194 23.888 116.826 23.672 117.21 23.24C117.61 22.808 117.81 22.2 117.81 21.416V12.824C117.81 11.96 117.602 11.328 117.186 10.928C116.77 10.528 116.178 10.328 115.41 10.328H112.818C112.05 10.328 111.442 10.544 110.994 10.976C110.546 11.408 110.322 12.024 110.322 12.824V21.416C110.322 22.248 110.546 22.872 110.994 23.288C111.458 23.688 112.09 23.888 112.89 23.888ZM128.066 26.072C127.17 26.072 126.386 25.92 125.714 25.616C125.042 25.296 124.522 24.816 124.154 24.176C123.786 23.536 123.602 22.728 123.602 21.752V12.608C123.602 11.632 123.786 10.816 124.154 10.16C124.522 9.504 125.042 9.008 125.714 8.672C126.402 8.336 127.186 8.168 128.066 8.168H131.594C132.586 8.168 133.394 8.352 134.018 8.72C134.658 9.088 135.13 9.6 135.434 10.256C135.754 10.912 135.914 11.696 135.914 12.608V21.752C135.914 23.208 135.522 24.296 134.738 25.016C133.97 25.72 132.914 26.072 131.57 26.072H128.066ZM128.57 23.888H130.994C131.874 23.888 132.506 23.672 132.89 23.24C133.29 22.808 133.49 22.2 133.49 21.416V12.824C133.49 11.96 133.282 11.328 132.866 10.928C132.45 10.528 131.858 10.328 131.09 10.328H128.498C127.73 10.328 127.122 10.544 126.674 10.976C126.226 11.408 126.002 12.024 126.002 12.824V21.416C126.002 22.248 126.226 22.872 126.674 23.288C127.138 23.688 127.77 23.888 128.57 23.888ZM144.673 26L150.577 8.312H153.649L159.553 26H157.033L155.473 21.368H148.705L147.169 26H144.673ZM149.281 19.184H154.873L152.089 10.424L149.281 19.184ZM161.514 26L163.53 8.312H165.93L170.442 23.072L174.882 8.312H177.306L179.37 26H177.042L175.314 11.264L175.722 11.312L171.546 26H169.314L165.066 11.312L165.498 11.288L163.842 26H161.514Z" fill="black"/>
<path d="M80.5679 58V47.506C80.5679 46.978 80.6459 46.534 80.8019 46.174C80.9699 45.814 81.1859 45.532 81.4499 45.328C81.7139 45.112 82.0079 44.962 82.3319 44.878C82.6679 44.782 82.9979 44.734 83.3219 44.734C83.8139 44.746 84.3719 44.758 84.9959 44.77C85.6199 44.77 86.2679 44.782 86.9399 44.806C87.6239 44.83 88.2839 44.872 88.9199 44.932V46.408H83.7719C83.3279 46.408 82.9859 46.528 82.7459 46.768C82.5059 47.008 82.3859 47.356 82.3859 47.812V50.89L88.1099 50.998V52.402L82.3859 52.51V58H80.5679ZM90.6389 58V48.37H92.0249L92.4389 49.99C92.8469 49.498 93.3029 49.084 93.8069 48.748C94.3109 48.412 94.8989 48.244 95.5709 48.244C95.7269 48.244 95.8769 48.256 96.0209 48.28C96.1649 48.292 96.3029 48.316 96.4349 48.352V50.206C96.2669 50.182 96.0929 50.164 95.9129 50.152C95.7329 50.128 95.5469 50.116 95.3549 50.116C94.9469 50.116 94.5809 50.164 94.2569 50.26C93.9329 50.356 93.6209 50.506 93.3209 50.71C93.0329 50.902 92.7389 51.142 92.4389 51.43V58H90.6389ZM98.3792 46.75C98.1632 46.75 98.0552 46.648 98.0552 46.444V44.932C98.0552 44.716 98.1632 44.608 98.3792 44.608H99.7112C99.8072 44.608 99.8792 44.638 99.9272 44.698C99.9752 44.758 99.9992 44.836 99.9992 44.932V46.444C99.9992 46.648 99.9032 46.75 99.7112 46.75H98.3792ZM98.1272 58V48.37H99.9272V58H98.1272ZM105.583 58.108C104.803 58.108 104.155 57.94 103.639 57.604C103.135 57.268 102.757 56.746 102.505 56.038C102.253 55.318 102.127 54.394 102.127 53.266C102.127 52.078 102.241 51.118 102.469 50.386C102.709 49.642 103.093 49.102 103.621 48.766C104.149 48.418 104.863 48.244 105.763 48.244C106.267 48.244 106.765 48.298 107.257 48.406C107.761 48.514 108.199 48.634 108.571 48.766V44.266H110.371V58H108.895L108.571 57.046C108.379 57.214 108.115 57.382 107.779 57.55C107.443 57.706 107.083 57.838 106.699 57.946C106.315 58.054 105.943 58.108 105.583 58.108ZM106.159 56.632C106.651 56.632 107.095 56.554 107.491 56.398C107.899 56.242 108.259 56.08 108.571 55.912V50.062C108.199 49.954 107.833 49.858 107.473 49.774C107.125 49.678 106.735 49.63 106.303 49.63C105.739 49.63 105.283 49.732 104.935 49.936C104.587 50.14 104.335 50.5 104.179 51.016C104.023 51.532 103.945 52.252 103.945 53.176C103.945 54.028 104.017 54.712 104.161 55.228C104.305 55.732 104.539 56.092 104.863 56.308C105.199 56.524 105.631 56.632 106.159 56.632ZM114.766 58.108C114.058 58.108 113.47 57.898 113.002 57.478C112.546 57.046 112.318 56.452 112.318 55.696V54.94C112.318 54.196 112.57 53.59 113.074 53.122C113.59 52.642 114.364 52.402 115.396 52.402H118.402V51.394C118.402 51.022 118.336 50.71 118.204 50.458C118.084 50.194 117.856 49.996 117.52 49.864C117.184 49.732 116.686 49.666 116.026 49.666H113.074V48.604C113.506 48.508 114.01 48.424 114.586 48.352C115.174 48.28 115.858 48.238 116.638 48.226C117.43 48.226 118.09 48.328 118.618 48.532C119.158 48.724 119.56 49.048 119.824 49.504C120.088 49.948 120.22 50.542 120.22 51.286V58H118.798L118.492 56.938C118.42 56.986 118.27 57.076 118.042 57.208C117.814 57.328 117.52 57.46 117.16 57.604C116.812 57.748 116.428 57.868 116.008 57.964C115.6 58.06 115.186 58.108 114.766 58.108ZM115.594 56.794C115.774 56.806 115.984 56.788 116.224 56.74C116.476 56.692 116.722 56.638 116.962 56.578C117.214 56.506 117.442 56.434 117.646 56.362C117.862 56.29 118.036 56.23 118.168 56.182C118.312 56.122 118.39 56.086 118.402 56.074V53.302L115.882 53.41C115.258 53.446 114.808 53.602 114.532 53.878C114.268 54.154 114.136 54.514 114.136 54.958V55.39C114.136 55.738 114.208 56.02 114.352 56.236C114.496 56.44 114.676 56.584 114.892 56.668C115.12 56.752 115.354 56.794 115.594 56.794ZM125.384 62.266L126.554 58C126.17 57.988 125.804 57.91 125.456 57.766C125.108 57.61 124.796 57.364 124.52 57.028C124.256 56.68 124.04 56.218 123.872 55.642L121.712 48.37H123.602L125.546 55.264C125.654 55.588 125.774 55.834 125.906 56.002C126.05 56.17 126.188 56.29 126.32 56.362C126.464 56.422 126.59 56.458 126.698 56.47C126.806 56.482 126.872 56.488 126.896 56.488L129.146 48.37H131L127.688 60.484L126.824 62.266H125.384ZM131.94 59.476C131.784 59.476 131.646 59.458 131.526 59.422C131.418 59.398 131.364 59.386 131.364 59.386V58.828C131.508 58.828 131.61 58.804 131.67 58.756C131.742 58.708 131.778 58.624 131.778 58.504V57.892H131.616C131.532 57.892 131.46 57.862 131.4 57.802C131.34 57.742 131.31 57.658 131.31 57.55V56.182C131.31 55.942 131.412 55.822 131.616 55.822H132.624C132.744 55.822 132.822 55.858 132.858 55.93C132.906 55.99 132.93 56.074 132.93 56.182V58.45C132.93 58.738 132.876 58.954 132.768 59.098C132.672 59.254 132.546 59.356 132.39 59.404C132.234 59.452 132.084 59.476 131.94 59.476ZM139.313 58L143.741 44.734H146.045L150.473 58H148.583L147.413 54.526H142.337L141.185 58H139.313ZM142.769 52.888H146.963L144.875 46.318L142.769 52.888ZM154.9 58.108C154 58.108 153.298 57.868 152.794 57.388C152.302 56.896 152.056 56.152 152.056 55.156V48.37H153.856V54.67C153.856 55.39 154.018 55.876 154.342 56.128C154.678 56.38 155.146 56.506 155.746 56.506C156.226 56.506 156.682 56.434 157.114 56.29C157.558 56.134 157.99 55.924 158.41 55.66V48.37H160.21V58H158.77L158.41 56.974C157.942 57.274 157.402 57.538 156.79 57.766C156.19 57.994 155.56 58.108 154.9 58.108ZM165.086 62.428C164.474 62.428 163.928 62.338 163.448 62.158C162.98 61.99 162.608 61.726 162.332 61.366C162.056 61.018 161.918 60.586 161.918 60.07V59.674C161.918 59.134 162.068 58.678 162.368 58.306C162.68 57.946 163.07 57.67 163.538 57.478C164.006 57.286 164.492 57.19 164.996 57.19L165.482 57.856C165.158 57.856 164.852 57.904 164.564 58C164.288 58.108 164.06 58.27 163.88 58.486C163.712 58.714 163.628 59.002 163.628 59.35V59.692C163.628 60.196 163.796 60.562 164.132 60.79C164.48 61.018 164.954 61.132 165.554 61.132H167.66C168.296 61.132 168.8 61.006 169.172 60.754C169.544 60.514 169.73 60.136 169.73 59.62V59.278C169.73 58.99 169.664 58.738 169.532 58.522C169.412 58.306 169.214 58.138 168.938 58.018C168.662 57.91 168.284 57.856 167.804 57.856H165.14C164.288 57.856 163.64 57.682 163.196 57.334C162.752 56.986 162.53 56.548 162.53 56.02C162.53 55.54 162.668 55.156 162.944 54.868C163.232 54.568 163.634 54.364 164.15 54.256C163.718 54.064 163.376 53.818 163.124 53.518C162.884 53.218 162.716 52.894 162.62 52.546C162.524 52.186 162.476 51.826 162.476 51.466C162.476 50.734 162.626 50.14 162.926 49.684C163.226 49.228 163.658 48.892 164.222 48.676C164.798 48.46 165.482 48.352 166.274 48.352H171.458V49.378L169.496 49.576C169.64 49.684 169.796 49.828 169.964 50.008C170.132 50.176 170.276 50.41 170.396 50.71C170.516 51.01 170.576 51.406 170.576 51.898C170.576 52.414 170.462 52.894 170.234 53.338C170.018 53.782 169.658 54.142 169.154 54.418C168.662 54.694 167.99 54.832 167.138 54.832H165.554C165.098 54.832 164.738 54.898 164.474 55.03C164.21 55.162 164.078 55.396 164.078 55.732C164.078 56.008 164.18 56.2 164.384 56.308C164.588 56.416 164.804 56.47 165.032 56.47H168.074C168.806 56.47 169.418 56.566 169.91 56.758C170.414 56.95 170.792 57.244 171.044 57.64C171.296 58.036 171.422 58.552 171.422 59.188V59.53C171.422 60.442 171.122 61.15 170.522 61.654C169.934 62.17 169.04 62.428 167.84 62.428H165.086ZM165.878 53.446H166.94C167.48 53.446 167.888 53.368 168.164 53.212C168.452 53.044 168.65 52.828 168.758 52.564C168.866 52.3 168.92 52.006 168.92 51.682C168.92 51.202 168.842 50.824 168.686 50.548C168.53 50.26 168.314 50.056 168.038 49.936C167.774 49.804 167.45 49.738 167.066 49.738H166.058C165.446 49.738 164.966 49.876 164.618 50.152C164.282 50.428 164.114 50.902 164.114 51.574C164.114 52.234 164.27 52.714 164.582 53.014C164.894 53.302 165.326 53.446 165.878 53.446ZM181.821 58.09C181.281 58.09 180.711 58.066 180.111 58.018C179.511 57.982 178.971 57.934 178.491 57.874V56.452H181.713C182.709 56.452 183.471 56.098 183.999 55.39C184.527 54.67 184.791 53.584 184.791 52.132C184.467 52.192 184.101 52.24 183.693 52.276C183.297 52.312 182.895 52.336 182.487 52.348C182.079 52.36 181.695 52.366 181.335 52.366C180.519 52.366 179.841 52.264 179.301 52.06C178.761 51.856 178.359 51.544 178.095 51.124C177.831 50.704 177.699 50.164 177.699 49.504V47.614C177.699 46.894 177.837 46.318 178.113 45.886C178.389 45.454 178.761 45.142 179.229 44.95C179.709 44.758 180.243 44.662 180.831 44.662H182.847C183.435 44.662 183.963 44.764 184.431 44.968C184.899 45.16 185.289 45.502 185.601 45.994C185.925 46.474 186.171 47.146 186.339 48.01C186.519 48.874 186.609 49.966 186.609 51.286C186.609 52.51 186.501 53.554 186.285 54.418C186.069 55.282 185.751 55.99 185.331 56.542C184.923 57.082 184.425 57.478 183.837 57.73C183.249 57.97 182.577 58.09 181.821 58.09ZM181.785 50.818H184.791C184.791 49.918 184.743 49.174 184.647 48.586C184.551 47.986 184.407 47.524 184.215 47.2C184.023 46.864 183.783 46.63 183.495 46.498C183.219 46.354 182.895 46.282 182.523 46.282H181.209C180.885 46.282 180.591 46.33 180.327 46.426C180.075 46.522 179.871 46.69 179.715 46.93C179.571 47.17 179.499 47.506 179.499 47.938V49.18C179.499 49.636 179.589 49.978 179.769 50.206C179.949 50.434 180.207 50.596 180.543 50.692C180.891 50.776 181.305 50.818 181.785 50.818Z" fill="black"/>
<rect x="53" y="104" width="160" height="160" rx="80" fill="url(#paint0_linear_10_715)"/>
<path d="M150.592 139.904C150.342 139.905 150.097 139.838 149.882 139.712C143.965 136.544 138.849 135.2 132.716 135.2C126.613 135.2 120.818 136.704 115.548 139.712C114.803 140.133 113.884 139.84 113.452 139.067C113.259 138.694 113.216 138.261 113.33 137.857C113.445 137.453 113.709 137.107 114.069 136.891C119.754 133.667 126.181 131.981 132.716 132C139.28 132 145.013 133.504 151.301 136.864C151.668 137.066 151.941 137.403 152.062 137.804C152.183 138.205 152.142 138.637 151.948 139.008C151.831 139.271 151.641 139.496 151.401 139.655C151.161 139.813 150.88 139.9 150.592 139.904ZM106.487 156.704C106.166 156.702 105.854 156.601 105.593 156.416C105.253 156.163 105.025 155.789 104.956 155.371C104.886 154.953 104.982 154.525 105.223 154.176C108.275 149.696 112.156 146.176 116.781 143.712C126.458 138.533 138.849 138.496 148.557 143.68C153.181 146.144 157.064 149.632 160.116 154.08C160.355 154.429 160.45 154.857 160.381 155.275C160.312 155.692 160.084 156.067 159.745 156.32C159.581 156.443 159.393 156.531 159.193 156.578C158.993 156.626 158.785 156.632 158.583 156.596C158.381 156.56 158.188 156.483 158.017 156.369C157.846 156.256 157.7 156.108 157.588 155.936C154.814 151.904 151.301 148.736 147.14 146.528C138.294 141.824 126.982 141.824 118.168 146.56C113.976 148.8 110.463 152 107.689 156.027C107.57 156.239 107.394 156.414 107.182 156.533C106.97 156.653 106.73 156.712 106.487 156.704ZM125.749 195.333C125.545 195.335 125.344 195.293 125.158 195.211C124.972 195.128 124.805 195.006 124.67 194.853C121.989 192.064 120.536 190.267 118.476 186.4C116.343 182.464 115.24 177.664 115.24 172.512C115.24 163.008 123.068 155.264 132.685 155.264C142.302 155.264 150.136 163.008 150.136 172.512C150.142 172.718 150.106 172.923 150.032 173.116C149.957 173.308 149.845 173.483 149.701 173.631C149.557 173.779 149.385 173.897 149.195 173.977C149.005 174.057 148.801 174.099 148.595 174.099C148.389 174.099 148.185 174.057 147.995 173.977C147.805 173.897 147.633 173.779 147.489 173.631C147.346 173.483 147.233 173.308 147.158 173.116C147.084 172.923 147.048 172.718 147.054 172.512C147.054 164.768 140.612 158.464 132.692 158.464C124.772 158.464 118.323 164.768 118.323 172.512C118.323 177.12 119.308 181.376 121.188 184.832C123.161 188.512 124.521 190.08 126.89 192.576C127.171 192.887 127.327 193.291 127.327 193.709C127.327 194.128 127.171 194.532 126.89 194.843C126.588 195.148 126.179 195.324 125.749 195.333ZM147.849 189.413C144.181 189.413 140.945 188.453 138.294 186.565C136.036 184.982 134.191 182.88 132.915 180.435C131.639 177.991 130.969 175.275 130.961 172.517C130.952 172.31 130.986 172.102 131.06 171.908C131.133 171.713 131.245 171.535 131.389 171.385C131.533 171.235 131.706 171.116 131.897 171.034C132.089 170.953 132.294 170.911 132.502 170.911C132.71 170.911 132.916 170.953 133.108 171.034C133.299 171.116 133.472 171.235 133.616 171.385C133.76 171.535 133.872 171.713 133.945 171.908C134.019 172.102 134.052 172.31 134.044 172.517C134.049 174.757 134.595 176.963 135.636 178.946C136.677 180.93 138.182 182.633 140.022 183.909C142.21 185.445 144.769 186.176 147.852 186.176C148.925 186.157 149.996 186.05 151.052 185.856C151.884 185.696 152.685 186.272 152.838 187.168C152.917 187.582 152.827 188.009 152.591 188.357C152.354 188.705 151.989 188.945 151.576 189.024C150.348 189.267 149.1 189.395 147.849 189.408V189.413ZM141.653 196C141.518 195.994 141.383 195.973 141.253 195.936C136.352 194.528 133.146 192.64 129.786 189.216C125.47 184.768 123.098 178.848 123.098 172.512C123.098 167.328 127.352 163.104 132.59 163.104C137.829 163.104 142.084 167.328 142.084 172.512C142.084 175.936 144.95 178.72 148.494 178.72C152.038 178.72 154.905 175.936 154.905 172.512C154.905 160.448 144.888 150.656 132.56 150.656C123.806 150.656 115.793 155.712 112.188 163.552C110.988 166.144 110.369 169.184 110.369 172.512C110.369 175.008 110.584 178.944 112.433 184.064C112.743 184.896 112.341 185.824 111.54 186.112C111.349 186.185 111.146 186.218 110.943 186.21C110.739 186.202 110.539 186.153 110.355 186.066C110.171 185.979 110.006 185.855 109.871 185.703C109.736 185.55 109.633 185.372 109.568 185.179C108.081 181.121 107.319 176.834 107.317 172.512C107.317 168.672 108.027 165.179 109.413 162.144C113.513 153.211 122.605 147.424 132.56 147.424C146.584 147.424 157.988 158.656 157.988 172.48C157.988 177.664 153.734 181.888 148.494 181.888C143.254 181.888 139.001 177.664 139.001 172.48C139.002 169.056 136.136 166.267 132.592 166.267C129.048 166.267 126.181 169.051 126.181 172.475C126.181 177.941 128.216 183.067 131.945 186.907C134.878 189.915 137.678 191.573 142.024 192.827C142.856 193.051 143.318 193.947 143.102 194.779C143.035 195.116 142.855 195.421 142.592 195.643C142.328 195.865 141.997 195.991 141.653 196Z" fill="white"/>
<path d="M96.914 228.108C96.122 228.108 95.432 228.018 94.844 227.838C94.256 227.658 93.764 227.334 93.368 226.866C92.972 226.386 92.678 225.702 92.486 224.814C92.294 223.914 92.198 222.75 92.198 221.322C92.198 219.978 92.294 218.868 92.486 217.992C92.69 217.116 92.99 216.432 93.386 215.94C93.794 215.448 94.298 215.106 94.898 214.914C95.498 214.722 96.194 214.626 96.986 214.626C97.43 214.626 97.886 214.65 98.354 214.698C98.834 214.746 99.29 214.812 99.722 214.896C100.166 214.968 100.562 215.052 100.91 215.148V216.516C100.694 216.48 100.4 216.444 100.028 216.408C99.656 216.36 99.236 216.324 98.768 216.3C98.3 216.264 97.814 216.246 97.31 216.246C96.71 216.246 96.2 216.318 95.78 216.462C95.36 216.594 95.018 216.846 94.754 217.218C94.49 217.578 94.298 218.094 94.178 218.766C94.058 219.426 93.998 220.284 93.998 221.34C93.998 222.408 94.052 223.284 94.16 223.968C94.28 224.64 94.466 225.162 94.718 225.534C94.97 225.894 95.306 226.146 95.726 226.29C96.146 226.422 96.668 226.488 97.292 226.488C98.192 226.488 98.93 226.464 99.506 226.416C100.082 226.368 100.55 226.32 100.91 226.272V227.658C100.55 227.742 100.154 227.82 99.722 227.892C99.29 227.964 98.834 228.018 98.354 228.054C97.886 228.09 97.406 228.108 96.914 228.108ZM102.945 228V214.266H104.745V219.414C105.165 219.102 105.675 218.826 106.275 218.586C106.875 218.334 107.493 218.208 108.129 218.208C108.825 218.208 109.389 218.352 109.821 218.64C110.265 218.928 110.589 219.324 110.793 219.828C110.997 220.32 111.099 220.878 111.099 221.502V228H109.299V221.718C109.299 221.346 109.221 221.022 109.065 220.746C108.921 220.458 108.711 220.236 108.435 220.08C108.171 219.924 107.853 219.846 107.481 219.846C107.121 219.846 106.785 219.882 106.473 219.954C106.173 220.026 105.885 220.128 105.609 220.26C105.333 220.392 105.045 220.542 104.745 220.71V228H102.945ZM117.36 228.108C116.34 228.108 115.524 227.958 114.912 227.658C114.312 227.358 113.88 226.854 113.616 226.146C113.364 225.426 113.238 224.436 113.238 223.176C113.238 221.892 113.364 220.896 113.616 220.188C113.88 219.468 114.312 218.964 114.912 218.676C115.512 218.388 116.322 218.244 117.342 218.244C118.23 218.244 118.944 218.34 119.484 218.532C120.036 218.712 120.438 219.042 120.69 219.522C120.954 219.99 121.086 220.644 121.086 221.484C121.086 222.072 120.966 222.54 120.726 222.888C120.498 223.236 120.168 223.488 119.736 223.644C119.316 223.8 118.812 223.878 118.224 223.878H115.038C115.05 224.574 115.128 225.132 115.272 225.552C115.428 225.96 115.698 226.26 116.082 226.452C116.478 226.632 117.054 226.722 117.81 226.722H120.816V227.802C120.3 227.874 119.772 227.94 119.232 228C118.692 228.072 118.068 228.108 117.36 228.108ZM115.02 222.744H118.062C118.542 222.744 118.896 222.654 119.124 222.474C119.352 222.294 119.466 221.964 119.466 221.484C119.466 221.004 119.394 220.626 119.25 220.35C119.118 220.074 118.896 219.876 118.584 219.756C118.272 219.636 117.858 219.576 117.342 219.576C116.754 219.576 116.286 219.666 115.938 219.846C115.602 220.026 115.362 220.344 115.218 220.8C115.086 221.256 115.02 221.904 115.02 222.744ZM126.864 228.108C126.3 228.108 125.778 228.036 125.298 227.892C124.83 227.736 124.416 227.478 124.056 227.118C123.708 226.758 123.438 226.26 123.246 225.624C123.054 224.988 122.958 224.184 122.958 223.212C122.958 222.216 123.048 221.4 123.228 220.764C123.408 220.116 123.666 219.612 124.002 219.252C124.35 218.88 124.77 218.622 125.262 218.478C125.754 218.334 126.306 218.262 126.918 218.262C127.422 218.262 127.95 218.286 128.502 218.334C129.066 218.382 129.612 218.46 130.14 218.568V219.63H127.422C126.834 219.63 126.342 219.726 125.946 219.918C125.55 220.098 125.256 220.452 125.064 220.98C124.872 221.496 124.776 222.246 124.776 223.23C124.776 224.178 124.878 224.91 125.082 225.426C125.286 225.93 125.58 226.272 125.964 226.452C126.36 226.632 126.852 226.722 127.44 226.722H130.284V227.748C130.008 227.82 129.678 227.886 129.294 227.946C128.922 227.994 128.526 228.03 128.106 228.054C127.698 228.09 127.284 228.108 126.864 228.108ZM132.107 228V214.266H133.907V222.06H135.221L137.903 218.37H139.775L136.553 222.87L140.009 228H138.119L135.167 223.68H133.907V228H132.107ZM151.225 228.108C150.361 228.108 149.599 228.024 148.939 227.856C148.291 227.688 147.745 227.376 147.301 226.92C146.869 226.464 146.545 225.792 146.329 224.904C146.113 224.016 146.005 222.852 146.005 221.412C146.005 219.972 146.113 218.808 146.329 217.92C146.545 217.02 146.875 216.336 147.319 215.868C147.763 215.388 148.309 215.064 148.957 214.896C149.605 214.716 150.361 214.626 151.225 214.626C152.113 214.626 152.881 214.716 153.529 214.896C154.189 215.064 154.735 215.388 155.167 215.868C155.599 216.336 155.923 217.02 156.139 217.92C156.355 218.808 156.463 219.972 156.463 221.412C156.463 222.852 156.355 224.016 156.139 224.904C155.923 225.792 155.593 226.464 155.149 226.92C154.717 227.376 154.171 227.688 153.511 227.856C152.863 228.024 152.101 228.108 151.225 228.108ZM151.225 226.488C151.849 226.488 152.377 226.422 152.809 226.29C153.253 226.158 153.607 225.918 153.871 225.57C154.147 225.21 154.345 224.7 154.465 224.04C154.585 223.368 154.645 222.492 154.645 221.412C154.645 220.272 154.579 219.36 154.447 218.676C154.327 217.992 154.135 217.476 153.871 217.128C153.607 216.78 153.253 216.546 152.809 216.426C152.377 216.306 151.849 216.246 151.225 216.246C150.637 216.246 150.127 216.306 149.695 216.426C149.263 216.546 148.909 216.78 148.633 217.128C148.357 217.476 148.147 217.992 148.003 218.676C147.871 219.36 147.805 220.272 147.805 221.412C147.805 222.492 147.859 223.368 147.967 224.04C148.087 224.7 148.279 225.21 148.543 225.57C148.819 225.918 149.173 226.158 149.605 226.29C150.049 226.422 150.589 226.488 151.225 226.488ZM161.528 228.108C160.628 228.108 159.926 227.868 159.422 227.388C158.93 226.896 158.684 226.152 158.684 225.156V218.37H160.484V224.67C160.484 225.39 160.646 225.876 160.97 226.128C161.306 226.38 161.774 226.506 162.374 226.506C162.854 226.506 163.31 226.434 163.742 226.29C164.186 226.134 164.618 225.924 165.038 225.66V218.37H166.838V228H165.398L165.038 226.974C164.57 227.274 164.03 227.538 163.418 227.766C162.818 227.994 162.188 228.108 161.528 228.108ZM172.65 228C172.002 228 171.462 227.898 171.03 227.694C170.61 227.478 170.298 227.136 170.094 226.668C169.902 226.2 169.812 225.576 169.824 224.796L169.896 219.846H168.366V218.676L169.932 218.37L170.202 215.67H171.624V218.37H174.234V219.846H171.624V224.778C171.624 225.15 171.66 225.45 171.732 225.678C171.804 225.906 171.906 226.08 172.038 226.2C172.17 226.32 172.314 226.41 172.47 226.47C172.626 226.518 172.776 226.548 172.92 226.56L174.108 226.668V228H172.65Z" fill="white"/>
<path d="M9.096 361.048C8.49867 361.048 7.976 360.947 7.528 360.744C7.08 360.531 6.73333 360.211 6.488 359.784C6.24267 359.357 6.12 358.819 6.12 358.168V352.072C6.12 351.421 6.24267 350.877 6.488 350.44C6.73333 350.003 7.08 349.672 7.528 349.448C7.98667 349.224 8.50933 349.112 9.096 349.112H11.448C12.1093 349.112 12.648 349.235 13.064 349.48C13.4907 349.725 13.8053 350.067 14.008 350.504C14.2213 350.941 14.328 351.464 14.328 352.072V358.168C14.328 359.139 14.0667 359.864 13.544 360.344C13.032 360.813 12.328 361.048 11.432 361.048H9.096ZM9.432 359.592H11.048C11.6347 359.592 12.056 359.448 12.312 359.16C12.5787 358.872 12.712 358.467 12.712 357.944V352.216C12.712 351.64 12.5733 351.219 12.296 350.952C12.0187 350.685 11.624 350.552 11.112 350.552H9.384C8.872 350.552 8.46667 350.696 8.168 350.984C7.86933 351.272 7.72 351.683 7.72 352.216V357.944C7.72 358.499 7.86933 358.915 8.168 359.192C8.47733 359.459 8.89867 359.592 9.432 359.592ZM16.6851 361.016C16.5038 361.016 16.4131 360.925 16.4131 360.744V359.352C16.4131 359.16 16.5038 359.064 16.6851 359.064H17.5971C17.7891 359.064 17.8851 359.16 17.8851 359.352V360.744C17.8851 360.84 17.8585 360.909 17.8051 360.952C17.7518 360.995 17.6825 361.016 17.5971 361.016H16.6851ZM16.6851 354.376C16.5038 354.376 16.4131 354.285 16.4131 354.104V352.712C16.4131 352.52 16.5038 352.424 16.6851 352.424H17.5971C17.7891 352.424 17.8851 352.52 17.8851 352.712V354.104C17.8851 354.2 17.8585 354.269 17.8051 354.312C17.7518 354.355 17.6825 354.376 17.5971 354.376H16.6851ZM22.9085 361.048C22.3112 361.048 21.7885 360.947 21.3405 360.744C20.8925 360.531 20.5458 360.211 20.3005 359.784C20.0552 359.357 19.9325 358.819 19.9325 358.168V352.072C19.9325 351.421 20.0552 350.877 20.3005 350.44C20.5458 350.003 20.8925 349.672 21.3405 349.448C21.7992 349.224 22.3218 349.112 22.9085 349.112H25.2605C25.9218 349.112 26.4605 349.235 26.8765 349.48C27.3032 349.725 27.6178 350.067 27.8205 350.504C28.0338 350.941 28.1405 351.464 28.1405 352.072V358.168C28.1405 359.139 27.8792 359.864 27.3565 360.344C26.8445 360.813 26.1405 361.048 25.2445 361.048H22.9085ZM23.2445 359.592H24.8605C25.4472 359.592 25.8685 359.448 26.1245 359.16C26.3912 358.872 26.5245 358.467 26.5245 357.944V352.216C26.5245 351.64 26.3858 351.219 26.1085 350.952C25.8312 350.685 25.4365 350.552 24.9245 350.552H23.1965C22.6845 350.552 22.2792 350.696 21.9805 350.984C21.6818 351.272 21.5325 351.683 21.5325 352.216V357.944C21.5325 358.499 21.6818 358.915 21.9805 359.192C22.2898 359.459 22.7112 359.592 23.2445 359.592ZM33.3616 361.048C32.7643 361.048 32.2416 360.947 31.7936 360.744C31.3456 360.531 30.999 360.211 30.7536 359.784C30.5083 359.357 30.3856 358.819 30.3856 358.168V352.072C30.3856 351.421 30.5083 350.877 30.7536 350.44C30.999 350.003 31.3456 349.672 31.7936 349.448C32.2523 349.224 32.775 349.112 33.3616 349.112H35.7136C36.375 349.112 36.9136 349.235 37.3296 349.48C37.7563 349.725 38.071 350.067 38.2736 350.504C38.487 350.941 38.5936 351.464 38.5936 352.072V358.168C38.5936 359.139 38.3323 359.864 37.8096 360.344C37.2976 360.813 36.5936 361.048 35.6976 361.048H33.3616ZM33.6976 359.592H35.3136C35.9003 359.592 36.3216 359.448 36.5776 359.16C36.8443 358.872 36.9776 358.467 36.9776 357.944V352.216C36.9776 351.64 36.839 351.219 36.5616 350.952C36.2843 350.685 35.8896 350.552 35.3776 350.552H33.6496C33.1376 350.552 32.7323 350.696 32.4336 350.984C32.135 351.272 31.9856 351.683 31.9856 352.216V357.944C31.9856 358.499 32.135 358.915 32.4336 359.192C32.743 359.459 33.1643 359.592 33.6976 359.592Z" fill="black"/>
<path d="M3.804 388.072C3.276 388.072 2.816 388.012 2.424 387.892C2.032 387.772 1.704 387.556 1.44 387.244C1.176 386.924 0.98 386.468 0.852 385.876C0.724 385.276 0.66 384.5 0.66 383.548C0.66 382.652 0.724 381.912 0.852 381.328C0.988 380.744 1.188 380.288 1.452 379.96C1.724 379.632 2.06 379.404 2.46 379.276C2.86 379.148 3.324 379.084 3.852 379.084C4.148 379.084 4.452 379.1 4.764 379.132C5.084 379.164 5.388 379.208 5.676 379.264C5.972 379.312 6.236 379.368 6.468 379.432V380.344C6.324 380.32 6.128 380.296 5.88 380.272C5.632 380.24 5.352 380.216 5.04 380.2C4.728 380.176 4.404 380.164 4.068 380.164C3.668 380.164 3.328 380.212 3.048 380.308C2.768 380.396 2.54 380.564 2.364 380.812C2.188 381.052 2.06 381.396 1.98 381.844C1.9 382.284 1.86 382.856 1.86 383.56C1.86 384.272 1.896 384.856 1.968 385.312C2.048 385.76 2.172 386.108 2.34 386.356C2.508 386.596 2.732 386.764 3.012 386.86C3.292 386.948 3.64 386.992 4.056 386.992C4.656 386.992 5.148 386.976 5.532 386.944C5.916 386.912 6.228 386.88 6.468 386.848V387.772C6.228 387.828 5.964 387.88 5.676 387.928C5.388 387.976 5.084 388.012 4.764 388.036C4.452 388.06 4.132 388.072 3.804 388.072ZM7.82438 388V378.844H9.02438V382.276C9.30438 382.068 9.64438 381.884 10.0444 381.724C10.4444 381.556 10.8564 381.472 11.2804 381.472C11.7444 381.472 12.1204 381.568 12.4084 381.76C12.7044 381.952 12.9204 382.216 13.0564 382.552C13.1924 382.88 13.2604 383.252 13.2604 383.668V388H12.0604V383.812C12.0604 383.564 12.0084 383.348 11.9044 383.164C11.8084 382.972 11.6684 382.824 11.4844 382.72C11.3084 382.616 11.0964 382.564 10.8484 382.564C10.6084 382.564 10.3844 382.588 10.1764 382.636C9.97638 382.684 9.78438 382.752 9.60038 382.84C9.41638 382.928 9.22438 383.028 9.02438 383.14V388H7.82438ZM17.4345 388.072C16.7545 388.072 16.2105 387.972 15.8025 387.772C15.4025 387.572 15.1145 387.236 14.9385 386.764C14.7705 386.284 14.6865 385.624 14.6865 384.784C14.6865 383.928 14.7705 383.264 14.9385 382.792C15.1145 382.312 15.4025 381.976 15.8025 381.784C16.2025 381.592 16.7425 381.496 17.4225 381.496C18.0145 381.496 18.4905 381.56 18.8505 381.688C19.2185 381.808 19.4865 382.028 19.6545 382.348C19.8305 382.66 19.9185 383.096 19.9185 383.656C19.9185 384.048 19.8385 384.36 19.6785 384.592C19.5265 384.824 19.3065 384.992 19.0185 385.096C18.7385 385.2 18.4025 385.252 18.0105 385.252H15.8865C15.8945 385.716 15.9465 386.088 16.0425 386.368C16.1465 386.64 16.3265 386.84 16.5825 386.968C16.8465 387.088 17.2305 387.148 17.7345 387.148H19.7385V387.868C19.3945 387.916 19.0425 387.96 18.6825 388C18.3225 388.048 17.9065 388.072 17.4345 388.072ZM15.8745 384.496H17.9025C18.2225 384.496 18.4585 384.436 18.6105 384.316C18.7625 384.196 18.8385 383.976 18.8385 383.656C18.8385 383.336 18.7905 383.084 18.6945 382.9C18.6065 382.716 18.4585 382.584 18.2505 382.504C18.0425 382.424 17.7665 382.384 17.4225 382.384C17.0305 382.384 16.7185 382.444 16.4865 382.564C16.2625 382.684 16.1025 382.896 16.0065 383.2C15.9185 383.504 15.8745 383.936 15.8745 384.496ZM23.771 388.072C23.395 388.072 23.047 388.024 22.727 387.928C22.415 387.824 22.139 387.652 21.899 387.412C21.667 387.172 21.487 386.84 21.359 386.416C21.231 385.992 21.167 385.456 21.167 384.808C21.167 384.144 21.227 383.6 21.347 383.176C21.467 382.744 21.639 382.408 21.863 382.168C22.095 381.92 22.375 381.748 22.703 381.652C23.031 381.556 23.399 381.508 23.807 381.508C24.143 381.508 24.495 381.524 24.863 381.556C25.239 381.588 25.603 381.64 25.955 381.712V382.42H24.143C23.751 382.42 23.423 382.484 23.159 382.612C22.895 382.732 22.699 382.968 22.571 383.32C22.443 383.664 22.379 384.164 22.379 384.82C22.379 385.452 22.447 385.94 22.583 386.284C22.719 386.62 22.915 386.848 23.171 386.968C23.435 387.088 23.763 387.148 24.155 387.148H26.051V387.832C25.867 387.88 25.647 387.924 25.391 387.964C25.143 387.996 24.879 388.02 24.599 388.036C24.327 388.06 24.051 388.072 23.771 388.072ZM27.2658 388V378.844H28.4658V384.04H29.3418L31.1298 381.58H32.3778L30.2298 384.58L32.5338 388H31.2738L29.3058 385.12H28.4658V388H27.2658ZM36.7471 388V379.156H37.9591V388H36.7471ZM39.6759 388V381.58H40.6359L40.8759 382.276C41.1639 382.068 41.5039 381.884 41.8959 381.724C42.2959 381.556 42.7079 381.472 43.1319 381.472C43.6119 381.472 43.9959 381.576 44.2839 381.784C44.5799 381.984 44.7919 382.252 44.9199 382.588C45.0479 382.924 45.1119 383.288 45.1119 383.68V388H43.9119V383.824C43.9119 383.568 43.8599 383.348 43.7559 383.164C43.6599 382.972 43.5239 382.824 43.3479 382.72C43.1719 382.616 42.9559 382.564 42.6999 382.564C42.4599 382.564 42.2359 382.588 42.0279 382.636C41.8279 382.684 41.6359 382.752 41.4519 382.84C41.2679 382.92 41.0759 383.02 40.8759 383.14V388H39.6759Z" fill="black"/>
<path d="M108.737 361.048C108.139 361.048 107.617 360.947 107.169 360.744C106.721 360.531 106.374 360.211 106.129 359.784C105.883 359.357 105.761 358.819 105.761 358.168V352.072C105.761 351.421 105.883 350.877 106.129 350.44C106.374 350.003 106.721 349.672 107.169 349.448C107.627 349.224 108.15 349.112 108.737 349.112H111.089C111.75 349.112 112.289 349.235 112.705 349.48C113.131 349.725 113.446 350.067 113.649 350.504C113.862 350.941 113.969 351.464 113.969 352.072V358.168C113.969 359.139 113.707 359.864 113.185 360.344C112.673 360.813 111.969 361.048 111.073 361.048H108.737ZM109.073 359.592H110.689C111.275 359.592 111.697 359.448 111.953 359.16C112.219 358.872 112.353 358.467 112.353 357.944V352.216C112.353 351.64 112.214 351.219 111.937 350.952C111.659 350.685 111.265 350.552 110.753 350.552H109.025C108.513 350.552 108.107 350.696 107.809 350.984C107.51 351.272 107.361 351.683 107.361 352.216V357.944C107.361 358.499 107.51 358.915 107.809 359.192C108.118 359.459 108.539 359.592 109.073 359.592ZM116.326 361.016C116.144 361.016 116.054 360.925 116.054 360.744V359.352C116.054 359.16 116.144 359.064 116.326 359.064H117.238C117.43 359.064 117.526 359.16 117.526 359.352V360.744C117.526 360.84 117.499 360.909 117.446 360.952C117.392 360.995 117.323 361.016 117.238 361.016H116.326ZM116.326 354.376C116.144 354.376 116.054 354.285 116.054 354.104V352.712C116.054 352.52 116.144 352.424 116.326 352.424H117.238C117.43 352.424 117.526 352.52 117.526 352.712V354.104C117.526 354.2 117.499 354.269 117.446 354.312C117.392 354.355 117.323 354.376 117.238 354.376H116.326ZM122.549 361.048C121.952 361.048 121.429 360.947 120.981 360.744C120.533 360.531 120.186 360.211 119.941 359.784C119.696 359.357 119.573 358.819 119.573 358.168V352.072C119.573 351.421 119.696 350.877 119.941 350.44C120.186 350.003 120.533 349.672 120.981 349.448C121.44 349.224 121.962 349.112 122.549 349.112H124.901C125.562 349.112 126.101 349.235 126.517 349.48C126.944 349.725 127.258 350.067 127.461 350.504C127.674 350.941 127.781 351.464 127.781 352.072V358.168C127.781 359.139 127.52 359.864 126.997 360.344C126.485 360.813 125.781 361.048 124.885 361.048H122.549ZM122.885 359.592H124.501C125.088 359.592 125.509 359.448 125.765 359.16C126.032 358.872 126.165 358.467 126.165 357.944V352.216C126.165 351.64 126.026 351.219 125.749 350.952C125.472 350.685 125.077 350.552 124.565 350.552H122.837C122.325 350.552 121.92 350.696 121.621 350.984C121.322 351.272 121.173 351.683 121.173 352.216V357.944C121.173 358.499 121.322 358.915 121.621 359.192C121.93 359.459 122.352 359.592 122.885 359.592ZM133.002 361.048C132.405 361.048 131.882 360.947 131.434 360.744C130.986 360.531 130.64 360.211 130.394 359.784C130.149 359.357 130.026 358.819 130.026 358.168V352.072C130.026 351.421 130.149 350.877 130.394 350.44C130.64 350.003 130.986 349.672 131.434 349.448C131.893 349.224 132.416 349.112 133.002 349.112H135.354C136.016 349.112 136.554 349.235 136.97 349.48C137.397 349.725 137.712 350.067 137.914 350.504C138.128 350.941 138.234 351.464 138.234 352.072V358.168C138.234 359.139 137.973 359.864 137.45 360.344C136.938 360.813 136.234 361.048 135.338 361.048H133.002ZM133.338 359.592H134.954C135.541 359.592 135.962 359.448 136.218 359.16C136.485 358.872 136.618 358.467 136.618 357.944V352.216C136.618 351.64 136.48 351.219 136.202 350.952C135.925 350.685 135.53 350.552 135.018 350.552H133.29C132.778 350.552 132.373 350.696 132.074 350.984C131.776 351.272 131.626 351.683 131.626 352.216V357.944C131.626 358.499 131.776 358.915 132.074 359.192C132.384 359.459 132.805 359.592 133.338 359.592Z" fill="black"/>
<path d="M97.804 388.072C97.276 388.072 96.816 388.012 96.424 387.892C96.032 387.772 95.704 387.556 95.44 387.244C95.176 386.924 94.98 386.468 94.852 385.876C94.724 385.276 94.66 384.5 94.66 383.548C94.66 382.652 94.724 381.912 94.852 381.328C94.988 380.744 95.188 380.288 95.452 379.96C95.724 379.632 96.06 379.404 96.46 379.276C96.86 379.148 97.324 379.084 97.852 379.084C98.148 379.084 98.452 379.1 98.764 379.132C99.084 379.164 99.388 379.208 99.676 379.264C99.972 379.312 100.236 379.368 100.468 379.432V380.344C100.324 380.32 100.128 380.296 99.88 380.272C99.632 380.24 99.352 380.216 99.04 380.2C98.728 380.176 98.404 380.164 98.068 380.164C97.668 380.164 97.328 380.212 97.048 380.308C96.768 380.396 96.54 380.564 96.364 380.812C96.188 381.052 96.06 381.396 95.98 381.844C95.9 382.284 95.86 382.856 95.86 383.56C95.86 384.272 95.896 384.856 95.968 385.312C96.048 385.76 96.172 386.108 96.34 386.356C96.508 386.596 96.732 386.764 97.012 386.86C97.292 386.948 97.64 386.992 98.056 386.992C98.656 386.992 99.148 386.976 99.532 386.944C99.916 386.912 100.228 386.88 100.468 386.848V387.772C100.228 387.828 99.964 387.88 99.676 387.928C99.388 387.976 99.084 388.012 98.764 388.036C98.452 388.06 98.132 388.072 97.804 388.072ZM101.824 388V378.844H103.024V382.276C103.304 382.068 103.644 381.884 104.044 381.724C104.444 381.556 104.856 381.472 105.28 381.472C105.744 381.472 106.12 381.568 106.408 381.76C106.704 381.952 106.92 382.216 107.056 382.552C107.192 382.88 107.26 383.252 107.26 383.668V388H106.06V383.812C106.06 383.564 106.008 383.348 105.904 383.164C105.808 382.972 105.668 382.824 105.484 382.72C105.308 382.616 105.096 382.564 104.848 382.564C104.608 382.564 104.384 382.588 104.176 382.636C103.976 382.684 103.784 382.752 103.6 382.84C103.416 382.928 103.224 383.028 103.024 383.14V388H101.824ZM111.435 388.072C110.755 388.072 110.211 387.972 109.803 387.772C109.403 387.572 109.115 387.236 108.939 386.764C108.771 386.284 108.687 385.624 108.687 384.784C108.687 383.928 108.771 383.264 108.939 382.792C109.115 382.312 109.403 381.976 109.803 381.784C110.203 381.592 110.743 381.496 111.423 381.496C112.015 381.496 112.491 381.56 112.851 381.688C113.219 381.808 113.487 382.028 113.655 382.348C113.831 382.66 113.919 383.096 113.919 383.656C113.919 384.048 113.839 384.36 113.679 384.592C113.527 384.824 113.307 384.992 113.019 385.096C112.739 385.2 112.403 385.252 112.011 385.252H109.887C109.895 385.716 109.947 386.088 110.043 386.368C110.147 386.64 110.327 386.84 110.583 386.968C110.847 387.088 111.231 387.148 111.735 387.148H113.739V387.868C113.395 387.916 113.043 387.96 112.683 388C112.323 388.048 111.907 388.072 111.435 388.072ZM109.875 384.496H111.903C112.223 384.496 112.459 384.436 112.611 384.316C112.763 384.196 112.839 383.976 112.839 383.656C112.839 383.336 112.791 383.084 112.695 382.9C112.607 382.716 112.459 382.584 112.251 382.504C112.043 382.424 111.767 382.384 111.423 382.384C111.031 382.384 110.719 382.444 110.487 382.564C110.263 382.684 110.103 382.896 110.007 383.2C109.919 383.504 109.875 383.936 109.875 384.496ZM117.771 388.072C117.395 388.072 117.047 388.024 116.727 387.928C116.415 387.824 116.139 387.652 115.899 387.412C115.667 387.172 115.487 386.84 115.359 386.416C115.231 385.992 115.167 385.456 115.167 384.808C115.167 384.144 115.227 383.6 115.347 383.176C115.467 382.744 115.639 382.408 115.863 382.168C116.095 381.92 116.375 381.748 116.703 381.652C117.031 381.556 117.399 381.508 117.807 381.508C118.143 381.508 118.495 381.524 118.863 381.556C119.239 381.588 119.603 381.64 119.955 381.712V382.42H118.143C117.751 382.42 117.423 382.484 117.159 382.612C116.895 382.732 116.699 382.968 116.571 383.32C116.443 383.664 116.379 384.164 116.379 384.82C116.379 385.452 116.447 385.94 116.583 386.284C116.719 386.62 116.915 386.848 117.171 386.968C117.435 387.088 117.763 387.148 118.155 387.148H120.051V387.832C119.867 387.88 119.647 387.924 119.391 387.964C119.143 387.996 118.879 388.02 118.599 388.036C118.327 388.06 118.051 388.072 117.771 388.072ZM121.266 388V378.844H122.466V384.04H123.342L125.13 381.58H126.378L124.23 384.58L126.534 388H125.274L123.306 385.12H122.466V388H121.266ZM134.011 388.072C133.435 388.072 132.927 388.016 132.487 387.904C132.055 387.792 131.691 387.584 131.395 387.28C131.107 386.976 130.891 386.528 130.747 385.936C130.603 385.344 130.531 384.568 130.531 383.608C130.531 382.648 130.603 381.872 130.747 381.28C130.891 380.68 131.111 380.224 131.407 379.912C131.703 379.592 132.067 379.376 132.499 379.264C132.931 379.144 133.435 379.084 134.011 379.084C134.603 379.084 135.115 379.144 135.547 379.264C135.987 379.376 136.351 379.592 136.639 379.912C136.927 380.224 137.143 380.68 137.287 381.28C137.431 381.872 137.503 382.648 137.503 383.608C137.503 384.568 137.431 385.344 137.287 385.936C137.143 386.528 136.923 386.976 136.627 387.28C136.339 387.584 135.975 387.792 135.535 387.904C135.103 388.016 134.595 388.072 134.011 388.072ZM134.011 386.992C134.427 386.992 134.779 386.948 135.067 386.86C135.363 386.772 135.599 386.612 135.775 386.38C135.959 386.14 136.091 385.8 136.171 385.36C136.251 384.912 136.291 384.328 136.291 383.608C136.291 382.848 136.247 382.24 136.159 381.784C136.079 381.328 135.951 380.984 135.775 380.752C135.599 380.52 135.363 380.364 135.067 380.284C134.779 380.204 134.427 380.164 134.011 380.164C133.619 380.164 133.279 380.204 132.991 380.284C132.703 380.364 132.467 380.52 132.283 380.752C132.099 380.984 131.959 381.328 131.863 381.784C131.775 382.24 131.731 382.848 131.731 383.608C131.731 384.328 131.767 384.912 131.839 385.36C131.919 385.8 132.047 386.14 132.223 386.38C132.407 386.612 132.643 386.772 132.931 386.86C133.227 386.948 133.587 386.992 134.011 386.992ZM140.88 388.072C140.28 388.072 139.812 387.912 139.476 387.592C139.148 387.264 138.984 386.768 138.984 386.104V381.58H140.184V385.78C140.184 386.26 140.292 386.584 140.508 386.752C140.732 386.92 141.044 387.004 141.444 387.004C141.764 387.004 142.068 386.956 142.356 386.86C142.652 386.756 142.94 386.616 143.22 386.44V381.58H144.42V388H143.46L143.22 387.316C142.908 387.516 142.548 387.692 142.14 387.844C141.74 387.996 141.32 388.072 140.88 388.072ZM148.294 388C147.862 388 147.502 387.932 147.214 387.796C146.934 387.652 146.726 387.424 146.59 387.112C146.462 386.8 146.402 386.384 146.41 385.864L146.458 382.564H145.438V381.784L146.482 381.58L146.662 379.78H147.61V381.58H149.35V382.564H147.61V385.852C147.61 386.1 147.634 386.3 147.682 386.452C147.73 386.604 147.798 386.72 147.886 386.8C147.974 386.88 148.07 386.94 148.174 386.98C148.278 387.012 148.378 387.032 148.474 387.04L149.266 387.112V388H148.294Z" fill="black"/>
<path d="M219.237 361.048C218.639 361.048 218.117 360.947 217.669 360.744C217.221 360.531 216.874 360.211 216.629 359.784C216.383 359.357 216.261 358.819 216.261 358.168V352.072C216.261 351.421 216.383 350.877 216.629 350.44C216.874 350.003 217.221 349.672 217.669 349.448C218.127 349.224 218.65 349.112 219.237 349.112H221.589C222.25 349.112 222.789 349.235 223.205 349.48C223.631 349.725 223.946 350.067 224.149 350.504C224.362 350.941 224.469 351.464 224.469 352.072V358.168C224.469 359.139 224.207 359.864 223.685 360.344C223.173 360.813 222.469 361.048 221.573 361.048H219.237ZM219.573 359.592H221.189C221.775 359.592 222.197 359.448 222.453 359.16C222.719 358.872 222.853 358.467 222.853 357.944V352.216C222.853 351.64 222.714 351.219 222.437 350.952C222.159 350.685 221.765 350.552 221.253 350.552H219.525C219.013 350.552 218.607 350.696 218.309 350.984C218.01 351.272 217.861 351.683 217.861 352.216V357.944C217.861 358.499 218.01 358.915 218.309 359.192C218.618 359.459 219.039 359.592 219.573 359.592ZM226.826 361.016C226.644 361.016 226.554 360.925 226.554 360.744V359.352C226.554 359.16 226.644 359.064 226.826 359.064H227.738C227.93 359.064 228.026 359.16 228.026 359.352V360.744C228.026 360.84 227.999 360.909 227.946 360.952C227.892 360.995 227.823 361.016 227.738 361.016H226.826ZM226.826 354.376C226.644 354.376 226.554 354.285 226.554 354.104V352.712C226.554 352.52 226.644 352.424 226.826 352.424H227.738C227.93 352.424 228.026 352.52 228.026 352.712V354.104C228.026 354.2 227.999 354.269 227.946 354.312C227.892 354.355 227.823 354.376 227.738 354.376H226.826ZM233.049 361.048C232.452 361.048 231.929 360.947 231.481 360.744C231.033 360.531 230.686 360.211 230.441 359.784C230.196 359.357 230.073 358.819 230.073 358.168V352.072C230.073 351.421 230.196 350.877 230.441 350.44C230.686 350.003 231.033 349.672 231.481 349.448C231.94 349.224 232.462 349.112 233.049 349.112H235.401C236.062 349.112 236.601 349.235 237.017 349.48C237.444 349.725 237.758 350.067 237.961 350.504C238.174 350.941 238.281 351.464 238.281 352.072V358.168C238.281 359.139 238.02 359.864 237.497 360.344C236.985 360.813 236.281 361.048 235.385 361.048H233.049ZM233.385 359.592H235.001C235.588 359.592 236.009 359.448 236.265 359.16C236.532 358.872 236.665 358.467 236.665 357.944V352.216C236.665 351.64 236.526 351.219 236.249 350.952C235.972 350.685 235.577 350.552 235.065 350.552H233.337C232.825 350.552 232.42 350.696 232.121 350.984C231.822 351.272 231.673 351.683 231.673 352.216V357.944C231.673 358.499 231.822 358.915 232.121 359.192C232.43 359.459 232.852 359.592 233.385 359.592ZM243.502 361.048C242.905 361.048 242.382 360.947 241.934 360.744C241.486 360.531 241.14 360.211 240.894 359.784C240.649 359.357 240.526 358.819 240.526 358.168V352.072C240.526 351.421 240.649 350.877 240.894 350.44C241.14 350.003 241.486 349.672 241.934 349.448C242.393 349.224 242.916 349.112 243.502 349.112H245.854C246.516 349.112 247.054 349.235 247.47 349.48C247.897 349.725 248.212 350.067 248.414 350.504C248.628 350.941 248.734 351.464 248.734 352.072V358.168C248.734 359.139 248.473 359.864 247.95 360.344C247.438 360.813 246.734 361.048 245.838 361.048H243.502ZM243.838 359.592H245.454C246.041 359.592 246.462 359.448 246.718 359.16C246.985 358.872 247.118 358.467 247.118 357.944V352.216C247.118 351.64 246.98 351.219 246.702 350.952C246.425 350.685 246.03 350.552 245.518 350.552H243.79C243.278 350.552 242.873 350.696 242.574 350.984C242.276 351.272 242.126 351.683 242.126 352.216V357.944C242.126 358.499 242.276 358.915 242.574 359.192C242.884 359.459 243.305 359.592 243.838 359.592Z" fill="black"/>
<path d="M200.568 388L198.348 379.156H199.596L201.348 386.284L203.364 379.156H204.54L206.544 386.284L208.308 379.156H209.544L207.324 388H206.052L203.952 380.872L201.84 388H200.568ZM212.87 388.072C212.382 388.072 211.958 388.02 211.598 387.916C211.246 387.812 210.954 387.64 210.722 387.4C210.49 387.152 210.318 386.816 210.206 386.392C210.094 385.968 210.038 385.432 210.038 384.784C210.038 384.112 210.094 383.564 210.206 383.14C210.318 382.708 210.49 382.372 210.722 382.132C210.954 381.892 211.25 381.728 211.61 381.64C211.97 381.544 212.39 381.496 212.87 381.496C213.35 381.496 213.77 381.544 214.13 381.64C214.49 381.736 214.786 381.904 215.018 382.144C215.25 382.384 215.422 382.72 215.534 383.152C215.646 383.576 215.702 384.12 215.702 384.784C215.702 385.44 215.646 385.984 215.534 386.416C215.422 386.84 215.25 387.172 215.018 387.412C214.794 387.652 214.502 387.824 214.142 387.928C213.782 388.024 213.358 388.072 212.87 388.072ZM212.87 387.088C213.134 387.088 213.366 387.064 213.566 387.016C213.774 386.968 213.946 386.868 214.082 386.716C214.218 386.556 214.322 386.32 214.394 386.008C214.466 385.696 214.502 385.284 214.502 384.772C214.502 384.26 214.466 383.852 214.394 383.548C214.322 383.236 214.218 383.004 214.082 382.852C213.946 382.7 213.774 382.6 213.566 382.552C213.366 382.496 213.134 382.468 212.87 382.468C212.598 382.468 212.358 382.496 212.15 382.552C211.95 382.6 211.782 382.7 211.646 382.852C211.518 383.004 211.418 383.236 211.346 383.548C211.282 383.852 211.25 384.26 211.25 384.772C211.25 385.284 211.282 385.696 211.346 386.008C211.418 386.32 211.518 386.556 211.646 386.716C211.782 386.868 211.95 386.968 212.15 387.016C212.358 387.064 212.598 387.088 212.87 387.088ZM217.168 388V381.58H218.092L218.368 382.66C218.64 382.332 218.944 382.056 219.28 381.832C219.616 381.608 220.008 381.496 220.456 381.496C220.56 381.496 220.66 381.504 220.756 381.52C220.852 381.528 220.944 381.544 221.032 381.568V382.804C220.92 382.788 220.804 382.776 220.684 382.768C220.564 382.752 220.44 382.744 220.312 382.744C220.04 382.744 219.796 382.776 219.58 382.84C219.364 382.904 219.156 383.004 218.956 383.14C218.764 383.268 218.568 383.428 218.368 383.62V388H217.168ZM222.16 388V378.844H223.36V384.04H224.236L226.024 381.58H227.272L225.124 384.58L227.428 388H226.168L224.2 385.12H223.36V388H222.16ZM228.586 380.5C228.442 380.5 228.37 380.432 228.37 380.296V379.288C228.37 379.144 228.442 379.072 228.586 379.072H229.474C229.538 379.072 229.586 379.092 229.618 379.132C229.65 379.172 229.666 379.224 229.666 379.288V380.296C229.666 380.432 229.602 380.5 229.474 380.5H228.586ZM228.418 388V381.58H229.618V388H228.418ZM231.301 388V381.58H232.261L232.501 382.276C232.789 382.068 233.129 381.884 233.521 381.724C233.921 381.556 234.333 381.472 234.757 381.472C235.237 381.472 235.621 381.576 235.909 381.784C236.205 381.984 236.417 382.252 236.545 382.588C236.673 382.924 236.737 383.288 236.737 383.68V388H235.537V383.824C235.537 383.568 235.485 383.348 235.381 383.164C235.285 382.972 235.149 382.824 234.973 382.72C234.797 382.616 234.581 382.564 234.325 382.564C234.085 382.564 233.861 382.588 233.653 382.636C233.453 382.684 233.261 382.752 233.077 382.84C232.893 382.92 232.701 383.02 232.501 383.14V388H231.301ZM239.975 390.952C239.567 390.952 239.203 390.892 238.883 390.772C238.571 390.66 238.323 390.484 238.139 390.244C237.955 390.012 237.863 389.724 237.863 389.38V389.116C237.863 388.756 237.963 388.452 238.163 388.204C238.371 387.964 238.631 387.78 238.943 387.652C239.255 387.524 239.579 387.46 239.915 387.46L240.239 387.904C240.023 387.904 239.819 387.936 239.627 388C239.443 388.072 239.291 388.18 239.171 388.324C239.059 388.476 239.003 388.668 239.003 388.9V389.128C239.003 389.464 239.115 389.708 239.339 389.86C239.571 390.012 239.887 390.088 240.287 390.088H241.691C242.115 390.088 242.451 390.004 242.699 389.836C242.947 389.676 243.071 389.424 243.071 389.08V388.852C243.071 388.66 243.027 388.492 242.939 388.348C242.859 388.204 242.727 388.092 242.543 388.012C242.359 387.94 242.107 387.904 241.787 387.904H240.011C239.443 387.904 239.011 387.788 238.715 387.556C238.419 387.324 238.271 387.032 238.271 386.68C238.271 386.36 238.363 386.104 238.547 385.912C238.739 385.712 239.007 385.576 239.351 385.504C239.063 385.376 238.835 385.212 238.667 385.012C238.507 384.812 238.395 384.596 238.331 384.364C238.267 384.124 238.235 383.884 238.235 383.644C238.235 383.156 238.335 382.76 238.535 382.456C238.735 382.152 239.023 381.928 239.399 381.784C239.783 381.64 240.239 381.568 240.767 381.568H244.223V382.252L242.915 382.384C243.011 382.456 243.115 382.552 243.227 382.672C243.339 382.784 243.435 382.94 243.515 383.14C243.595 383.34 243.635 383.604 243.635 383.932C243.635 384.276 243.559 384.596 243.407 384.892C243.263 385.188 243.023 385.428 242.687 385.612C242.359 385.796 241.911 385.888 241.343 385.888H240.287C239.983 385.888 239.743 385.932 239.567 386.02C239.391 386.108 239.303 386.264 239.303 386.488C239.303 386.672 239.371 386.8 239.507 386.872C239.643 386.944 239.787 386.98 239.939 386.98H241.967C242.455 386.98 242.863 387.044 243.191 387.172C243.527 387.3 243.779 387.496 243.947 387.76C244.115 388.024 244.199 388.368 244.199 388.792V389.02C244.199 389.628 243.999 390.1 243.599 390.436C243.207 390.78 242.611 390.952 241.811 390.952H239.975ZM240.503 384.964H241.211C241.571 384.964 241.843 384.912 242.027 384.808C242.219 384.696 242.351 384.552 242.423 384.376C242.495 384.2 242.531 384.004 242.531 383.788C242.531 383.468 242.479 383.216 242.375 383.032C242.271 382.84 242.127 382.704 241.943 382.624C241.767 382.536 241.551 382.492 241.295 382.492H240.623C240.215 382.492 239.895 382.584 239.663 382.768C239.439 382.952 239.327 383.268 239.327 383.716C239.327 384.156 239.431 384.476 239.639 384.676C239.847 384.868 240.135 384.964 240.503 384.964ZM248.54 388V379.156H249.752V383.128H253.844V379.156H255.044V388H253.844V384.208H249.752V388H248.54ZM256.766 388V381.58H257.69L257.966 382.66C258.238 382.332 258.542 382.056 258.878 381.832C259.214 381.608 259.606 381.496 260.054 381.496C260.158 381.496 260.258 381.504 260.354 381.52C260.45 381.528 260.542 381.544 260.63 381.568V382.804C260.518 382.788 260.402 382.776 260.282 382.768C260.162 382.752 260.038 382.744 259.91 382.744C259.638 382.744 259.394 382.776 259.178 382.84C258.962 382.904 258.754 383.004 258.554 383.14C258.362 383.268 258.166 383.428 257.966 383.62V388H256.766ZM264.002 388.072C263.834 388.072 263.634 388.068 263.402 388.06C263.17 388.052 262.93 388.036 262.682 388.012C262.442 387.996 262.218 387.976 262.01 387.952C261.81 387.928 261.65 387.9 261.53 387.868V387.148H264.23C264.462 387.148 264.662 387.132 264.83 387.1C264.998 387.06 265.126 386.98 265.214 386.86C265.31 386.74 265.358 386.564 265.358 386.332V386.068C265.358 385.828 265.278 385.64 265.118 385.504C264.958 385.368 264.694 385.3 264.326 385.3H263.39C263.014 385.3 262.678 385.252 262.382 385.156C262.094 385.052 261.866 384.88 261.698 384.64C261.538 384.4 261.458 384.076 261.458 383.668V383.32C261.458 382.912 261.534 382.576 261.686 382.312C261.846 382.048 262.098 381.852 262.442 381.724C262.786 381.588 263.242 381.52 263.81 381.52C264.05 381.52 264.314 381.532 264.602 381.556C264.898 381.572 265.186 381.596 265.466 381.628C265.746 381.66 265.97 381.696 266.138 381.736V382.456H263.594C263.242 382.456 262.97 382.516 262.778 382.636C262.594 382.756 262.502 382.984 262.502 383.32V383.56C262.502 383.768 262.546 383.928 262.634 384.04C262.722 384.152 262.846 384.224 263.006 384.256C263.174 384.288 263.37 384.304 263.594 384.304H264.554C265.162 384.304 265.622 384.448 265.934 384.736C266.246 385.016 266.402 385.412 266.402 385.924V386.416C266.402 386.848 266.302 387.184 266.102 387.424C265.902 387.664 265.622 387.832 265.262 387.928C264.91 388.024 264.49 388.072 264.002 388.072Z" fill="black"/>
<rect x="93" y="433" width="80" height="40" rx="20" fill="#EF7E22"/>
<rect x="133" y="437" width="32" height="32" rx="16" fill="white"/>
<path d="M143 452.857H155M143 452.857L148.143 447.714M143 452.857L148.143 458" stroke="#EF7E22" stroke-width="2" stroke-linecap="round" stroke-linejoin="round"/>
<defs>
<linearGradient id="paint0_linear_10_715" x1="192" y1="118.5" x2="75" y2="251.5" gradientUnits="userSpaceOnUse">
<stop stop-color="#EF7E22"/>
<stop offset="1" stop-color="#C45800"/>
</linearGradient>
</defs>
</svg>
